G04*
G04 #@! TF.GenerationSoftware,Altium Limited,Altium Designer,21.0.9 (235)*
G04*
G04 Layer_Physical_Order=1*
G04 Layer_Color=255*
%FSLAX25Y25*%
%MOIN*%
G70*
G04*
G04 #@! TF.SameCoordinates,D8BD6BA4-3444-481E-B6E4-69F3699672C9*
G04*
G04*
G04 #@! TF.FilePolarity,Positive*
G04*
G01*
G75*
%ADD14O,0.06102X0.02362*%
%ADD15R,0.09843X0.04528*%
%ADD16R,0.05118X0.10630*%
%ADD17R,0.04528X0.09843*%
%ADD18R,0.10630X0.05118*%
%ADD19R,0.08540X0.02292*%
G04:AMPARAMS|DCode=20|XSize=85.4mil|YSize=22.92mil|CornerRadius=11.46mil|HoleSize=0mil|Usage=FLASHONLY|Rotation=180.000|XOffset=0mil|YOffset=0mil|HoleType=Round|Shape=RoundedRectangle|*
%AMROUNDEDRECTD20*
21,1,0.08540,0.00000,0,0,180.0*
21,1,0.06248,0.02292,0,0,180.0*
1,1,0.02292,-0.03124,0.00000*
1,1,0.02292,0.03124,0.00000*
1,1,0.02292,0.03124,0.00000*
1,1,0.02292,-0.03124,0.00000*
%
%ADD20ROUNDEDRECTD20*%
%ADD30C,0.07874*%
%ADD31C,0.02953*%
%ADD32C,0.05000*%
%ADD33C,0.33465*%
%ADD34C,0.05906*%
%ADD35R,0.05906X0.05906*%
%ADD36C,0.05000*%
G36*
X354331Y446850D02*
Y408393D01*
X353831Y408147D01*
X353537Y408372D01*
X352685Y408725D01*
X351772Y408845D01*
X292605D01*
Y416929D01*
X292485Y417843D01*
X292339Y418196D01*
Y423244D01*
X285811D01*
Y418196D01*
X285665Y417843D01*
X285545Y416929D01*
Y405315D01*
Y397231D01*
X275590D01*
X274677Y397111D01*
X273826Y396758D01*
X273094Y396197D01*
X265861Y388963D01*
X253559D01*
Y391354D01*
X247031D01*
Y386700D01*
X246885Y386347D01*
X246765Y385433D01*
X246885Y384519D01*
X247031Y384167D01*
Y379512D01*
X250839D01*
X251083Y379463D01*
X252694D01*
X271207Y360951D01*
X271491Y360761D01*
X271339Y360261D01*
X253165D01*
Y364189D01*
X246047D01*
Y351559D01*
X246765D01*
Y330709D01*
Y330315D01*
X246885Y329401D01*
X247031Y329048D01*
Y324787D01*
X253559D01*
Y329048D01*
X253705Y329401D01*
X253825Y330315D01*
Y330709D01*
Y354429D01*
X253772Y354835D01*
X254102Y355211D01*
X275818D01*
X276009Y354749D01*
X255906Y334646D01*
Y296444D01*
X253953D01*
Y298835D01*
X247425D01*
Y294180D01*
X247279Y293827D01*
X247159Y292913D01*
X247279Y292000D01*
X247425Y291647D01*
Y286992D01*
X251233D01*
X251476Y286944D01*
X253088D01*
X255906Y284126D01*
Y267741D01*
X253559D01*
Y271669D01*
X246441D01*
Y259039D01*
X247159D01*
Y238189D01*
Y237795D01*
X247279Y236882D01*
X247425Y236529D01*
Y232268D01*
X251300D01*
X251491Y231806D01*
X234252Y214567D01*
X234646Y214173D01*
Y206315D01*
X234630D01*
Y201660D01*
X234484Y201307D01*
X234364Y200394D01*
Y198209D01*
X234484Y197295D01*
X234630Y196942D01*
Y194473D01*
X234646D01*
Y174396D01*
X221669D01*
Y177181D01*
X214551D01*
Y164551D01*
X221669D01*
Y167336D01*
X234646D01*
Y147653D01*
X234630D01*
Y146712D01*
X222063D01*
Y147653D01*
X219299D01*
Y141732D01*
Y135811D01*
X222063D01*
Y136753D01*
X234630D01*
Y135811D01*
X236236D01*
X250487Y121560D01*
X250296Y121098D01*
X203178Y121098D01*
X166075Y158201D01*
X166075Y158201D01*
X158201Y166075D01*
X157870Y166296D01*
X157480Y166374D01*
X130941D01*
Y174775D01*
X132312Y176146D01*
X157480Y176146D01*
X157870Y176223D01*
X158201Y176444D01*
X168044Y186287D01*
X168265Y186618D01*
X168342Y187008D01*
Y251969D01*
X168265Y252359D01*
X168044Y252690D01*
X160170Y260563D01*
X159839Y260785D01*
X159449Y260862D01*
X132312D01*
X130941Y262233D01*
X130941Y269263D01*
X132312Y270634D01*
X159449D01*
X159839Y270712D01*
X160170Y270933D01*
X168044Y278807D01*
X168265Y279137D01*
X168342Y279528D01*
Y346457D01*
X168265Y346847D01*
X168044Y347178D01*
X162138Y353083D01*
X161808Y353304D01*
X161417Y353382D01*
X129921Y353382D01*
X129531Y353304D01*
X129200Y353083D01*
X128415Y352298D01*
X127953Y352489D01*
Y393701D01*
X196850Y462598D01*
X338583Y462598D01*
X354331Y446850D01*
D02*
G37*
G36*
X354189Y397905D02*
X354148Y397661D01*
X353606Y397459D01*
X352884Y398013D01*
X351682Y398511D01*
X350394Y398680D01*
X344110D01*
Y399622D01*
X341347D01*
Y393701D01*
X340347D01*
Y399622D01*
X337583D01*
Y397419D01*
X337325Y397222D01*
X336534Y396191D01*
X336036Y394990D01*
X335867Y393701D01*
X336036Y392412D01*
X336534Y391211D01*
X337261Y390264D01*
X337175Y389956D01*
X337046Y389764D01*
X331975D01*
Y393701D01*
X331855Y394615D01*
X331709Y394967D01*
Y399622D01*
X325181D01*
Y395888D01*
X323482D01*
X322515Y395696D01*
X321696Y395149D01*
X316311Y389764D01*
X315794D01*
X315548Y390264D01*
X316125Y391015D01*
X316622Y392216D01*
X316792Y393505D01*
X316622Y394794D01*
X316125Y395995D01*
X315333Y397026D01*
X314302Y397817D01*
X313101Y398315D01*
X311812Y398484D01*
X304740D01*
Y399622D01*
X301976D01*
Y393701D01*
Y387779D01*
X304740D01*
Y388525D01*
X309132D01*
X309323Y388063D01*
X289207Y367948D01*
X288665Y368112D01*
X288570Y368587D01*
X288088Y369309D01*
X287367Y369791D01*
X286516Y369960D01*
X285922D01*
X285317Y370364D01*
X284350Y370556D01*
X278684D01*
X278116Y371125D01*
Y376907D01*
X280573Y379365D01*
X285672D01*
X286638Y379557D01*
X287457Y380104D01*
X290073Y382720D01*
X290620Y383539D01*
X290812Y384505D01*
Y387779D01*
X292339D01*
Y392041D01*
X292485Y392393D01*
X292605Y393307D01*
Y393464D01*
X292605Y393465D01*
X292605Y393465D01*
Y401785D01*
X350309D01*
X354189Y397905D01*
D02*
G37*
G36*
X285763Y385551D02*
X284626Y384415D01*
X279528D01*
X278561Y384223D01*
X277742Y383675D01*
X273805Y379738D01*
X273258Y378919D01*
X273066Y377953D01*
Y370079D01*
X273258Y369112D01*
X273805Y368293D01*
X275852Y366246D01*
X276578Y365761D01*
X276509Y365296D01*
X276495Y365261D01*
X274038D01*
X257858Y381441D01*
X258050Y381903D01*
X267323D01*
X268236Y382023D01*
X269088Y382376D01*
X269819Y382937D01*
X277053Y390171D01*
X285763D01*
Y385551D01*
D02*
G37*
G36*
X501968Y393701D02*
X501968Y312992D01*
X492126Y303150D01*
X445438D01*
Y346457D01*
X445246Y347423D01*
X444972Y347832D01*
X444699Y348242D01*
X427278Y365663D01*
X426458Y366211D01*
X425492Y366403D01*
X401590D01*
Y367142D01*
X396936D01*
X396583Y367288D01*
X395669Y367408D01*
X389469D01*
X388555Y367288D01*
X387703Y366935D01*
X386972Y366374D01*
X382396Y361798D01*
X375213D01*
Y364583D01*
X368094D01*
Y351953D01*
X375213D01*
Y354737D01*
X383858D01*
X384772Y354858D01*
X385623Y355210D01*
X386354Y355771D01*
X390931Y360348D01*
X395669D01*
X396583Y360468D01*
X396936Y360614D01*
X401590D01*
Y361353D01*
X424446D01*
X440388Y345411D01*
Y303150D01*
X398194D01*
Y321244D01*
X401590D01*
Y327772D01*
X396936D01*
X396583Y327918D01*
X395669Y328038D01*
X369783D01*
X368870Y327918D01*
X368018Y327565D01*
X367287Y327004D01*
X366378Y326095D01*
X362205Y330268D01*
Y351953D01*
X364189D01*
Y364583D01*
X362205D01*
Y378360D01*
X366142D01*
X367055Y378480D01*
X367907Y378833D01*
X368638Y379394D01*
X374091Y384846D01*
X374652Y385577D01*
X375004Y386429D01*
X375125Y387343D01*
Y387386D01*
X375213D01*
Y400016D01*
X368094D01*
Y393871D01*
X368064Y393642D01*
Y388805D01*
X364680Y385420D01*
X362205D01*
Y387386D01*
X364189D01*
Y400016D01*
X362205D01*
Y446850D01*
X377953Y462598D01*
X433071D01*
X501968Y393701D01*
D02*
G37*
G36*
X393144Y303150D02*
X389323D01*
X371957Y320516D01*
X372148Y320978D01*
X393144D01*
Y303150D01*
D02*
G37*
G36*
Y274426D02*
X392926Y274099D01*
X392757Y273248D01*
X392926Y272397D01*
X393408Y271675D01*
X394010Y271273D01*
X393876Y270773D01*
X388327D01*
X387361Y270581D01*
X386541Y270033D01*
X384358Y267850D01*
X383858Y268057D01*
Y291339D01*
X391732Y299213D01*
X393144D01*
Y274426D01*
D02*
G37*
G36*
X440388Y278605D02*
X427557Y265773D01*
X421085D01*
X420950Y266273D01*
X421553Y266675D01*
X422035Y267397D01*
X422204Y268248D01*
X422035Y269099D01*
X421553Y269820D01*
X420831Y270303D01*
X420335Y270401D01*
Y270911D01*
X420356Y270915D01*
X420747Y271177D01*
X420831Y271194D01*
X421553Y271675D01*
X421885Y272172D01*
X426931Y277218D01*
X427478Y278038D01*
X427670Y279004D01*
Y281979D01*
X427946Y282255D01*
X428407Y283053D01*
X428635Y283904D01*
X421656D01*
X421884Y283053D01*
X422345Y282255D01*
X422620Y281979D01*
Y280050D01*
X418344Y275773D01*
X418110D01*
X417144Y275581D01*
X416981Y275472D01*
X416240D01*
X415389Y275303D01*
X414668Y274820D01*
X414186Y274099D01*
X414116Y273748D01*
X418110D01*
Y272748D01*
X414116D01*
X414186Y272397D01*
X414668Y271675D01*
X414887Y271529D01*
X414736Y271029D01*
X411676D01*
X407671Y275033D01*
X406852Y275581D01*
X405886Y275773D01*
X398194D01*
Y299213D01*
X440388D01*
Y278605D01*
D02*
G37*
G36*
X450787Y299213D02*
X458661Y291338D01*
Y261445D01*
X457990Y260773D01*
X430256D01*
X430104Y261273D01*
X430388Y261463D01*
X444699Y275774D01*
X445246Y276593D01*
X445438Y277559D01*
Y299213D01*
X450787D01*
Y299213D01*
D02*
G37*
G36*
X408845Y266719D02*
X409664Y266171D01*
X410630Y265979D01*
X416225D01*
X416477Y265479D01*
X416471Y265472D01*
X416240D01*
X415389Y265303D01*
X414668Y264821D01*
X414186Y264099D01*
X414016Y263248D01*
X414186Y262397D01*
X414668Y261676D01*
X415389Y261193D01*
X416240Y261024D01*
X416337D01*
X416545Y260524D01*
X416493Y260472D01*
X416240D01*
X415389Y260303D01*
X414668Y259821D01*
X414186Y259099D01*
X414016Y258248D01*
X414186Y257397D01*
X414668Y256676D01*
X415389Y256193D01*
X416240Y256024D01*
X416981D01*
X417144Y255915D01*
X418110Y255723D01*
X458661D01*
Y250556D01*
X412463D01*
X410005Y253014D01*
Y261518D01*
X409813Y262485D01*
X409266Y263304D01*
X407536Y265033D01*
X406717Y265581D01*
X405751Y265773D01*
X399825D01*
X399690Y266273D01*
X400293Y266675D01*
X400775Y267397D01*
X400944Y268248D01*
X400775Y269099D01*
X400293Y269820D01*
X399690Y270223D01*
X399825Y270723D01*
X404840D01*
X408845Y266719D01*
D02*
G37*
G36*
X255906Y236221D02*
X254415Y234730D01*
X253953Y234921D01*
Y236529D01*
X254099Y236882D01*
X254219Y237795D01*
Y238189D01*
Y261910D01*
X254166Y262316D01*
X254495Y262692D01*
X255906D01*
Y236221D01*
D02*
G37*
G36*
X404955Y260472D02*
Y251969D01*
X405148Y251002D01*
X405695Y250183D01*
X409632Y246246D01*
X410451Y245699D01*
X411417Y245507D01*
X426403D01*
X426462Y245424D01*
X426444Y244815D01*
X424476Y242847D01*
X424255Y242516D01*
X424177Y242126D01*
X424177Y229434D01*
X420900D01*
X420826Y229652D01*
X420817Y229934D01*
X421457Y230362D01*
X421931Y231072D01*
X422098Y231909D01*
X421931Y232747D01*
X421457Y233457D01*
X420747Y233931D01*
X419910Y234097D01*
X413662D01*
X412824Y233931D01*
X412115Y233457D01*
X411640Y232747D01*
X411474Y231909D01*
X411640Y231072D01*
X412115Y230362D01*
X412755Y229934D01*
X412745Y229652D01*
X412672Y229434D01*
X410256D01*
X410005Y229685D01*
Y240158D01*
X409813Y241124D01*
X409266Y241943D01*
X399423Y251785D01*
X398604Y252333D01*
X397638Y252525D01*
X394747D01*
X394257Y253014D01*
Y254860D01*
X394825Y255428D01*
X396555D01*
X397521Y255620D01*
X398126Y256024D01*
X398721D01*
X399571Y256193D01*
X400293Y256676D01*
X400775Y257397D01*
X400944Y258248D01*
X400775Y259099D01*
X400293Y259821D01*
X399690Y260223D01*
X399825Y260723D01*
X404705D01*
X404955Y260472D01*
D02*
G37*
G36*
X426444Y223689D02*
X426775Y223467D01*
X427165Y223390D01*
X458661Y223390D01*
Y222428D01*
X453165D01*
Y222457D01*
X447350D01*
Y218898D01*
Y215339D01*
X447801D01*
X447992Y214877D01*
X435455Y202340D01*
X435455Y202340D01*
X434945Y201830D01*
X431102D01*
Y216535D01*
X423194D01*
X422056Y217673D01*
Y219055D01*
X420555D01*
X420281Y219285D01*
X420375Y219814D01*
X420747Y219888D01*
X421457Y220362D01*
X421931Y221072D01*
X421998Y221409D01*
X416786D01*
Y222409D01*
X421998D01*
X421931Y222747D01*
X421457Y223457D01*
X420817Y223885D01*
X420826Y224167D01*
X420900Y224384D01*
X425748D01*
X426444Y223689D01*
D02*
G37*
G36*
X394010Y265223D02*
X393408Y264821D01*
X392926Y264099D01*
X392757Y263248D01*
X392926Y262397D01*
X393408Y261676D01*
X394129Y261193D01*
X394980Y261024D01*
X395214D01*
X395422Y260524D01*
X395375Y260478D01*
X393779D01*
X392813Y260285D01*
X391994Y259738D01*
X389947Y257691D01*
X389400Y256872D01*
X389207Y255906D01*
Y251969D01*
X389400Y251002D01*
X389947Y250183D01*
X391915Y248215D01*
X392735Y247667D01*
X393701Y247475D01*
X396592D01*
X404955Y239112D01*
Y228639D01*
X405148Y227673D01*
X405695Y226854D01*
X407425Y225124D01*
X408078Y224687D01*
X408086Y224665D01*
Y224153D01*
X408078Y224132D01*
X407425Y223695D01*
X405695Y221965D01*
X405148Y221146D01*
X404955Y220180D01*
Y216535D01*
X404303D01*
X404301Y216545D01*
X403754Y217364D01*
X403217Y217901D01*
X402846Y218457D01*
X402136Y218931D01*
X402042Y218950D01*
X401604Y219242D01*
X401528Y219257D01*
Y219767D01*
X402136Y219888D01*
X402846Y220362D01*
X403320Y221072D01*
X403487Y221909D01*
X403320Y222747D01*
X402846Y223457D01*
X402136Y223931D01*
X401299Y224097D01*
X395051D01*
X394213Y223931D01*
X393504Y223457D01*
X393029Y222747D01*
X392863Y221909D01*
X393029Y221072D01*
X393504Y220362D01*
X394213Y219888D01*
X395051Y219722D01*
X396643D01*
X396874Y219235D01*
X396775Y219097D01*
X395051D01*
X394213Y218931D01*
X393504Y218457D01*
X393029Y217747D01*
X392863Y216910D01*
X392556Y216535D01*
X391732D01*
X388352Y219916D01*
Y264702D01*
X389373Y265723D01*
X393876D01*
X394010Y265223D01*
D02*
G37*
G36*
X167323Y346457D02*
Y279528D01*
X159449Y271654D01*
X131890D01*
X129921Y269685D01*
X129921Y261811D01*
X131890Y259842D01*
X159449D01*
X167323Y251969D01*
Y187008D01*
X157480Y177165D01*
X131890Y177165D01*
X129921Y175197D01*
Y165354D01*
X157480D01*
X165354Y157480D01*
X165354Y137795D01*
X165354Y157480D01*
X202756Y120079D01*
X165354D01*
Y132101D01*
X165354Y120079D01*
X165354Y120079D01*
X387795Y120079D01*
X462598Y194882D01*
X496063Y194882D01*
X500000Y198819D01*
X500000Y228346D01*
X496063Y232283D01*
X480315Y232283D01*
X472441Y224409D01*
X427165Y224410D01*
X425197Y226378D01*
X425197Y242126D01*
X427165Y244094D01*
X500000D01*
X501968Y242126D01*
Y242126D01*
X501968Y242126D01*
X501968Y157480D01*
X433071Y88583D01*
X196850Y88583D01*
X165354Y120079D01*
X165354D01*
Y120079D01*
X127953Y157480D01*
X127953Y350394D01*
X129921Y352362D01*
X161417Y352362D01*
X167323Y346457D01*
D02*
G37*
%LPC*%
G36*
X304740Y423244D02*
X301976D01*
Y417323D01*
Y411402D01*
X304740D01*
Y412343D01*
X312008D01*
X313297Y412513D01*
X314498Y413010D01*
X315529Y413802D01*
X316320Y414833D01*
X316818Y416034D01*
X316987Y417323D01*
X316818Y418612D01*
X316320Y419813D01*
X315529Y420844D01*
X314498Y421635D01*
X313297Y422133D01*
X312008Y422302D01*
X304740D01*
Y423244D01*
D02*
G37*
G36*
X300976D02*
X298213D01*
Y421041D01*
X297955Y420844D01*
X297164Y419813D01*
X296666Y418612D01*
X296497Y417323D01*
X296666Y416034D01*
X297164Y414833D01*
X297955Y413802D01*
X298213Y413604D01*
Y411402D01*
X300976D01*
Y417323D01*
Y423244D01*
D02*
G37*
G36*
X241158Y391354D02*
X234630D01*
Y386700D01*
X234484Y386347D01*
X234364Y385433D01*
Y383248D01*
X234484Y382334D01*
X234630Y381982D01*
Y379512D01*
X235052D01*
Y364189D01*
X235024D01*
Y361404D01*
X221669D01*
Y364189D01*
X214551D01*
Y351559D01*
X221669D01*
Y354344D01*
X235024D01*
Y351559D01*
X242142D01*
Y364189D01*
X242113D01*
Y382559D01*
X241993Y383473D01*
X241640Y384324D01*
X241424Y384606D01*
Y385433D01*
X241304Y386347D01*
X241158Y386700D01*
Y391354D01*
D02*
G37*
G36*
X210646Y364189D02*
X203528D01*
Y361404D01*
X190173D01*
Y364189D01*
X183055D01*
Y351559D01*
X190173D01*
Y354344D01*
X202867D01*
Y330315D01*
X202988Y329401D01*
X203134Y329048D01*
Y324787D01*
X209661D01*
Y329048D01*
X209807Y329401D01*
X209928Y330315D01*
Y351559D01*
X210646D01*
Y364189D01*
D02*
G37*
G36*
X179150D02*
X172031D01*
Y361404D01*
X139586D01*
X139321Y361557D01*
X138316Y361827D01*
X137275D01*
X136270Y361557D01*
X135368Y361037D01*
X134632Y360301D01*
X134112Y359400D01*
X133843Y358394D01*
Y357354D01*
X134112Y356348D01*
X134632Y355447D01*
X135368Y354711D01*
X136270Y354191D01*
X137275Y353921D01*
X138316D01*
X139321Y354191D01*
X139586Y354344D01*
X172031D01*
Y351559D01*
X179150D01*
Y364189D01*
D02*
G37*
G36*
X228199Y336919D02*
X226910Y336749D01*
X226726Y336672D01*
X219784D01*
X219783Y336672D01*
X219460Y336630D01*
X219299D01*
Y330709D01*
Y324787D01*
X222063D01*
Y326713D01*
X227953D01*
X227953Y326713D01*
X228199Y326746D01*
X228445Y326713D01*
X228445Y326713D01*
X234630D01*
Y324787D01*
X237394D01*
Y330709D01*
Y336630D01*
X237233D01*
X236910Y336672D01*
X236909Y336672D01*
X229672D01*
X229488Y336749D01*
X228199Y336919D01*
D02*
G37*
G36*
X241158Y336630D02*
X238394D01*
Y330709D01*
Y324787D01*
X241158D01*
Y326990D01*
X241415Y327187D01*
X242206Y328219D01*
X242704Y329420D01*
X242873Y330709D01*
X242704Y331997D01*
X242206Y333198D01*
X241415Y334230D01*
X241158Y334487D01*
Y336630D01*
D02*
G37*
G36*
X218299D02*
X215535D01*
Y334487D01*
X215278Y334230D01*
X214487Y333198D01*
X213989Y331997D01*
X213820Y330709D01*
X213989Y329420D01*
X214487Y328219D01*
X215278Y327187D01*
X215535Y326990D01*
Y324787D01*
X218299D01*
Y330709D01*
Y336630D01*
D02*
G37*
G36*
X241551Y298835D02*
X235024D01*
Y294180D01*
X234877Y293827D01*
X234757Y292913D01*
Y290728D01*
X234877Y289815D01*
X235024Y289462D01*
Y286992D01*
X235446D01*
Y271669D01*
X235417D01*
Y268884D01*
X222063D01*
Y271669D01*
X214945D01*
Y259039D01*
X222063D01*
Y261824D01*
X235417D01*
Y259039D01*
X242535D01*
Y271669D01*
X242507D01*
Y290039D01*
X242386Y290953D01*
X242034Y291805D01*
X241818Y292086D01*
Y292913D01*
X241697Y293827D01*
X241551Y294180D01*
Y298835D01*
D02*
G37*
G36*
X211039Y271669D02*
X203921D01*
Y268884D01*
X190567D01*
Y271669D01*
X183449D01*
Y259039D01*
X190567D01*
Y261824D01*
X203921D01*
Y259039D01*
X203950D01*
Y244110D01*
X203528D01*
Y241247D01*
X203381Y240894D01*
X203261Y239980D01*
Y237795D01*
X203381Y236882D01*
X203528Y236529D01*
Y232268D01*
X210055D01*
Y236529D01*
X210201Y236882D01*
X210321Y237795D01*
Y238623D01*
X210538Y238904D01*
X210890Y239756D01*
X211011Y240669D01*
Y259039D01*
X211039D01*
Y271669D01*
D02*
G37*
G36*
X179543D02*
X172425D01*
Y268884D01*
X139980D01*
X139715Y269038D01*
X138709Y269307D01*
X137669D01*
X136663Y269038D01*
X135762Y268517D01*
X135026Y267781D01*
X134506Y266880D01*
X134236Y265875D01*
Y264834D01*
X134506Y263829D01*
X135026Y262927D01*
X135762Y262191D01*
X136663Y261671D01*
X137669Y261402D01*
X138709D01*
X139715Y261671D01*
X139980Y261824D01*
X172425D01*
Y259039D01*
X179543D01*
Y271669D01*
D02*
G37*
G36*
X237787Y244110D02*
X235024D01*
Y242676D01*
X222457D01*
Y244110D01*
X219693D01*
Y238189D01*
Y232268D01*
X222457D01*
Y232717D01*
X235024D01*
Y232268D01*
X237787D01*
Y238189D01*
Y244110D01*
D02*
G37*
G36*
X241551D02*
X238787D01*
Y238689D01*
X241551D01*
Y244110D01*
D02*
G37*
G36*
X241593Y237689D02*
X238787D01*
Y232268D01*
X241551D01*
Y237373D01*
X241593Y237689D01*
D02*
G37*
G36*
X218693Y244110D02*
X215929D01*
Y241908D01*
X215672Y241710D01*
X214880Y240679D01*
X214383Y239478D01*
X214213Y238189D01*
X214383Y236900D01*
X214880Y235699D01*
X215672Y234668D01*
X215929Y234411D01*
Y232268D01*
X218693D01*
Y238189D01*
Y244110D01*
D02*
G37*
G36*
X179543Y177181D02*
X172425D01*
Y174475D01*
X139723D01*
X139321Y174707D01*
X138316Y174976D01*
X137275D01*
X136270Y174707D01*
X135368Y174187D01*
X134632Y173451D01*
X134112Y172549D01*
X133843Y171544D01*
Y170503D01*
X134112Y169498D01*
X134632Y168597D01*
X135368Y167861D01*
X136270Y167340D01*
X137275Y167071D01*
X138316D01*
X139321Y167340D01*
X139450Y167415D01*
X172425D01*
Y164551D01*
X179543D01*
Y177181D01*
D02*
G37*
G36*
X210646Y177181D02*
X203528D01*
Y174396D01*
X190567D01*
Y177181D01*
X183449D01*
Y164551D01*
X190567D01*
Y167336D01*
X202867D01*
Y141339D01*
X202988Y140425D01*
X203134Y140072D01*
Y135811D01*
X209661D01*
Y140072D01*
X209807Y140425D01*
X209928Y141339D01*
Y164551D01*
X210646D01*
Y177181D01*
D02*
G37*
G36*
X218299Y147653D02*
X215535D01*
Y145451D01*
X215278Y145253D01*
X214487Y144222D01*
X213989Y143021D01*
X213820Y141732D01*
X213989Y140444D01*
X214487Y139242D01*
X215278Y138211D01*
X215535Y138014D01*
Y135811D01*
X218299D01*
Y141732D01*
Y147653D01*
D02*
G37*
G36*
X300976Y399622D02*
X298213D01*
Y397419D01*
X297955Y397222D01*
X297164Y396191D01*
X296666Y394990D01*
X296497Y393701D01*
X296666Y392412D01*
X297164Y391211D01*
X297955Y390180D01*
X298151Y389984D01*
X298151Y389984D01*
X298213Y389937D01*
Y387779D01*
X300976D01*
Y393701D01*
Y399622D01*
D02*
G37*
G36*
X395669Y396712D02*
X394380Y396542D01*
X393179Y396045D01*
X392148Y395253D01*
X391357Y394222D01*
X390859Y393021D01*
X390690Y391732D01*
Y379543D01*
X389748D01*
Y376780D01*
X395669D01*
X401590D01*
Y379543D01*
X400649D01*
Y391732D01*
X400479Y393021D01*
X399982Y394222D01*
X399190Y395253D01*
X398159Y396045D01*
X396958Y396542D01*
X395669Y396712D01*
D02*
G37*
G36*
X401590Y375780D02*
X395669D01*
X389748D01*
Y373016D01*
X391951D01*
X392148Y372758D01*
X393179Y371967D01*
X394380Y371470D01*
X395669Y371300D01*
X396958Y371470D01*
X398159Y371967D01*
X399190Y372758D01*
X399388Y373016D01*
X401590D01*
Y375780D01*
D02*
G37*
G36*
X395669Y340440D02*
X374311D01*
X373397Y340319D01*
X372546Y339967D01*
X371815Y339406D01*
X371519Y339110D01*
X371379Y338927D01*
X371215Y338763D01*
X371099Y338563D01*
X370958Y338379D01*
X370870Y338165D01*
X370754Y337965D01*
X370694Y337742D01*
X370606Y337528D01*
X370576Y337298D01*
X370516Y337075D01*
Y336844D01*
X370486Y336614D01*
X370516Y336385D01*
Y336153D01*
X370576Y335930D01*
X370606Y335700D01*
X370694Y335487D01*
X370754Y335263D01*
X370870Y335063D01*
X370958Y334849D01*
X371099Y334665D01*
X371215Y334465D01*
X371379Y334301D01*
X371519Y334118D01*
X371703Y333977D01*
X371867Y333814D01*
X372067Y333698D01*
X372251Y333557D01*
X372464Y333468D01*
X372665Y333353D01*
X372888Y333293D01*
X373102Y333204D01*
X373331Y333174D01*
X373555Y333114D01*
X373786D01*
X374016Y333084D01*
X374245Y333114D01*
X374477D01*
X374700Y333174D01*
X374929Y333204D01*
X375143Y333293D01*
X375367Y333353D01*
X375413Y333379D01*
X395669D01*
X396583Y333500D01*
X396936Y333646D01*
X401590D01*
Y336409D01*
X395669D01*
Y337409D01*
X401590D01*
Y340173D01*
X396936D01*
X396583Y340319D01*
X395669Y340440D01*
D02*
G37*
G36*
X425645Y287893D02*
Y284904D01*
X428635D01*
X428407Y285755D01*
X427946Y286553D01*
X427294Y287205D01*
X426496Y287665D01*
X425645Y287893D01*
D02*
G37*
G36*
X424645D02*
X423795Y287665D01*
X422996Y287205D01*
X422345Y286553D01*
X421884Y285755D01*
X421656Y284904D01*
X424645D01*
Y287893D01*
D02*
G37*
G36*
X446350Y222457D02*
X440535D01*
Y219398D01*
X446350D01*
Y222457D01*
D02*
G37*
G36*
Y218398D02*
X440535D01*
Y215339D01*
X446350D01*
Y218398D01*
D02*
G37*
G36*
X401299Y234097D02*
X395051D01*
X394213Y233931D01*
X393504Y233457D01*
X393029Y232747D01*
X392863Y231909D01*
X393029Y231072D01*
X393504Y230362D01*
X394213Y229888D01*
X395051Y229721D01*
X401299D01*
X402136Y229888D01*
X402846Y230362D01*
X403320Y231072D01*
X403487Y231909D01*
X403320Y232747D01*
X402846Y233457D01*
X402136Y233931D01*
X401299Y234097D01*
D02*
G37*
G36*
Y229097D02*
X395051D01*
X394213Y228931D01*
X393504Y228457D01*
X393029Y227747D01*
X392863Y226909D01*
X393029Y226072D01*
X393504Y225362D01*
X394213Y224888D01*
X395051Y224722D01*
X401299D01*
X402136Y224888D01*
X402846Y225362D01*
X403320Y226072D01*
X403487Y226909D01*
X403320Y227747D01*
X402846Y228457D01*
X402136Y228931D01*
X401299Y229097D01*
D02*
G37*
%LPD*%
D14*
X284646Y275217D02*
D03*
Y270216D02*
D03*
Y265216D02*
D03*
Y260216D02*
D03*
X305906Y275217D02*
D03*
Y270216D02*
D03*
Y265216D02*
D03*
Y260216D02*
D03*
X284646Y180728D02*
D03*
Y175728D02*
D03*
Y170728D02*
D03*
Y165728D02*
D03*
X305906Y180728D02*
D03*
Y175728D02*
D03*
Y170728D02*
D03*
Y165728D02*
D03*
X418110Y258248D02*
D03*
Y263248D02*
D03*
Y268248D02*
D03*
Y273248D02*
D03*
X396850Y258248D02*
D03*
Y263248D02*
D03*
Y268248D02*
D03*
Y273248D02*
D03*
X284646Y367736D02*
D03*
Y362736D02*
D03*
Y357736D02*
D03*
Y352736D02*
D03*
X305906Y367736D02*
D03*
Y362736D02*
D03*
Y357736D02*
D03*
Y352736D02*
D03*
D15*
X395669Y376279D02*
D03*
Y363878D02*
D03*
Y336910D02*
D03*
Y324508D02*
D03*
D16*
X329134Y303150D02*
D03*
X340158D02*
D03*
X360630Y393701D02*
D03*
X371654D02*
D03*
X360630Y175197D02*
D03*
X371654D02*
D03*
X249606Y170866D02*
D03*
X238583D02*
D03*
X218110D02*
D03*
X207087D02*
D03*
X187008Y170866D02*
D03*
X175984D02*
D03*
X289764Y141732D02*
D03*
X300787D02*
D03*
X362598Y269685D02*
D03*
X373622D02*
D03*
X218504Y265354D02*
D03*
X207480D02*
D03*
X187008D02*
D03*
X175984D02*
D03*
X250000D02*
D03*
X238976D02*
D03*
X401968Y196850D02*
D03*
X412992D02*
D03*
X186614Y357874D02*
D03*
X175591D02*
D03*
X249606D02*
D03*
X238583D02*
D03*
X218110D02*
D03*
X207087D02*
D03*
X360630Y358268D02*
D03*
X371654D02*
D03*
D17*
X374311Y236221D02*
D03*
X361910D02*
D03*
X340846Y269685D02*
D03*
X328445D02*
D03*
X340846Y236221D02*
D03*
X328445D02*
D03*
X372342Y303150D02*
D03*
X359941D02*
D03*
X328445Y208661D02*
D03*
X340846D02*
D03*
X250295Y200394D02*
D03*
X237894D02*
D03*
Y141732D02*
D03*
X250295D02*
D03*
X218799D02*
D03*
X206398D02*
D03*
X328445Y175197D02*
D03*
X340846D02*
D03*
X359941Y141732D02*
D03*
X372342D02*
D03*
X340846D02*
D03*
X328445D02*
D03*
Y358268D02*
D03*
X340846D02*
D03*
X301476Y208661D02*
D03*
X289075D02*
D03*
Y236221D02*
D03*
X301476D02*
D03*
X218799Y330709D02*
D03*
X206398D02*
D03*
X237894D02*
D03*
X250295D02*
D03*
X289075D02*
D03*
X301476D02*
D03*
X340846Y393701D02*
D03*
X328445D02*
D03*
X301476Y303150D02*
D03*
X289075D02*
D03*
X340846Y330709D02*
D03*
X328445D02*
D03*
X250689Y292913D02*
D03*
X238287D02*
D03*
X219193Y238189D02*
D03*
X206791D02*
D03*
X238287D02*
D03*
X250689D02*
D03*
X289075Y417323D02*
D03*
X301476D02*
D03*
X250295Y385433D02*
D03*
X237894D02*
D03*
X301476Y393701D02*
D03*
X289075D02*
D03*
D18*
X446850Y218898D02*
D03*
Y229921D02*
D03*
D19*
X416786Y216910D02*
D03*
D20*
Y221909D02*
D03*
Y226909D02*
D03*
Y231909D02*
D03*
X398175D02*
D03*
Y226909D02*
D03*
Y221909D02*
D03*
Y216910D02*
D03*
D30*
X303396Y305069D02*
Y328789D01*
X303150Y329035D02*
X303396Y328789D01*
X303150Y304823D02*
X303396Y305069D01*
X219783Y331693D02*
X227953D01*
X236910D02*
X237894Y330709D01*
X227953Y331693D02*
X228199Y331939D01*
X218799Y330709D02*
X219783Y331693D01*
X228445D02*
X236910D01*
X228199Y331939D02*
X228445Y331693D01*
X303150Y329035D02*
Y329724D01*
Y304134D02*
Y304823D01*
X301672Y393505D02*
X311812D01*
X301476Y393701D02*
X301672Y393505D01*
X340846Y330709D02*
X351378D01*
X341535Y236221D02*
X355315Y222441D01*
X374016D01*
X340846Y236221D02*
X341535D01*
X301476Y208661D02*
Y222146D01*
X301181Y222441D02*
X301476Y222146D01*
X301181Y222441D02*
X301476Y222736D01*
Y236221D01*
Y330709D02*
X302165D01*
X303150Y329724D01*
X302165Y303150D02*
X303150Y304134D01*
X301476Y303150D02*
X302165D01*
X340846Y393701D02*
X350394D01*
X328445Y208661D02*
X328740Y208957D01*
Y220472D01*
X455709Y215551D02*
X473425D01*
X438976Y198819D02*
X455709Y215551D01*
X228150Y237697D02*
X236614D01*
X219685D02*
X228150D01*
X219193Y238189D02*
X219685Y237697D01*
X359941Y141732D02*
X359941Y141732D01*
X350394Y141732D02*
X359941D01*
X340846D02*
X350394D01*
X340846Y141732D02*
X340846Y141732D01*
X374016Y222441D02*
X374311Y222736D01*
Y236221D01*
X301476Y417323D02*
X312008D01*
X237894Y141732D02*
X237894Y141732D01*
X228346Y141732D02*
X237894D01*
X218799D02*
X228346D01*
X218799Y141732D02*
X218799Y141732D01*
X473425Y215551D02*
X484252Y226378D01*
X492126D01*
X437008Y196850D02*
X438976Y198819D01*
X412992Y196850D02*
X437008D01*
X395669Y376279D02*
Y391732D01*
D31*
X314569Y373624D02*
X314765Y373820D01*
X264252Y255906D02*
X271654Y248504D01*
X263779Y255906D02*
X264252D01*
X283071Y352441D02*
X283366Y352736D01*
X283071Y351161D02*
Y352441D01*
X263779Y331870D02*
X283071Y351161D01*
X263779Y314961D02*
Y331870D01*
X283366Y352736D02*
X284646D01*
X254134Y289469D02*
X268386Y275217D01*
X250689Y290256D02*
X251476Y289469D01*
X250689Y290256D02*
Y292913D01*
X251476Y289469D02*
X254134D01*
X250138Y265216D02*
X284646D01*
X250000Y265354D02*
X250138Y265216D01*
X271654Y224410D02*
Y248504D01*
X283366Y260216D01*
X292913Y260236D02*
X318898Y234252D01*
X299213Y185039D02*
X318898Y204724D01*
Y234252D01*
X284646Y270216D02*
Y275217D01*
X294488Y276378D02*
Y335982D01*
X293701Y336770D02*
X294488Y335982D01*
Y276378D02*
X298819Y272047D01*
X293701Y336770D02*
Y360236D01*
X359547Y392618D02*
X360630Y393701D01*
X346161Y251969D02*
X358465Y239665D01*
X338822Y251969D02*
X346161D01*
X358465Y239665D02*
X361122D01*
X361910Y238878D01*
Y236221D02*
Y238878D01*
X271654Y142717D02*
Y154016D01*
X283366Y165728D01*
X425197Y209646D02*
Y210962D01*
X419249Y216910D02*
X425197Y210962D01*
X412992Y196850D02*
Y208258D01*
X407480Y213770D02*
X412992Y208258D01*
X407480Y213770D02*
Y220180D01*
X416786Y216910D02*
X419249D01*
X407480Y220180D02*
X409210Y221909D01*
X398175Y216910D02*
X400638D01*
X401968Y215579D01*
Y196850D02*
Y215579D01*
X409210Y221909D02*
X416786D01*
X328108Y393363D02*
X328445Y393701D01*
X299213Y369094D02*
X323482Y393363D01*
X299213Y359466D02*
Y369094D01*
X305906Y357736D02*
X327913D01*
X300942D02*
X305906D01*
X323482Y393363D02*
X328108D01*
X385827Y216535D02*
Y265748D01*
X354331Y208661D02*
X377953D01*
X385827Y216535D01*
X305906Y265216D02*
X315492D01*
X328740Y251969D02*
X338822D01*
X305906Y260216D02*
X307185D01*
X338822Y251969D02*
X340846Y253994D01*
X315492Y265216D02*
X328740Y251969D01*
X307185Y260216D02*
X327658Y239744D01*
Y237008D02*
Y239744D01*
Y237008D02*
X328445Y236221D01*
X418110Y273248D02*
X419390D01*
X425145Y279004D01*
Y284404D01*
X283366Y165728D02*
X284646D01*
X283366Y260216D02*
X284646D01*
X313073Y373624D02*
X314569D01*
X305906Y367736D02*
X307185D01*
X313073Y373624D01*
X411417Y248031D02*
X476378D01*
X407480Y251969D02*
X411417Y248031D01*
X407480Y251969D02*
Y261518D01*
X476378Y248031D02*
X492126Y263779D01*
X418110Y258248D02*
X459035D01*
X486221Y285433D02*
X492126D01*
X405751Y263248D02*
X407480Y261518D01*
X492126Y263779D02*
Y275433D01*
X459035Y258248D02*
X486221Y285433D01*
X396850Y263248D02*
X405751D01*
X305906Y275217D02*
X306201Y275512D01*
X310945D01*
X314961Y279528D02*
Y287402D01*
X310945Y275512D02*
X314961Y279528D01*
X391732Y255906D02*
X393779Y257953D01*
X396555D02*
X396850Y258248D01*
X393779Y257953D02*
X396555D01*
X391732Y251969D02*
Y255906D01*
Y251969D02*
X393701Y250000D01*
X397638D01*
X407480Y240158D01*
Y228639D02*
Y240158D01*
Y228639D02*
X409210Y226909D01*
X416786D01*
X444095Y229921D02*
X446850D01*
X416786Y226909D02*
X441083D01*
X444095Y229921D01*
X307185Y180728D02*
X327658Y201201D01*
Y207874D01*
X328445Y208661D01*
X305906Y180728D02*
X307185D01*
X395669Y273543D02*
X395965Y273248D01*
X395669Y273543D02*
Y324508D01*
X395965Y273248D02*
X396850D01*
X298819Y266946D02*
X300549Y265216D01*
X298819Y266946D02*
Y272047D01*
X300549Y265216D02*
X305906D01*
X291201Y362736D02*
X293701Y360236D01*
X299213Y359466D02*
X300942Y357736D01*
X284646Y362736D02*
X291201D01*
X292913Y260236D02*
Y268487D01*
X284646Y270216D02*
X291184D01*
X292913Y268487D01*
X388327Y268248D02*
X396850D01*
X385827Y265748D02*
X388327Y268248D01*
X340846Y253994D02*
Y269528D01*
X344488Y281496D02*
X371892D01*
X340768Y277776D02*
X344488Y281496D01*
X371892D02*
X373622Y279766D01*
X299705Y142815D02*
X300787Y141732D01*
X299213Y147301D02*
Y185039D01*
Y147301D02*
X299705Y146808D01*
Y142815D02*
Y146808D01*
X268386Y275217D02*
X284646D01*
X425492Y363878D02*
X442913Y346457D01*
X395669Y363878D02*
X425492D01*
X442913Y277559D02*
Y346457D01*
X428602Y263248D02*
X442913Y277559D01*
X418110Y263248D02*
X428602D01*
X410630Y268504D02*
X417854D01*
X418110Y268248D01*
X405886Y273248D02*
X410630Y268504D01*
X396850Y273248D02*
X405886D01*
X340768Y269606D02*
X340846Y269528D01*
X340768Y269606D02*
Y277776D01*
X373622Y269685D02*
Y279766D01*
X305906Y270216D02*
X327913D01*
X328445Y269685D01*
X289075Y208661D02*
X289075Y208661D01*
Y236221D01*
X350738Y175197D02*
X360630D01*
X340846D02*
X350738D01*
Y182726D01*
X326772Y187008D02*
X346457D01*
X350738Y182726D01*
X315492Y175728D02*
X326772Y187008D01*
X305906Y175728D02*
X315492D01*
X305906Y170728D02*
X326634D01*
X322835Y141732D02*
X328445D01*
X305906Y158661D02*
X322835Y141732D01*
X305906Y158661D02*
Y165728D01*
X284646Y175728D02*
X284941Y175433D01*
X291102D01*
X293307Y173228D01*
Y159449D02*
Y173228D01*
X289764Y141732D02*
Y155905D01*
X293307Y159449D01*
X249606Y170866D02*
X249744Y170728D01*
X284646D01*
X340059Y359055D02*
Y364665D01*
Y359055D02*
X340846Y358268D01*
X334646Y370079D02*
X340059Y364665D01*
X305906Y352736D02*
X312618D01*
X327658Y337697D01*
Y331496D02*
Y337697D01*
Y331496D02*
X328445Y330709D01*
X324734Y370079D02*
X334646D01*
X317392Y362736D02*
X324734Y370079D01*
X305906Y362736D02*
X317392D01*
X327913Y357736D02*
X328445Y358268D01*
X253740Y381988D02*
X272992Y362736D01*
X284646D01*
X250295Y382776D02*
Y385433D01*
Y382776D02*
X251083Y381988D01*
X253740D01*
X285672Y381890D02*
X288287Y384505D01*
X279528Y381890D02*
X285672D01*
X288287Y392520D02*
X289075Y393307D01*
X288287Y384505D02*
Y392520D01*
X275590Y377953D02*
X279528Y381890D01*
X275590Y370079D02*
Y377953D01*
X277638Y368032D02*
X284350D01*
X275590Y370079D02*
X277638Y368032D01*
X284350D02*
X284646Y367736D01*
X249744Y357736D02*
X284646D01*
X249606Y357874D02*
X249744Y357736D01*
D32*
X276772Y329921D02*
X277559Y330709D01*
X289075D01*
X250295Y330315D02*
Y330709D01*
X249606Y355118D02*
Y357874D01*
X250295Y330709D02*
Y354429D01*
X249606Y355118D02*
X250295Y354429D01*
X267717Y292913D02*
X277953Y303150D01*
X250689Y292913D02*
X267717D01*
X277953Y303150D02*
X289075D01*
X250689Y237795D02*
Y238189D01*
X351772Y405315D02*
X360630Y396457D01*
X289075Y405315D02*
X351772D01*
X360630Y393701D02*
Y396457D01*
X362598Y253937D02*
Y269685D01*
X446850Y218898D02*
X474803D01*
X372106Y141969D02*
Y145952D01*
X372047Y146011D02*
Y150591D01*
X328445Y162378D02*
Y172539D01*
X372106Y141969D02*
X372342Y141732D01*
X363189Y159449D02*
X372047Y150591D01*
Y146011D02*
X372106Y145952D01*
X307087Y125984D02*
X364764D01*
X372342Y133563D01*
X372047Y291339D02*
X372342Y291634D01*
Y303150D01*
X374016Y336614D02*
X374311Y336910D01*
X395669D01*
X383858Y358268D02*
X389469Y363878D01*
X395669D01*
X371654Y358268D02*
X383858D01*
X137795Y357874D02*
X175591D01*
X289075Y303150D02*
Y330709D01*
X331374Y159449D02*
X363189D01*
X372342Y133563D02*
Y141732D01*
X328445Y162378D02*
X331374Y159449D01*
X289311Y204989D02*
X289370Y204929D01*
X289075Y208661D02*
X289311Y208425D01*
Y204989D02*
Y208425D01*
X289370Y200787D02*
Y204929D01*
X284646Y196063D02*
X289370Y200787D01*
X284646Y180728D02*
Y196063D01*
Y175728D02*
Y180728D01*
X360177Y314902D02*
X369783Y324508D01*
X395669D01*
X359941Y303150D02*
X360177Y303386D01*
Y314902D01*
X328445Y172539D02*
Y175197D01*
X340158Y303150D02*
X359941D01*
X328445Y269685D02*
Y271870D01*
X329134Y272559D02*
Y303150D01*
X328445Y271870D02*
X329134Y272559D01*
X371654Y175197D02*
X372047Y175591D01*
Y190945D01*
X340846Y208661D02*
X354331D01*
X372047Y190945D01*
X326634Y170728D02*
X328445Y172539D01*
X300787Y132283D02*
Y141732D01*
Y132283D02*
X307087Y125984D01*
X250295Y141732D02*
Y167421D01*
Y141339D02*
Y141732D01*
X250689Y238189D02*
Y261910D01*
X340846Y358268D02*
X360630D01*
X328445Y384819D02*
Y393701D01*
X371595Y387343D02*
Y393642D01*
X366142Y381890D02*
X371595Y387343D01*
Y393642D02*
X371654Y393701D01*
X328445Y384819D02*
X331374Y381890D01*
X366142D01*
X289075Y405315D02*
Y416929D01*
Y393701D02*
Y405315D01*
X360571Y358169D02*
X360630Y358228D01*
Y358268D01*
X289075Y393465D02*
Y393701D01*
X288839D02*
X289075Y393465D01*
X275590Y208661D02*
X289075D01*
X250295Y200394D02*
X267323D01*
X275590Y208661D01*
X137795Y171024D02*
X137874Y170945D01*
X175925D02*
X175984Y170886D01*
X137874Y170945D02*
X175925D01*
X206398Y141339D02*
Y167421D01*
X175984Y170866D02*
Y170886D01*
X187008Y170866D02*
X207087D01*
X187008Y170866D02*
X187008Y170866D01*
X207087Y168110D02*
Y170866D01*
X206398Y167421D02*
X207087Y168110D01*
X218110Y170866D02*
X238583D01*
X249606Y168110D02*
Y170866D01*
Y168110D02*
X250295Y167421D01*
X238583Y170866D02*
Y197520D01*
X237894Y198209D02*
X238583Y197520D01*
X237894Y198209D02*
Y200394D01*
X238976Y265354D02*
Y290039D01*
X238287Y290728D02*
X238976Y290039D01*
X238287Y290728D02*
Y292913D01*
X206791Y239980D02*
X207480Y240669D01*
X206791Y237795D02*
Y239980D01*
X207480Y240669D02*
Y265354D01*
X250000Y262598D02*
X250689Y261910D01*
X250000Y262598D02*
Y265354D01*
X218504D02*
X238976D01*
X187008D02*
X207480D01*
X138189D02*
X175984D01*
X289075Y393307D02*
Y393465D01*
X275590Y393701D02*
X288839D01*
X250295Y385433D02*
X267323D01*
X275590Y393701D01*
X237894Y383248D02*
X238583Y382559D01*
Y357874D02*
Y382559D01*
X237894Y383248D02*
Y385433D01*
X218110Y357874D02*
X238583D01*
X206398Y354429D02*
X207087Y355118D01*
Y357874D01*
X206398Y330315D02*
Y354429D01*
X186614Y357874D02*
X207087D01*
D33*
X482283Y442913D02*
D03*
X147638D02*
D03*
X482283Y108268D02*
D03*
X147638D02*
D03*
D34*
X137795Y171024D02*
D03*
X492126Y275433D02*
D03*
X138189Y265354D02*
D03*
X137795Y357874D02*
D03*
X492126Y216378D02*
D03*
Y226378D02*
D03*
D35*
X137795Y161024D02*
D03*
X492126Y285433D02*
D03*
X138189Y255354D02*
D03*
X137795Y347874D02*
D03*
X492126Y236378D02*
D03*
D36*
X484252Y401575D02*
D03*
X472441Y377953D02*
D03*
X484252Y354331D02*
D03*
X472441Y330709D02*
D03*
X484252Y307087D02*
D03*
X448819Y425197D02*
D03*
X460630Y401575D02*
D03*
X448819Y377953D02*
D03*
X460630Y354331D02*
D03*
X448819Y330709D02*
D03*
X460630Y307087D02*
D03*
X437008Y448819D02*
D03*
X425197Y425197D02*
D03*
X437008Y401575D02*
D03*
X425197Y377953D02*
D03*
Y330709D02*
D03*
X437008Y307087D02*
D03*
X413386Y448819D02*
D03*
X401575Y425197D02*
D03*
X413386Y401575D02*
D03*
Y354331D02*
D03*
X401575Y330709D02*
D03*
X413386Y307087D02*
D03*
X389764Y448819D02*
D03*
X377953Y425197D02*
D03*
X389764Y401575D02*
D03*
X377953Y377953D02*
D03*
X389764Y354331D02*
D03*
X377953Y330709D02*
D03*
X389764Y307087D02*
D03*
X342520Y448819D02*
D03*
X330709Y425197D02*
D03*
X318898Y448819D02*
D03*
X307087Y425197D02*
D03*
X295276Y448819D02*
D03*
X283465Y425197D02*
D03*
X271654Y448819D02*
D03*
X259842Y425197D02*
D03*
X271654Y401575D02*
D03*
X248031Y448819D02*
D03*
X236221Y425197D02*
D03*
X248031Y401575D02*
D03*
Y307087D02*
D03*
X224410Y448819D02*
D03*
X212598Y425197D02*
D03*
X224410Y401575D02*
D03*
X212598Y377953D02*
D03*
X224410Y307087D02*
D03*
X212598Y283465D02*
D03*
X224410Y212598D02*
D03*
X212598Y188976D02*
D03*
X200787Y448819D02*
D03*
X188976Y425197D02*
D03*
X200787Y401575D02*
D03*
X188976Y377953D02*
D03*
Y330709D02*
D03*
X200787Y307087D02*
D03*
X188976Y283465D02*
D03*
Y236221D02*
D03*
X200787Y212598D02*
D03*
X188976Y188976D02*
D03*
Y141732D02*
D03*
X165354Y425197D02*
D03*
X177165Y401575D02*
D03*
X165354Y377953D02*
D03*
X177165Y307087D02*
D03*
Y212598D02*
D03*
X153543Y401575D02*
D03*
X141732Y377953D02*
D03*
X448819Y283465D02*
D03*
X440945Y267717D02*
D03*
X433071Y283465D02*
D03*
Y220472D02*
D03*
X417323Y283465D02*
D03*
X401575D02*
D03*
X228199Y331939D02*
D03*
X303396Y316191D02*
D03*
X314765Y373820D02*
D03*
X311812Y393505D02*
D03*
X351378Y330709D02*
D03*
X374016Y336614D02*
D03*
X372047Y291339D02*
D03*
X362598Y253937D02*
D03*
X374016Y222441D02*
D03*
X328740Y220472D02*
D03*
X301181Y222441D02*
D03*
X438976Y198819D02*
D03*
X350394Y141732D02*
D03*
X228346D02*
D03*
X276772Y329921D02*
D03*
X263779Y255906D02*
D03*
Y314961D02*
D03*
X271654Y224410D02*
D03*
X350394Y393701D02*
D03*
X271654Y142717D02*
D03*
X425197Y209646D02*
D03*
X228150Y237697D02*
D03*
X312008Y417323D02*
D03*
X425145Y284404D02*
D03*
X395669Y391732D02*
D03*
X314961Y287402D02*
D03*
X466535Y236221D02*
D03*
M02*
