M48
;Layer_Color=9474304
;FILE_FORMAT=2:5
INCH,TZ
;TYPE=PLATED
T1F00S00C0.02799
T2F00S00C0.02800
T3F00S00C0.03543
T4F00S00C0.19685
%
T01
X228150Y237697
X228199Y331939
X311812Y393505
X312008Y417323
X350394Y393701
X395669Y391732
T02
X188976Y141732
X228346Y141732
X271654Y142717
X350394Y141732
X484252Y307087
X460630
X437008
X413386
X389764
X372047Y291339
X401575Y283465
X417323
X425145Y284404
X433071Y283465
X448819
X440945Y267717
X433071Y220472
X425197Y209646
X438976Y198819
X466535Y236221
X374016Y222441
X362598Y253937
X328740Y220472
X314961Y287402
X301181Y222441
X271654Y224410
X263779Y255906
X248031Y307087
X224410
X200787
X177165
X188976Y283465
X212598
X188976Y236221
X200787Y212598
X224410
X212598Y188976
X188976
X177165Y212598
X141732Y377953
X153543Y401575
X177165
X200787
X224410
X248031
X271654
X259842Y425197
X283465
X307087
X295276Y448819
X271654
X248031
X224410
X200787
X188976Y425197
X212598
X236221
X212598Y377953
X188976
X165354
Y425197
X188976Y330709
X276772Y329921
X263779Y314961
X303396Y316191
X351378Y330709
X377953Y330709
X374016Y336614
X401575Y330709
X425197
X448819
X460630Y354331
X448819Y377953
X425197
X437008Y401575
X460630
X448819Y425197
X425197
X401575
X377953
X389764Y448819
X413386
X437008
X413386Y401575
X389764
X377953Y377953
X389764Y354331
X413386
X314765Y373820
X330709Y425197
X342520Y448819
X318898
X484252Y401575
X472441Y377953
X484252Y354331
X472441Y330709
T03
X492126Y216378
Y226378
Y236378
Y275433
Y285433
X138189Y265354
Y255354
X137795Y171024
Y161024
Y347874
Y357874
T04
X147638Y108268
X482283
X147638Y442913
X482283
M30
