G04*
G04 #@! TF.GenerationSoftware,Altium Limited,Altium Designer,21.0.9 (235)*
G04*
G04 Layer_Physical_Order=2*
G04 Layer_Color=16711680*
%FSLAX25Y25*%
%MOIN*%
G70*
G04*
G04 #@! TF.SameCoordinates,D8BD6BA4-3444-481E-B6E4-69F3699672C9*
G04*
G04*
G04 #@! TF.FilePolarity,Positive*
G04*
G01*
G75*
%ADD30C,0.07874*%
%ADD31C,0.02953*%
%ADD32C,0.05000*%
%ADD33C,0.33465*%
%ADD34C,0.05906*%
%ADD35R,0.05906X0.05906*%
%ADD36C,0.05000*%
G36*
X338583Y462598D02*
X354331Y446850D01*
X354331Y389764D01*
X350394D01*
Y377953D01*
X338583Y389764D01*
X311024Y389764D01*
X255906Y334646D01*
Y236221D01*
X236221Y216535D01*
X234252D01*
Y137795D01*
X251969Y120079D01*
X269685D01*
X374016Y224410D01*
Y222441D01*
X385827Y210630D01*
X419291Y210630D01*
X419291Y210630D01*
X423228D01*
X427165Y206693D01*
X427165Y198819D01*
X435039Y190945D01*
X440945D01*
X470472Y220472D01*
X492126D01*
X501968Y210630D01*
X501968Y157480D01*
X433071Y88583D01*
X269685Y88583D01*
X234252D01*
X196850Y88583D01*
X138779Y146653D01*
X147638Y155512D01*
Y177165D01*
X127953Y196850D01*
X127953Y230315D01*
X147638Y250000D01*
Y269685D01*
X127953Y289370D01*
Y324803D01*
X147638Y344488D01*
Y362205D01*
X127953Y381890D01*
X127953Y393701D01*
X196850Y462598D01*
X338583Y462598D01*
D02*
G37*
G36*
X501968Y393701D02*
X501968Y312992D01*
X482283Y293307D01*
Y244094D01*
X470472Y232283D01*
X462598D01*
X462598Y293307D01*
X452756Y303150D01*
X389764D01*
X387795Y301181D01*
X379921Y293307D01*
Y269685D01*
X370079Y259842D01*
X311024D01*
X303150Y267717D01*
Y267972D01*
X301181Y269941D01*
Y295276D01*
X314961Y309055D01*
X314961Y381890D01*
X316929Y383858D01*
X336614D01*
X340551Y379921D01*
Y307730D01*
X362205Y330268D01*
X362205Y446850D01*
X377953Y462598D01*
X433071Y462598D01*
X501968Y393701D01*
D02*
G37*
G36*
X458661Y291339D02*
X458661Y212598D01*
X442913Y196850D01*
X435039D01*
X431102Y200787D01*
Y216535D01*
X391732D01*
X383858Y224409D01*
Y291339D01*
X391732Y299213D01*
X450787D01*
X458661Y291339D01*
D02*
G37*
G36*
X299213Y212598D02*
X350394Y212598D01*
X305118Y167323D01*
X299213Y161417D01*
X299213Y161417D01*
X293307Y155512D01*
Y155512D01*
X265748Y127953D01*
X255906D01*
X246063Y137795D01*
Y216535D01*
X255906Y226378D01*
X285433D01*
X299213Y212598D01*
D02*
G37*
D30*
X271654Y224410D02*
X273622Y222441D01*
X271654Y142717D02*
X273622Y144685D01*
Y222441D01*
X303396Y316191D02*
Y316683D01*
X258858Y361221D02*
X303396Y316683D01*
X257480Y361221D02*
X258858D01*
X228150Y141929D02*
Y331890D01*
X257480Y361221D01*
X291339Y393701D02*
X311616D01*
X311812Y393505D01*
X314961Y287402D02*
Y373624D01*
X311812Y393505D02*
X312008Y393701D01*
X314765Y373820D02*
X314961Y373624D01*
X351378Y330709D02*
Y392717D01*
X350394Y393701D02*
X351378Y392717D01*
X228346Y237894D02*
X228642Y238189D01*
X285433D01*
X301181Y222441D01*
X328740Y238498D02*
X333353Y243110D01*
X370079D01*
X328740Y220472D02*
Y238498D01*
X258858Y361221D02*
X291339Y393701D01*
X312008D02*
X350394D01*
X276575Y142717D02*
X366142Y232283D01*
X271654Y142717D02*
X276575D01*
X400591Y185039D02*
X425197Y209646D01*
X400591Y185039D02*
X439961D01*
X357283Y141732D02*
X400591Y185039D01*
X471299Y216378D02*
X492126D01*
X439961Y185039D02*
X471299Y216378D01*
X438976Y198819D02*
Y232283D01*
Y270573D01*
X366142Y232283D02*
X438976D01*
X374691Y247723D02*
Y284758D01*
X370079Y243110D02*
X374691Y247723D01*
X312008Y393701D02*
Y417323D01*
X350394Y141732D02*
X357283D01*
X425145Y284404D02*
X438976Y270573D01*
X350394Y198819D02*
X374016Y222441D01*
X350394Y141732D02*
Y198819D01*
X228150Y141929D02*
X228346Y141732D01*
X372047Y287402D02*
Y291339D01*
Y287402D02*
X374691Y284758D01*
X461923Y307087D02*
X466535Y302474D01*
X372047Y291339D02*
X387795Y307087D01*
X466535Y236221D02*
Y302474D01*
X387795Y307087D02*
X461923D01*
X368110Y287402D02*
X372047Y291339D01*
X374016Y336614D02*
X395669Y358268D01*
Y391732D01*
X324803Y287402D02*
X368110D01*
X314961D02*
X324803D01*
X374016Y336614D01*
D31*
X263779Y255906D02*
Y314961D01*
D32*
X276772Y294094D02*
Y329921D01*
Y294094D02*
X295276Y275591D01*
X299213Y253937D02*
X362598D01*
X295276Y257874D02*
X299213Y253937D01*
X295276Y257874D02*
Y275591D01*
D33*
X482283Y442913D02*
D03*
X147638D02*
D03*
X482283Y108268D02*
D03*
X147638D02*
D03*
D34*
X137795Y171024D02*
D03*
X492126Y275433D02*
D03*
X138189Y265354D02*
D03*
X137795Y357874D02*
D03*
X492126Y216378D02*
D03*
Y226378D02*
D03*
D35*
X137795Y161024D02*
D03*
X492126Y285433D02*
D03*
X138189Y255354D02*
D03*
X137795Y347874D02*
D03*
X492126Y236378D02*
D03*
D36*
X484252Y401575D02*
D03*
X472441Y377953D02*
D03*
X484252Y354331D02*
D03*
X472441Y330709D02*
D03*
X484252Y307087D02*
D03*
X448819Y425197D02*
D03*
X460630Y401575D02*
D03*
X448819Y377953D02*
D03*
X460630Y354331D02*
D03*
X448819Y330709D02*
D03*
X460630Y307087D02*
D03*
X437008Y448819D02*
D03*
X425197Y425197D02*
D03*
X437008Y401575D02*
D03*
X425197Y377953D02*
D03*
Y330709D02*
D03*
X437008Y307087D02*
D03*
X413386Y448819D02*
D03*
X401575Y425197D02*
D03*
X413386Y401575D02*
D03*
Y354331D02*
D03*
X401575Y330709D02*
D03*
X413386Y307087D02*
D03*
X389764Y448819D02*
D03*
X377953Y425197D02*
D03*
X389764Y401575D02*
D03*
X377953Y377953D02*
D03*
X389764Y354331D02*
D03*
X377953Y330709D02*
D03*
X389764Y307087D02*
D03*
X342520Y448819D02*
D03*
X330709Y425197D02*
D03*
X318898Y448819D02*
D03*
X307087Y425197D02*
D03*
X295276Y448819D02*
D03*
X283465Y425197D02*
D03*
X271654Y448819D02*
D03*
X259842Y425197D02*
D03*
X271654Y401575D02*
D03*
X248031Y448819D02*
D03*
X236221Y425197D02*
D03*
X248031Y401575D02*
D03*
Y307087D02*
D03*
X224410Y448819D02*
D03*
X212598Y425197D02*
D03*
X224410Y401575D02*
D03*
X212598Y377953D02*
D03*
X224410Y307087D02*
D03*
X212598Y283465D02*
D03*
X224410Y212598D02*
D03*
X212598Y188976D02*
D03*
X200787Y448819D02*
D03*
X188976Y425197D02*
D03*
X200787Y401575D02*
D03*
X188976Y377953D02*
D03*
Y330709D02*
D03*
X200787Y307087D02*
D03*
X188976Y283465D02*
D03*
Y236221D02*
D03*
X200787Y212598D02*
D03*
X188976Y188976D02*
D03*
Y141732D02*
D03*
X165354Y425197D02*
D03*
X177165Y401575D02*
D03*
X165354Y377953D02*
D03*
X177165Y307087D02*
D03*
Y212598D02*
D03*
X153543Y401575D02*
D03*
X141732Y377953D02*
D03*
X448819Y283465D02*
D03*
X440945Y267717D02*
D03*
X433071Y283465D02*
D03*
Y220472D02*
D03*
X417323Y283465D02*
D03*
X401575D02*
D03*
X228199Y331939D02*
D03*
X303396Y316191D02*
D03*
X314765Y373820D02*
D03*
X311812Y393505D02*
D03*
X351378Y330709D02*
D03*
X374016Y336614D02*
D03*
X372047Y291339D02*
D03*
X362598Y253937D02*
D03*
X374016Y222441D02*
D03*
X328740Y220472D02*
D03*
X301181Y222441D02*
D03*
X438976Y198819D02*
D03*
X350394Y141732D02*
D03*
X228346D02*
D03*
X276772Y329921D02*
D03*
X263779Y255906D02*
D03*
Y314961D02*
D03*
X271654Y224410D02*
D03*
X350394Y393701D02*
D03*
X271654Y142717D02*
D03*
X425197Y209646D02*
D03*
X228150Y237697D02*
D03*
X312008Y417323D02*
D03*
X425145Y284404D02*
D03*
X395669Y391732D02*
D03*
X314961Y287402D02*
D03*
X466535Y236221D02*
D03*
M02*
