G04*
G04 #@! TF.GenerationSoftware,Altium Limited,Altium Designer,21.0.9 (235)*
G04*
G04 Layer_Color=255*
%FSLAX25Y25*%
%MOIN*%
G70*
G04*
G04 #@! TF.SameCoordinates,D8BD6BA4-3444-481E-B6E4-69F3699672C9*
G04*
G04*
G04 #@! TF.FilePolarity,Positive*
G04*
G01*
G75*
%ADD14O,0.06102X0.02362*%
%ADD15R,0.09843X0.04528*%
%ADD16R,0.05118X0.10630*%
%ADD17R,0.04528X0.09843*%
%ADD18R,0.10630X0.05118*%
%ADD19R,0.08540X0.02292*%
G04:AMPARAMS|DCode=20|XSize=85.4mil|YSize=22.92mil|CornerRadius=11.46mil|HoleSize=0mil|Usage=FLASHONLY|Rotation=180.000|XOffset=0mil|YOffset=0mil|HoleType=Round|Shape=RoundedRectangle|*
%AMROUNDEDRECTD20*
21,1,0.08540,0.00000,0,0,180.0*
21,1,0.06248,0.02292,0,0,180.0*
1,1,0.02292,-0.03124,0.00000*
1,1,0.02292,0.03124,0.00000*
1,1,0.02292,0.03124,0.00000*
1,1,0.02292,-0.03124,0.00000*
%
%ADD20ROUNDEDRECTD20*%
%ADD33C,0.33465*%
%ADD34C,0.05906*%
%ADD35R,0.05906X0.05906*%
D14*
X284646Y275217D02*
D03*
Y270216D02*
D03*
Y265216D02*
D03*
Y260216D02*
D03*
X305906Y275217D02*
D03*
Y270216D02*
D03*
Y265216D02*
D03*
Y260216D02*
D03*
X284646Y180728D02*
D03*
Y175728D02*
D03*
Y170728D02*
D03*
Y165728D02*
D03*
X305906Y180728D02*
D03*
Y175728D02*
D03*
Y170728D02*
D03*
Y165728D02*
D03*
X418110Y258248D02*
D03*
Y263248D02*
D03*
Y268248D02*
D03*
Y273248D02*
D03*
X396850Y258248D02*
D03*
Y263248D02*
D03*
Y268248D02*
D03*
Y273248D02*
D03*
X284646Y367736D02*
D03*
Y362736D02*
D03*
Y357736D02*
D03*
Y352736D02*
D03*
X305906Y367736D02*
D03*
Y362736D02*
D03*
Y357736D02*
D03*
Y352736D02*
D03*
D15*
X395669Y376279D02*
D03*
Y363878D02*
D03*
Y336910D02*
D03*
Y324508D02*
D03*
D16*
X329134Y303150D02*
D03*
X340158D02*
D03*
X360630Y393701D02*
D03*
X371654D02*
D03*
X360630Y175197D02*
D03*
X371654D02*
D03*
X249606Y170866D02*
D03*
X238583D02*
D03*
X218110D02*
D03*
X207087D02*
D03*
X187008Y170866D02*
D03*
X175984D02*
D03*
X289764Y141732D02*
D03*
X300787D02*
D03*
X362598Y269685D02*
D03*
X373622D02*
D03*
X218504Y265354D02*
D03*
X207480D02*
D03*
X187008D02*
D03*
X175984D02*
D03*
X250000D02*
D03*
X238976D02*
D03*
X401968Y196850D02*
D03*
X412992D02*
D03*
X186614Y357874D02*
D03*
X175591D02*
D03*
X249606D02*
D03*
X238583D02*
D03*
X218110D02*
D03*
X207087D02*
D03*
X360630Y358268D02*
D03*
X371654D02*
D03*
D17*
X374311Y236221D02*
D03*
X361910D02*
D03*
X340846Y269685D02*
D03*
X328445D02*
D03*
X340846Y236221D02*
D03*
X328445D02*
D03*
X372342Y303150D02*
D03*
X359941D02*
D03*
X328445Y208661D02*
D03*
X340846D02*
D03*
X250295Y200394D02*
D03*
X237894D02*
D03*
Y141732D02*
D03*
X250295D02*
D03*
X218799D02*
D03*
X206398D02*
D03*
X328445Y175197D02*
D03*
X340846D02*
D03*
X359941Y141732D02*
D03*
X372342D02*
D03*
X340846D02*
D03*
X328445D02*
D03*
Y358268D02*
D03*
X340846D02*
D03*
X301476Y208661D02*
D03*
X289075D02*
D03*
Y236221D02*
D03*
X301476D02*
D03*
X218799Y330709D02*
D03*
X206398D02*
D03*
X237894D02*
D03*
X250295D02*
D03*
X289075D02*
D03*
X301476D02*
D03*
X340846Y393701D02*
D03*
X328445D02*
D03*
X301476Y303150D02*
D03*
X289075D02*
D03*
X340846Y330709D02*
D03*
X328445D02*
D03*
X250689Y292913D02*
D03*
X238287D02*
D03*
X219193Y238189D02*
D03*
X206791D02*
D03*
X238287D02*
D03*
X250689D02*
D03*
X289075Y417323D02*
D03*
X301476D02*
D03*
X250295Y385433D02*
D03*
X237894D02*
D03*
X301476Y393701D02*
D03*
X289075D02*
D03*
D18*
X446850Y218898D02*
D03*
Y229921D02*
D03*
D19*
X416786Y216910D02*
D03*
D20*
Y221909D02*
D03*
Y226909D02*
D03*
Y231909D02*
D03*
X398175D02*
D03*
Y226909D02*
D03*
Y221909D02*
D03*
Y216910D02*
D03*
D33*
X482283Y442913D02*
D03*
X147638D02*
D03*
X482283Y108268D02*
D03*
X147638D02*
D03*
D34*
X137795Y171024D02*
D03*
X492126Y275433D02*
D03*
X138189Y265354D02*
D03*
X137795Y357874D02*
D03*
X492126Y216378D02*
D03*
Y226378D02*
D03*
D35*
X137795Y161024D02*
D03*
X492126Y285433D02*
D03*
X138189Y255354D02*
D03*
X137795Y347874D02*
D03*
X492126Y236378D02*
D03*
M02*
