G04*
G04 #@! TF.GenerationSoftware,Altium Limited,Altium Designer,21.0.9 (235)*
G04*
G04 Layer_Color=16711935*
%FSLAX25Y25*%
%MOIN*%
G70*
G04*
G04 #@! TF.SameCoordinates,D8BD6BA4-3444-481E-B6E4-69F3699672C9*
G04*
G04*
G04 #@! TF.FilePolarity,Positive*
G04*
G01*
G75*
%ADD11C,0.00787*%
G36*
X406545Y224406D02*
X406574D01*
X406610Y224402D01*
X406650Y224399D01*
X406691Y224395D01*
X406781Y224380D01*
X406880Y224359D01*
X406974Y224329D01*
X407065Y224289D01*
X407069D01*
X407076Y224282D01*
X407087Y224275D01*
X407102Y224268D01*
X407142Y224238D01*
X407189Y224198D01*
X407244Y224147D01*
X407295Y224089D01*
X407346Y224016D01*
X407386Y223936D01*
Y223933D01*
X407389Y223925D01*
X407393Y223911D01*
X407400Y223893D01*
X407408Y223871D01*
X407415Y223842D01*
X407426Y223809D01*
X407433Y223769D01*
X407440Y223725D01*
X407451Y223678D01*
X407458Y223627D01*
X407466Y223572D01*
X407473Y223510D01*
X407477Y223445D01*
X407480Y223376D01*
Y223303D01*
Y221847D01*
X407146D01*
Y223303D01*
Y223307D01*
Y223318D01*
Y223336D01*
Y223358D01*
X407142Y223383D01*
Y223416D01*
X407138Y223485D01*
X407131Y223565D01*
X407120Y223645D01*
X407105Y223722D01*
X407098Y223754D01*
X407087Y223787D01*
X407084Y223794D01*
X407076Y223813D01*
X407058Y223838D01*
X407036Y223874D01*
X407011Y223911D01*
X406974Y223951D01*
X406931Y223991D01*
X406880Y224024D01*
X406873Y224027D01*
X406854Y224038D01*
X406821Y224049D01*
X406778Y224064D01*
X406727Y224082D01*
X406661Y224093D01*
X406592Y224104D01*
X406516Y224107D01*
X406479D01*
X406458Y224104D01*
X406425D01*
X406392Y224100D01*
X406312Y224085D01*
X406225Y224067D01*
X406141Y224038D01*
X406061Y223998D01*
X406024Y223973D01*
X405992Y223944D01*
X405988Y223940D01*
X405984Y223936D01*
X405977Y223925D01*
X405966Y223911D01*
X405955Y223889D01*
X405941Y223867D01*
X405926Y223834D01*
X405911Y223802D01*
X405897Y223762D01*
X405886Y223714D01*
X405871Y223660D01*
X405861Y223601D01*
X405850Y223536D01*
X405842Y223467D01*
X405835Y223387D01*
Y223303D01*
Y221847D01*
X405500D01*
Y223303D01*
Y223307D01*
Y223321D01*
Y223339D01*
Y223365D01*
X405504Y223398D01*
Y223434D01*
X405508Y223478D01*
X405511Y223521D01*
X405522Y223620D01*
X405537Y223722D01*
X405558Y223820D01*
X405573Y223867D01*
X405588Y223911D01*
Y223915D01*
X405591Y223922D01*
X405598Y223933D01*
X405606Y223947D01*
X405628Y223987D01*
X405660Y224038D01*
X405704Y224096D01*
X405755Y224155D01*
X405821Y224217D01*
X405901Y224271D01*
X405904D01*
X405911Y224278D01*
X405922Y224282D01*
X405941Y224293D01*
X405963Y224304D01*
X405992Y224315D01*
X406021Y224326D01*
X406057Y224340D01*
X406097Y224355D01*
X406141Y224366D01*
X406188Y224377D01*
X406243Y224388D01*
X406297Y224395D01*
X406356Y224402D01*
X406487Y224410D01*
X406519D01*
X406545Y224406D01*
D02*
G37*
G36*
X404215Y222397D02*
X404219Y222400D01*
X404237Y222415D01*
X404259Y222437D01*
X404295Y222462D01*
X404335Y222495D01*
X404386Y222531D01*
X404445Y222571D01*
X404510Y222611D01*
X404514D01*
X404517Y222615D01*
X404539Y222629D01*
X404576Y222648D01*
X404619Y222670D01*
X404670Y222695D01*
X404725Y222721D01*
X404779Y222746D01*
X404834Y222768D01*
Y222469D01*
X404830D01*
X404823Y222462D01*
X404809Y222459D01*
X404790Y222447D01*
X404769Y222437D01*
X404743Y222422D01*
X404681Y222386D01*
X404608Y222346D01*
X404536Y222295D01*
X404459Y222236D01*
X404383Y222175D01*
X404379Y222171D01*
X404375Y222167D01*
X404364Y222156D01*
X404350Y222145D01*
X404317Y222109D01*
X404274Y222065D01*
X404230Y222014D01*
X404182Y221956D01*
X404143Y221898D01*
X404106Y221836D01*
X403906D01*
Y224366D01*
X404215D01*
Y222397D01*
D02*
G37*
D11*
X392921Y213770D02*
X422040D01*
X392921D02*
Y235049D01*
X422040D01*
Y213770D02*
Y235049D01*
M02*
