G04*
G04 #@! TF.GenerationSoftware,Altium Limited,Altium Designer,21.0.9 (235)*
G04*
G04 Layer_Color=16711935*
%FSLAX25Y25*%
%MOIN*%
G70*
G04*
G04 #@! TF.SameCoordinates,D8BD6BA4-3444-481E-B6E4-69F3699672C9*
G04*
G04*
G04 #@! TF.FilePolarity,Positive*
G04*
G01*
G75*
%ADD37C,0.00394*%
D37*
X292913Y274016D02*
X292650Y275000D01*
X291929Y275721D01*
X290945Y275984D01*
X289961Y275721D01*
X289240Y275000D01*
X288976Y274016D01*
X289240Y273031D01*
X289961Y272311D01*
X290945Y272047D01*
X291929Y272311D01*
X292650Y273031D01*
X292913Y274016D01*
Y179528D02*
X292650Y180512D01*
X291929Y181232D01*
X290945Y181496D01*
X289961Y181232D01*
X289240Y180512D01*
X288976Y179528D01*
X289240Y178543D01*
X289961Y177823D01*
X290945Y177559D01*
X291929Y177823D01*
X292650Y178543D01*
X292913Y179528D01*
X413779Y259449D02*
X413516Y260433D01*
X412795Y261154D01*
X411811Y261417D01*
X410827Y261154D01*
X410106Y260433D01*
X409842Y259449D01*
X410106Y258465D01*
X410827Y257744D01*
X411811Y257480D01*
X412795Y257744D01*
X413516Y258465D01*
X413779Y259449D01*
X292913Y366535D02*
X292650Y367520D01*
X291929Y368240D01*
X290945Y368504D01*
X289961Y368240D01*
X289240Y367520D01*
X288976Y366535D01*
X289240Y365551D01*
X289961Y364831D01*
X290945Y364567D01*
X291929Y364831D01*
X292650Y365551D01*
X292913Y366535D01*
X287402Y257874D02*
Y277559D01*
X303150Y257874D02*
Y277559D01*
X287402D02*
X303150D01*
X287402Y257874D02*
X303150D01*
X400787Y363681D02*
Y376476D01*
X390551Y363681D02*
Y376476D01*
X400787D01*
X390551Y363681D02*
X400787D01*
Y324311D02*
Y337106D01*
X390551Y324311D02*
Y337106D01*
X400787D01*
X390551Y324311D02*
X400787D01*
X327953Y297835D02*
Y308465D01*
X341339Y297835D02*
Y308465D01*
X327953D02*
X341339D01*
X327953Y297835D02*
X341339D01*
X361713Y231102D02*
X374508D01*
X361713Y241339D02*
X374508D01*
Y231102D02*
Y241339D01*
X361713Y231102D02*
Y241339D01*
X328248Y264567D02*
X341043D01*
X328248Y274803D02*
X341043D01*
Y264567D02*
Y274803D01*
X328248Y264567D02*
Y274803D01*
Y231102D02*
X341043D01*
X328248Y241339D02*
X341043D01*
Y231102D02*
Y241339D01*
X328248Y231102D02*
Y241339D01*
X359744Y298031D02*
X372539D01*
X359744Y308268D02*
X372539D01*
Y298031D02*
Y308268D01*
X359744Y298031D02*
Y308268D01*
X359449Y388386D02*
Y399016D01*
X372835Y388386D02*
Y399016D01*
X359449D02*
X372835D01*
X359449Y388386D02*
X372835D01*
X359449Y169882D02*
Y180512D01*
X372835Y169882D02*
Y180512D01*
X359449D02*
X372835D01*
X359449Y169882D02*
X372835D01*
X328248Y213779D02*
X341043D01*
X328248Y203543D02*
X341043D01*
X328248D02*
Y213779D01*
X341043Y203543D02*
Y213779D01*
X237402Y165551D02*
X250787D01*
X237402Y176181D02*
X250787D01*
Y165551D02*
Y176181D01*
X237402Y165551D02*
Y176181D01*
X205906Y165551D02*
X219291D01*
X205906Y176181D02*
X219291D01*
Y165551D02*
Y176181D01*
X205906Y165551D02*
Y176181D01*
X250492Y195276D02*
Y205512D01*
X237697Y195276D02*
Y205512D01*
Y195276D02*
X250492D01*
X237697Y205512D02*
X250492D01*
X174803Y165551D02*
X188189D01*
X174803Y176181D02*
X188189D01*
Y165551D02*
Y176181D01*
X174803Y165551D02*
Y176181D01*
X237697Y136614D02*
Y146850D01*
X250492Y136614D02*
Y146850D01*
X237697D02*
X250492D01*
X237697Y136614D02*
X250492D01*
X218996D02*
Y146850D01*
X206201Y136614D02*
Y146850D01*
Y136614D02*
X218996D01*
X206201Y146850D02*
X218996D01*
X287402Y163386D02*
Y183071D01*
X303150Y163386D02*
Y183071D01*
X287402D02*
X303150D01*
X287402Y163386D02*
X303150D01*
X328248Y180315D02*
X341043D01*
X328248Y170079D02*
X341043D01*
X328248D02*
Y180315D01*
X341043Y170079D02*
Y180315D01*
X288583Y136417D02*
Y147047D01*
X301969Y136417D02*
Y147047D01*
X288583D02*
X301969D01*
X288583Y136417D02*
X301969D01*
X359744Y146850D02*
X372539D01*
X359744Y136614D02*
X372539D01*
X359744D02*
Y146850D01*
X372539Y136614D02*
Y146850D01*
X328248Y136614D02*
X341043D01*
X328248Y146850D02*
X341043D01*
Y136614D02*
Y146850D01*
X328248Y136614D02*
Y146850D01*
Y363386D02*
X341043D01*
X328248Y353150D02*
X341043D01*
X328248D02*
Y363386D01*
X341043Y353150D02*
Y363386D01*
X288878Y203543D02*
X301673D01*
X288878Y213779D02*
X301673D01*
Y203543D02*
Y213779D01*
X288878Y203543D02*
Y213779D01*
Y241339D02*
X301673D01*
X288878Y231102D02*
X301673D01*
X288878D02*
Y241339D01*
X301673Y231102D02*
Y241339D01*
X218996Y325590D02*
Y335827D01*
X206201Y325590D02*
Y335827D01*
Y325590D02*
X218996D01*
X206201Y335827D02*
X218996D01*
X237697Y325590D02*
Y335827D01*
X250492Y325590D02*
Y335827D01*
X237697D02*
X250492D01*
X237697Y325590D02*
X250492D01*
X288878Y335827D02*
X301673D01*
X288878Y325590D02*
X301673D01*
X288878D02*
Y335827D01*
X301673Y325590D02*
Y335827D01*
X328248Y388583D02*
X341043D01*
X328248Y398819D02*
X341043D01*
Y388583D02*
Y398819D01*
X328248Y388583D02*
Y398819D01*
X288878Y298031D02*
X301673D01*
X288878Y308268D02*
X301673D01*
Y298031D02*
Y308268D01*
X288878Y298031D02*
Y308268D01*
X361417Y264370D02*
Y275000D01*
X374803Y264370D02*
Y275000D01*
X361417D02*
X374803D01*
X361417Y264370D02*
X374803D01*
X328248Y325590D02*
X341043D01*
X328248Y335827D02*
X341043D01*
Y325590D02*
Y335827D01*
X328248Y325590D02*
Y335827D01*
X206299Y260039D02*
X219685D01*
X206299Y270669D02*
X219685D01*
Y260039D02*
Y270669D01*
X206299Y260039D02*
Y270669D01*
X174803Y260039D02*
X188189D01*
X174803Y270669D02*
X188189D01*
Y260039D02*
Y270669D01*
X174803Y260039D02*
Y270669D01*
X250886Y287795D02*
Y298031D01*
X238090Y287795D02*
Y298031D01*
Y287795D02*
X250886D01*
X238090Y298031D02*
X250886D01*
X237795Y260039D02*
X251181D01*
X237795Y270669D02*
X251181D01*
Y260039D02*
Y270669D01*
X237795Y260039D02*
Y270669D01*
X219390Y233071D02*
Y243307D01*
X206594Y233071D02*
Y243307D01*
Y233071D02*
X219390D01*
X206594Y243307D02*
X219390D01*
X238090Y233071D02*
Y243307D01*
X250886Y233071D02*
Y243307D01*
X238090D02*
X250886D01*
X238090Y233071D02*
X250886D01*
X400787Y202165D02*
X414173D01*
X400787Y191535D02*
X414173D01*
X400787D02*
Y202165D01*
X414173Y191535D02*
Y202165D01*
X415354Y255906D02*
Y275590D01*
X399606Y255906D02*
Y275590D01*
Y255906D02*
X415354D01*
X399606Y275590D02*
X415354D01*
X441535Y217717D02*
Y231102D01*
X452165Y217717D02*
Y231102D01*
X441535Y217717D02*
X452165D01*
X441535Y231102D02*
X452165D01*
X288878Y422441D02*
X301673D01*
X288878Y412205D02*
X301673D01*
X288878D02*
Y422441D01*
X301673Y412205D02*
Y422441D01*
X287402Y350394D02*
Y370079D01*
X303150Y350394D02*
Y370079D01*
X287402D02*
X303150D01*
X287402Y350394D02*
X303150D01*
X250492Y380315D02*
Y390551D01*
X237697Y380315D02*
Y390551D01*
Y380315D02*
X250492D01*
X237697Y390551D02*
X250492D01*
X174409Y352559D02*
X187795D01*
X174409Y363189D02*
X187795D01*
Y352559D02*
Y363189D01*
X174409Y352559D02*
Y363189D01*
X237402Y352559D02*
X250787D01*
X237402Y363189D02*
X250787D01*
Y352559D02*
Y363189D01*
X237402Y352559D02*
Y363189D01*
X205906Y352559D02*
X219291D01*
X205906Y363189D02*
X219291D01*
Y352559D02*
Y363189D01*
X205906Y352559D02*
Y363189D01*
X288878Y388583D02*
X301673D01*
X288878Y398819D02*
X301673D01*
Y388583D02*
Y398819D01*
X288878Y388583D02*
Y398819D01*
X359449Y352953D02*
Y363583D01*
X372835Y352953D02*
Y363583D01*
X359449D02*
X372835D01*
X359449Y352953D02*
X372835D01*
M02*
