G04*
G04 #@! TF.GenerationSoftware,Altium Limited,Altium Designer,21.0.9 (235)*
G04*
G04 Layer_Physical_Order=2*
G04 Layer_Color=16711680*
%FSLAX25Y25*%
%MOIN*%
G70*
G04*
G04 #@! TF.SameCoordinates,E9F36055-DDC9-4CB2-81F6-941DF85676E6*
G04*
G04*
G04 #@! TF.FilePolarity,Positive*
G04*
G01*
G75*
%ADD25R,0.31496X0.59055*%
%ADD53C,0.03937*%
%ADD58R,0.05906X0.05906*%
%ADD59C,0.05906*%
%ADD60C,0.05709*%
%ADD61C,0.03937*%
%ADD62C,0.05000*%
G36*
X290354Y388779D02*
Y352508D01*
X289946D01*
X289158Y352297D01*
X288452Y351889D01*
X287875Y351312D01*
X287467Y350605D01*
X287313Y350029D01*
X246565Y309282D01*
X209587D01*
X209070Y309580D01*
X208282Y309791D01*
X207466D01*
X206678Y309580D01*
X205972Y309172D01*
X205395Y308595D01*
X204987Y307889D01*
X204776Y307101D01*
Y306285D01*
X204987Y305497D01*
X205395Y304790D01*
X205972Y304214D01*
X206678Y303806D01*
X207466Y303594D01*
X208282D01*
X209070Y303806D01*
X209587Y304104D01*
X245049D01*
Y297638D01*
X245049Y297638D01*
X245137Y296968D01*
X245396Y296343D01*
X245807Y295807D01*
X277697Y263917D01*
X277697Y263917D01*
X278233Y263506D01*
X278857Y263247D01*
X279528Y263159D01*
X279528Y263159D01*
X280898D01*
Y262039D01*
X288000D01*
Y269142D01*
X280898D01*
Y268747D01*
X280398Y268540D01*
X250227Y298710D01*
Y305621D01*
X289892Y345286D01*
X290354Y345095D01*
Y231299D01*
X285433Y226378D01*
X201772D01*
X196850Y231299D01*
Y241142D01*
X191929Y246063D01*
X187008D01*
X182087Y250984D01*
Y255579D01*
X182587Y255665D01*
X183178Y255073D01*
X183976Y254612D01*
X184827Y254384D01*
Y257874D01*
Y261364D01*
X183976Y261136D01*
X183178Y260675D01*
X182587Y260083D01*
X182087Y260169D01*
Y310039D01*
X187008Y314961D01*
X191929D01*
X196850Y319882D01*
Y324803D01*
X191929Y329724D01*
X187008D01*
X182087Y334646D01*
Y383858D01*
X191929Y393701D01*
X195449D01*
X195611Y393504D01*
Y392626D01*
X197835D01*
X200059D01*
Y393504D01*
X200220Y393701D01*
X223008D01*
X223170Y393504D01*
Y392626D01*
X225394D01*
X227618D01*
Y393504D01*
X227779Y393701D01*
X285433D01*
X290354Y388779D01*
D02*
G37*
G36*
X168307Y393701D02*
X178150Y383858D01*
X178150Y313976D01*
X176181Y312008D01*
X127953D01*
X123031Y316929D01*
Y388779D01*
X127953Y393701D01*
X168307Y393701D01*
D02*
G37*
G36*
X178150Y308071D02*
X178150Y241142D01*
X163386Y226378D01*
X127953Y226378D01*
X123031Y231299D01*
Y305118D01*
X127953Y310039D01*
X176181D01*
X178150Y308071D01*
D02*
G37*
%LPC*%
G36*
X224894Y391626D02*
X223170D01*
Y390748D01*
X223339Y389897D01*
X223821Y389176D01*
X224543Y388693D01*
X224894Y388624D01*
Y391626D01*
D02*
G37*
G36*
X197335Y391626D02*
X195611D01*
Y390748D01*
X195780Y389897D01*
X196262Y389176D01*
X196984Y388693D01*
X197335Y388624D01*
Y391626D01*
D02*
G37*
G36*
X200059D02*
X198335D01*
Y388624D01*
X198686Y388693D01*
X199407Y389176D01*
X199889Y389897D01*
X200059Y390748D01*
Y391626D01*
D02*
G37*
G36*
X227618Y391626D02*
X225894D01*
Y388624D01*
X226245Y388693D01*
X226966Y389176D01*
X227448Y389897D01*
X227618Y390748D01*
Y391626D01*
D02*
G37*
G36*
X221964Y385350D02*
X221957D01*
Y381996D01*
X225311D01*
Y382003D01*
X225048Y382984D01*
X224541Y383863D01*
X223823Y384580D01*
X222944Y385088D01*
X221964Y385350D01*
D02*
G37*
G36*
X220957D02*
X220949D01*
X219969Y385088D01*
X219090Y384580D01*
X218372Y383863D01*
X217865Y382984D01*
X217602Y382003D01*
Y381996D01*
X220957D01*
Y385350D01*
D02*
G37*
G36*
X202279D02*
X202272D01*
Y381996D01*
X205626D01*
Y382003D01*
X205363Y382984D01*
X204856Y383863D01*
X204138Y384580D01*
X203259Y385088D01*
X202279Y385350D01*
D02*
G37*
G36*
X201272D02*
X201264D01*
X200284Y385088D01*
X199405Y384580D01*
X198687Y383863D01*
X198180Y382984D01*
X197917Y382003D01*
Y381996D01*
X201272D01*
Y385350D01*
D02*
G37*
G36*
X269398Y383804D02*
Y380815D01*
X272387D01*
X272159Y381666D01*
X271698Y382464D01*
X271047Y383116D01*
X270249Y383576D01*
X269398Y383804D01*
D02*
G37*
G36*
X268398D02*
X267547Y383576D01*
X266749Y383116D01*
X266097Y382464D01*
X265636Y381666D01*
X265408Y380815D01*
X268398D01*
Y383804D01*
D02*
G37*
G36*
X225311Y380996D02*
X221957D01*
Y377642D01*
X221964D01*
X222944Y377904D01*
X223823Y378412D01*
X224541Y379129D01*
X225048Y380008D01*
X225311Y380989D01*
Y380996D01*
D02*
G37*
G36*
X220957D02*
X217602D01*
Y380989D01*
X217865Y380008D01*
X218372Y379129D01*
X219090Y378412D01*
X219969Y377904D01*
X220949Y377642D01*
X220957D01*
Y380996D01*
D02*
G37*
G36*
X205626D02*
X202272D01*
Y377642D01*
X202279D01*
X203259Y377904D01*
X204138Y378412D01*
X204856Y379129D01*
X205363Y380008D01*
X205626Y380989D01*
Y380996D01*
D02*
G37*
G36*
X201272D02*
X197917D01*
Y380989D01*
X198180Y380008D01*
X198687Y379129D01*
X199405Y378412D01*
X200284Y377904D01*
X201264Y377642D01*
X201272D01*
Y380996D01*
D02*
G37*
G36*
X272387Y379815D02*
X269398D01*
Y376825D01*
X270249Y377053D01*
X271047Y377514D01*
X271698Y378166D01*
X272159Y378964D01*
X272387Y379815D01*
D02*
G37*
G36*
X268398D02*
X265408D01*
X265636Y378964D01*
X266097Y378166D01*
X266749Y377514D01*
X267547Y377053D01*
X268398Y376825D01*
Y379815D01*
D02*
G37*
G36*
X235933Y349552D02*
Y346563D01*
X238923D01*
X238695Y347414D01*
X238234Y348212D01*
X237582Y348864D01*
X236784Y349324D01*
X235933Y349552D01*
D02*
G37*
G36*
X234933D02*
X234082Y349324D01*
X233284Y348864D01*
X232632Y348212D01*
X232172Y347414D01*
X231944Y346563D01*
X234933D01*
Y349552D01*
D02*
G37*
G36*
X224817Y345618D02*
X224002D01*
X223214Y345407D01*
X222507Y344999D01*
X221930Y344422D01*
X221522Y343716D01*
X221473Y343532D01*
X221081Y343140D01*
X196594D01*
X196078Y343439D01*
X195290Y343650D01*
X194474D01*
X193686Y343439D01*
X192979Y343031D01*
X192403Y342454D01*
X191995Y341747D01*
X191783Y340959D01*
Y340143D01*
X191995Y339355D01*
X192403Y338649D01*
X192979Y338072D01*
X193686Y337664D01*
X194474Y337453D01*
X195290D01*
X196078Y337664D01*
X196594Y337962D01*
X222153D01*
X222153Y337962D01*
X222823Y338050D01*
X223448Y338309D01*
X223984Y338720D01*
X224685Y339421D01*
X224817D01*
X225605Y339632D01*
X226312Y340040D01*
X226889Y340617D01*
X227297Y341324D01*
X227508Y342112D01*
Y342928D01*
X227297Y343716D01*
X226889Y344422D01*
X226312Y344999D01*
X225605Y345407D01*
X224817Y345618D01*
D02*
G37*
G36*
X238923Y345563D02*
X235933D01*
Y342573D01*
X236784Y342801D01*
X237582Y343262D01*
X238234Y343914D01*
X238695Y344712D01*
X238923Y345563D01*
D02*
G37*
G36*
X234933D02*
X231944D01*
X232172Y344712D01*
X232632Y343914D01*
X233284Y343262D01*
X234082Y342801D01*
X234933Y342573D01*
Y345563D01*
D02*
G37*
G36*
X211130Y318450D02*
Y315461D01*
X214119D01*
X213891Y316312D01*
X213431Y317110D01*
X212779Y317761D01*
X211981Y318222D01*
X211130Y318450D01*
D02*
G37*
G36*
X210130D02*
X209279Y318222D01*
X208481Y317761D01*
X207829Y317110D01*
X207368Y316312D01*
X207140Y315461D01*
X210130D01*
Y318450D01*
D02*
G37*
G36*
X214119Y314461D02*
X211130D01*
Y311471D01*
X211981Y311699D01*
X212779Y312160D01*
X213431Y312812D01*
X213891Y313610D01*
X214119Y314461D01*
D02*
G37*
G36*
X210130D02*
X207140D01*
X207368Y313610D01*
X207829Y312812D01*
X208481Y312160D01*
X209279Y311699D01*
X210130Y311471D01*
Y314461D01*
D02*
G37*
G36*
X284916Y299142D02*
X283981D01*
X283078Y298900D01*
X282268Y298432D01*
X281607Y297771D01*
X281140Y296961D01*
X280898Y296058D01*
Y295123D01*
X281140Y294220D01*
X281607Y293410D01*
X282268Y292749D01*
X283078Y292281D01*
X283981Y292039D01*
X284916D01*
X285820Y292281D01*
X286629Y292749D01*
X287291Y293410D01*
X287758Y294220D01*
X288000Y295123D01*
Y296058D01*
X287758Y296961D01*
X287291Y297771D01*
X286629Y298432D01*
X285820Y298900D01*
X284916Y299142D01*
D02*
G37*
G36*
Y289142D02*
X283981D01*
X283078Y288900D01*
X282268Y288432D01*
X281607Y287771D01*
X281140Y286961D01*
X280898Y286058D01*
Y285123D01*
X281140Y284220D01*
X281607Y283410D01*
X282268Y282749D01*
X283078Y282281D01*
X283981Y282039D01*
X284916D01*
X285820Y282281D01*
X286629Y282749D01*
X287291Y283410D01*
X287758Y284220D01*
X288000Y285123D01*
Y286058D01*
X287758Y286961D01*
X287291Y287771D01*
X286629Y288432D01*
X285820Y288900D01*
X284916Y289142D01*
D02*
G37*
G36*
X284969Y279543D02*
X284949D01*
Y276091D01*
X288402D01*
Y276111D01*
X288132Y277116D01*
X287612Y278018D01*
X286876Y278753D01*
X285975Y279274D01*
X284969Y279543D01*
D02*
G37*
G36*
X283949D02*
X283928D01*
X282923Y279274D01*
X282022Y278753D01*
X281286Y278018D01*
X280765Y277116D01*
X280496Y276111D01*
Y276091D01*
X283949D01*
Y279543D01*
D02*
G37*
G36*
X288402Y275091D02*
X284949D01*
Y271638D01*
X284969D01*
X285975Y271907D01*
X286876Y272428D01*
X287612Y273164D01*
X288132Y274065D01*
X288402Y275070D01*
Y275091D01*
D02*
G37*
G36*
X283949D02*
X280496D01*
Y275070D01*
X280765Y274065D01*
X281286Y273164D01*
X282022Y272428D01*
X282923Y271907D01*
X283928Y271638D01*
X283949D01*
Y275091D01*
D02*
G37*
G36*
X185827Y261364D02*
Y258374D01*
X188816D01*
X188589Y259225D01*
X188128Y260023D01*
X187476Y260675D01*
X186678Y261136D01*
X185827Y261364D01*
D02*
G37*
G36*
X188816Y257374D02*
X185827D01*
Y254384D01*
X186678Y254612D01*
X187476Y255073D01*
X188128Y255725D01*
X188589Y256523D01*
X188816Y257374D01*
D02*
G37*
G36*
X168807Y363726D02*
Y360736D01*
X171797D01*
X171569Y361587D01*
X171108Y362385D01*
X170456Y363037D01*
X169658Y363498D01*
X168807Y363726D01*
D02*
G37*
G36*
X167807D02*
X166956Y363498D01*
X166158Y363037D01*
X165506Y362385D01*
X165046Y361587D01*
X164818Y360736D01*
X167807D01*
Y363726D01*
D02*
G37*
G36*
X160449Y390764D02*
X144201D01*
Y360736D01*
X160449D01*
Y390764D01*
D02*
G37*
G36*
X143201D02*
X126953D01*
Y360736D01*
X143201D01*
Y390764D01*
D02*
G37*
G36*
X171797Y359736D02*
X168807D01*
Y356747D01*
X169658Y356975D01*
X170456Y357435D01*
X171108Y358087D01*
X171569Y358885D01*
X171797Y359736D01*
D02*
G37*
G36*
X167807D02*
X164818D01*
X165046Y358885D01*
X165506Y358087D01*
X166158Y357435D01*
X166956Y356975D01*
X167807Y356747D01*
Y359736D01*
D02*
G37*
G36*
X160449D02*
X144201D01*
Y329709D01*
X160449D01*
Y359736D01*
D02*
G37*
G36*
X143201D02*
X126953D01*
Y329709D01*
X143201D01*
Y359736D01*
D02*
G37*
G36*
X171760Y263332D02*
Y260343D01*
X174749D01*
X174521Y261193D01*
X174060Y261992D01*
X173409Y262643D01*
X172611Y263104D01*
X171760Y263332D01*
D02*
G37*
G36*
X170760D02*
X169909Y263104D01*
X169111Y262643D01*
X168459Y261992D01*
X167998Y261193D01*
X167770Y260343D01*
X170760D01*
Y263332D01*
D02*
G37*
G36*
X160449Y290370D02*
X144201D01*
Y260343D01*
X160449D01*
Y290370D01*
D02*
G37*
G36*
X143201D02*
X126953D01*
Y260343D01*
X143201D01*
Y290370D01*
D02*
G37*
G36*
X174749Y259343D02*
X171760D01*
Y256353D01*
X172611Y256581D01*
X173409Y257042D01*
X174060Y257694D01*
X174521Y258492D01*
X174749Y259343D01*
D02*
G37*
G36*
X170760D02*
X167770D01*
X167998Y258492D01*
X168459Y257694D01*
X169111Y257042D01*
X169909Y256581D01*
X170760Y256353D01*
Y259343D01*
D02*
G37*
G36*
X160449D02*
X144201D01*
Y229315D01*
X160449D01*
Y259343D01*
D02*
G37*
G36*
X143201D02*
X126953D01*
Y229315D01*
X143201D01*
Y259343D01*
D02*
G37*
%LPD*%
D25*
X143701Y360236D02*
D03*
Y259842D02*
D03*
D53*
X284291Y265748D02*
X284449Y265591D01*
X279528Y265748D02*
X284291D01*
X247638Y297638D02*
Y306693D01*
Y297638D02*
X279528Y265748D01*
X207874Y306693D02*
X247638D01*
X290354Y349410D01*
X222153Y340551D02*
X224122Y342520D01*
X224410D01*
X194882Y340551D02*
X222153D01*
D58*
X284449Y265591D02*
D03*
D59*
Y275590D02*
D03*
Y285591D02*
D03*
Y295590D02*
D03*
D60*
X201772Y381496D02*
D03*
X221457D02*
D03*
D61*
X188976Y238189D02*
D03*
Y321850D02*
D03*
D62*
X185327Y257874D02*
D03*
X290354Y349410D02*
D03*
X171260Y259842D02*
D03*
X168307Y360236D02*
D03*
X235433Y346063D02*
D03*
X268898Y380315D02*
D03*
X210630Y314961D02*
D03*
X207874Y306693D02*
D03*
X224410Y342520D02*
D03*
X194882Y340551D02*
D03*
M02*
