G04*
G04 #@! TF.GenerationSoftware,Altium Limited,Altium Designer,21.0.9 (235)*
G04*
G04 Layer_Physical_Order=2*
G04 Layer_Color=16711680*
%FSLAX25Y25*%
%MOIN*%
G70*
G04*
G04 #@! TF.SameCoordinates,00BE4CDB-2B82-4C1F-9587-948FEC39E08D*
G04*
G04*
G04 #@! TF.FilePolarity,Positive*
G04*
G01*
G75*
%ADD25R,0.31496X0.59055*%
%ADD53C,0.03937*%
%ADD59C,0.03937*%
%ADD60R,0.05906X0.05906*%
%ADD61C,0.05906*%
%ADD62C,0.05709*%
%ADD63C,0.05000*%
G36*
X290354Y388779D02*
Y352410D01*
X289959D01*
X289196Y352205D01*
X288512Y351810D01*
X287954Y351252D01*
X287559Y350567D01*
X287415Y350029D01*
X246595Y309210D01*
X209515D01*
X209032Y309489D01*
X208269Y309693D01*
X207479D01*
X206716Y309489D01*
X206032Y309093D01*
X205473Y308535D01*
X205079Y307851D01*
X204874Y307088D01*
Y306298D01*
X205079Y305535D01*
X205473Y304851D01*
X206032Y304292D01*
X206716Y303897D01*
X207479Y303693D01*
X208269D01*
X209032Y303897D01*
X209515Y304176D01*
X245121D01*
Y297638D01*
X245312Y296675D01*
X245858Y295858D01*
X277748Y263968D01*
X278564Y263423D01*
X279528Y263231D01*
X279528Y263231D01*
X280996D01*
Y262138D01*
X287902D01*
Y269043D01*
X280996D01*
Y268444D01*
X280496Y268339D01*
X250155Y298680D01*
Y305650D01*
X289892Y345388D01*
X290354Y345197D01*
Y231299D01*
X285433Y226378D01*
X201772D01*
X198819Y229331D01*
Y242126D01*
X194882Y246063D01*
X187008D01*
X182087Y250984D01*
Y310039D01*
X187008Y314961D01*
X194882D01*
X198819Y318898D01*
Y326772D01*
X195866Y329724D01*
X187008D01*
X182087Y334646D01*
Y383858D01*
X191929Y393701D01*
X195959D01*
X196121Y393504D01*
Y392376D01*
X197835D01*
X199549D01*
Y393504D01*
X199710Y393701D01*
X223518D01*
X223680Y393504D01*
Y392376D01*
X225394D01*
X227108D01*
Y393504D01*
X227269Y393701D01*
X285433D01*
X290354Y388779D01*
D02*
G37*
G36*
X168307Y393701D02*
X178150Y383858D01*
X178150Y313976D01*
X176181Y312008D01*
X127953D01*
X123031Y316929D01*
Y388779D01*
X127953Y393701D01*
X168307Y393701D01*
D02*
G37*
G36*
X178150Y308071D02*
X178150Y241142D01*
X163386Y226378D01*
X127953Y226378D01*
X123031Y231299D01*
Y305118D01*
X127953Y310039D01*
X176181D01*
X178150Y308071D01*
D02*
G37*
%LPC*%
G36*
X225144Y391876D02*
X223680D01*
Y390748D01*
X223810Y390092D01*
X224182Y389536D01*
X224738Y389164D01*
X225144Y389084D01*
Y391876D01*
D02*
G37*
G36*
X197585Y391876D02*
X196121D01*
Y390748D01*
X196251Y390092D01*
X196623Y389536D01*
X197179Y389164D01*
X197585Y389084D01*
Y391876D01*
D02*
G37*
G36*
X199549D02*
X198085D01*
Y389084D01*
X198491Y389164D01*
X199047Y389536D01*
X199418Y390092D01*
X199549Y390748D01*
Y391876D01*
D02*
G37*
G36*
X227108Y391876D02*
X225644D01*
Y389084D01*
X226050Y389164D01*
X226606Y389536D01*
X226977Y390092D01*
X227108Y390748D01*
Y391876D01*
D02*
G37*
G36*
X221898Y384850D02*
X221707D01*
Y381746D01*
X224811D01*
Y381938D01*
X224582Y382791D01*
X224141Y383556D01*
X223516Y384180D01*
X222751Y384622D01*
X221898Y384850D01*
D02*
G37*
G36*
X221207D02*
X221015D01*
X220162Y384622D01*
X219397Y384180D01*
X218773Y383556D01*
X218331Y382791D01*
X218102Y381938D01*
Y381746D01*
X221207D01*
Y384850D01*
D02*
G37*
G36*
X202213D02*
X202022D01*
Y381746D01*
X205126D01*
Y381938D01*
X204897Y382791D01*
X204456Y383556D01*
X203831Y384180D01*
X203066Y384622D01*
X202213Y384850D01*
D02*
G37*
G36*
X201522D02*
X201330D01*
X200477Y384622D01*
X199712Y384180D01*
X199088Y383556D01*
X198646Y382791D01*
X198417Y381938D01*
Y381746D01*
X201522D01*
Y384850D01*
D02*
G37*
G36*
X224811Y381246D02*
X221707D01*
Y378142D01*
X221898D01*
X222751Y378370D01*
X223516Y378812D01*
X224141Y379436D01*
X224582Y380201D01*
X224811Y381054D01*
Y381246D01*
D02*
G37*
G36*
X221207D02*
X218102D01*
Y381054D01*
X218331Y380201D01*
X218773Y379436D01*
X219397Y378812D01*
X220162Y378370D01*
X221015Y378142D01*
X221207D01*
Y381246D01*
D02*
G37*
G36*
X205126D02*
X202022D01*
Y378142D01*
X202213D01*
X203066Y378370D01*
X203831Y378812D01*
X204456Y379436D01*
X204897Y380201D01*
X205126Y381054D01*
Y381246D01*
D02*
G37*
G36*
X201522D02*
X198417D01*
Y381054D01*
X198646Y380201D01*
X199088Y379436D01*
X199712Y378812D01*
X200477Y378370D01*
X201330Y378142D01*
X201522D01*
Y381246D01*
D02*
G37*
G36*
X224804Y345520D02*
X224014D01*
X223252Y345315D01*
X222567Y344920D01*
X222009Y344362D01*
X221614Y343678D01*
X221575Y343532D01*
X221111Y343068D01*
X196523D01*
X196040Y343347D01*
X195277Y343551D01*
X194487D01*
X193724Y343347D01*
X193040Y342952D01*
X192481Y342393D01*
X192086Y341709D01*
X191882Y340946D01*
Y340156D01*
X192086Y339393D01*
X192481Y338709D01*
X193040Y338151D01*
X193724Y337756D01*
X194487Y337551D01*
X195277D01*
X196040Y337756D01*
X196523Y338034D01*
X222153D01*
X223116Y338226D01*
X223933Y338772D01*
X224681Y339520D01*
X224804D01*
X225567Y339724D01*
X226252Y340119D01*
X226810Y340678D01*
X227205Y341362D01*
X227410Y342125D01*
Y342915D01*
X227205Y343678D01*
X226810Y344362D01*
X226252Y344920D01*
X225567Y345315D01*
X224804Y345520D01*
D02*
G37*
G36*
X284903Y299043D02*
X283994D01*
X283116Y298808D01*
X282329Y298353D01*
X281686Y297711D01*
X281231Y296923D01*
X280996Y296045D01*
Y295136D01*
X281231Y294258D01*
X281686Y293471D01*
X282329Y292828D01*
X283116Y292373D01*
X283994Y292138D01*
X284903D01*
X285782Y292373D01*
X286569Y292828D01*
X287212Y293471D01*
X287666Y294258D01*
X287902Y295136D01*
Y296045D01*
X287666Y296923D01*
X287212Y297711D01*
X286569Y298353D01*
X285782Y298808D01*
X284903Y299043D01*
D02*
G37*
G36*
Y289043D02*
X283994D01*
X283116Y288808D01*
X282329Y288353D01*
X281686Y287711D01*
X281231Y286923D01*
X280996Y286045D01*
Y285136D01*
X281231Y284258D01*
X281686Y283471D01*
X282329Y282828D01*
X283116Y282373D01*
X283994Y282138D01*
X284903D01*
X285782Y282373D01*
X286569Y282828D01*
X287212Y283471D01*
X287666Y284258D01*
X287902Y285136D01*
Y286045D01*
X287666Y286923D01*
X287212Y287711D01*
X286569Y288353D01*
X285782Y288808D01*
X284903Y289043D01*
D02*
G37*
G36*
Y279043D02*
X284699D01*
Y275841D01*
X287902D01*
Y276045D01*
X287666Y276923D01*
X287212Y277711D01*
X286569Y278353D01*
X285782Y278808D01*
X284903Y279043D01*
D02*
G37*
G36*
X284199D02*
X283994D01*
X283116Y278808D01*
X282329Y278353D01*
X281686Y277711D01*
X281231Y276923D01*
X280996Y276045D01*
Y275841D01*
X284199D01*
Y279043D01*
D02*
G37*
G36*
X287902Y275341D02*
X284699D01*
Y272138D01*
X284903D01*
X285782Y272373D01*
X286569Y272828D01*
X287212Y273470D01*
X287666Y274258D01*
X287902Y275136D01*
Y275341D01*
D02*
G37*
G36*
X284199D02*
X280996D01*
Y275136D01*
X281231Y274258D01*
X281686Y273470D01*
X282329Y272828D01*
X283116Y272373D01*
X283994Y272138D01*
X284199D01*
Y275341D01*
D02*
G37*
G36*
X168807Y363726D02*
Y360736D01*
X171797D01*
X171569Y361587D01*
X171108Y362385D01*
X170456Y363037D01*
X169658Y363498D01*
X168807Y363726D01*
D02*
G37*
G36*
X167807D02*
X166956Y363498D01*
X166158Y363037D01*
X165506Y362385D01*
X165046Y361587D01*
X164818Y360736D01*
X167807D01*
Y363726D01*
D02*
G37*
G36*
X160449Y390764D02*
X144201D01*
Y360736D01*
X160449D01*
Y390764D01*
D02*
G37*
G36*
X143201D02*
X126953D01*
Y360736D01*
X143201D01*
Y390764D01*
D02*
G37*
G36*
X171797Y359736D02*
X168807D01*
Y356747D01*
X169658Y356975D01*
X170456Y357435D01*
X171108Y358087D01*
X171569Y358885D01*
X171797Y359736D01*
D02*
G37*
G36*
X167807D02*
X164818D01*
X165046Y358885D01*
X165506Y358087D01*
X166158Y357435D01*
X166956Y356975D01*
X167807Y356747D01*
Y359736D01*
D02*
G37*
G36*
X160449D02*
X144201D01*
Y329709D01*
X160449D01*
Y359736D01*
D02*
G37*
G36*
X143201D02*
X126953D01*
Y329709D01*
X143201D01*
Y359736D01*
D02*
G37*
G36*
X171760Y263332D02*
Y260343D01*
X174749D01*
X174521Y261193D01*
X174060Y261992D01*
X173409Y262643D01*
X172611Y263104D01*
X171760Y263332D01*
D02*
G37*
G36*
X170760D02*
X169909Y263104D01*
X169111Y262643D01*
X168459Y261992D01*
X167998Y261193D01*
X167770Y260343D01*
X170760D01*
Y263332D01*
D02*
G37*
G36*
X160449Y290370D02*
X144201D01*
Y260343D01*
X160449D01*
Y290370D01*
D02*
G37*
G36*
X143201D02*
X126953D01*
Y260343D01*
X143201D01*
Y290370D01*
D02*
G37*
G36*
X174749Y259343D02*
X171760D01*
Y256353D01*
X172611Y256581D01*
X173409Y257042D01*
X174060Y257694D01*
X174521Y258492D01*
X174749Y259343D01*
D02*
G37*
G36*
X170760D02*
X167770D01*
X167998Y258492D01*
X168459Y257694D01*
X169111Y257042D01*
X169909Y256581D01*
X170760Y256353D01*
Y259343D01*
D02*
G37*
G36*
X160449D02*
X144201D01*
Y229315D01*
X160449D01*
Y259343D01*
D02*
G37*
G36*
X143201D02*
X126953D01*
Y229315D01*
X143201D01*
Y259343D01*
D02*
G37*
%LPD*%
D25*
X143701Y360236D02*
D03*
Y259842D02*
D03*
D53*
X284291Y265748D02*
X284449Y265591D01*
X279528Y265748D02*
X284291D01*
X247638Y297638D02*
Y306693D01*
Y297638D02*
X279528Y265748D01*
X207874Y306693D02*
X247638D01*
X290354Y349410D01*
X222153Y340551D02*
X224122Y342520D01*
X224410D01*
X194882Y340551D02*
X222153D01*
D59*
X190945Y322047D02*
D03*
Y238189D02*
D03*
D60*
X284449Y265591D02*
D03*
D61*
Y275590D02*
D03*
Y285591D02*
D03*
Y295590D02*
D03*
D62*
X201772Y381496D02*
D03*
X221457D02*
D03*
D63*
X185327Y257874D02*
D03*
X290354Y349410D02*
D03*
X171260Y259842D02*
D03*
X168307Y360236D02*
D03*
X235433Y346063D02*
D03*
X268898Y380315D02*
D03*
X210630Y314961D02*
D03*
X207874Y306693D02*
D03*
X224410Y342520D02*
D03*
X194882Y340551D02*
D03*
M02*
