G04*
G04 #@! TF.GenerationSoftware,Altium Limited,Altium Designer,21.0.9 (235)*
G04*
G04 Layer_Color=8388736*
%FSLAX25Y25*%
%MOIN*%
G70*
G04*
G04 #@! TF.SameCoordinates,00BE4CDB-2B82-4C1F-9587-948FEC39E08D*
G04*
G04*
G04 #@! TF.FilePolarity,Negative*
G04*
G01*
G75*
%ADD15C,0.01968*%
%ADD32R,0.02165X0.05906*%
%ADD33R,0.06496X0.08071*%
%ADD34R,0.05315X0.07087*%
G04:AMPARAMS|DCode=35|XSize=73.23mil|YSize=28.74mil|CornerRadius=5.81mil|HoleSize=0mil|Usage=FLASHONLY|Rotation=270.000|XOffset=0mil|YOffset=0mil|HoleType=Round|Shape=RoundedRectangle|*
%AMROUNDEDRECTD35*
21,1,0.07323,0.01713,0,0,270.0*
21,1,0.06161,0.02874,0,0,270.0*
1,1,0.01161,-0.00856,-0.03081*
1,1,0.01161,-0.00856,0.03081*
1,1,0.01161,0.00856,0.03081*
1,1,0.01161,0.00856,-0.03081*
%
%ADD35ROUNDEDRECTD35*%
%ADD36R,0.09055X0.04331*%
%ADD37R,0.09055X0.13386*%
G04:AMPARAMS|DCode=38|XSize=83.46mil|YSize=29.53mil|CornerRadius=5.91mil|HoleSize=0mil|Usage=FLASHONLY|Rotation=180.000|XOffset=0mil|YOffset=0mil|HoleType=Round|Shape=RoundedRectangle|*
%AMROUNDEDRECTD38*
21,1,0.08346,0.01772,0,0,180.0*
21,1,0.07165,0.02953,0,0,180.0*
1,1,0.01181,-0.03583,0.00886*
1,1,0.01181,0.03583,0.00886*
1,1,0.01181,0.03583,-0.00886*
1,1,0.01181,-0.03583,-0.00886*
%
%ADD38ROUNDEDRECTD38*%
%ADD39R,0.05709X0.05118*%
%ADD40R,0.13386X0.07087*%
%ADD41R,0.32087X0.59646*%
%ADD42R,0.07087X0.05315*%
%ADD43R,0.07677X0.05709*%
%ADD44R,0.04921X0.06890*%
%ADD45R,0.06890X0.06890*%
%ADD46R,0.09055X0.10236*%
%ADD47R,0.04331X0.04134*%
%ADD48C,0.04528*%
%ADD49R,0.06496X0.06496*%
%ADD50C,0.06496*%
%ADD51C,0.06299*%
%ADD52C,0.05591*%
G36*
X202605Y396159D02*
X202651Y396148D01*
X202694Y396130D01*
X202733Y396106D01*
X202768Y396076D01*
X202799Y396040D01*
X202823Y396001D01*
X202841Y395958D01*
X202852Y395913D01*
X202855Y395866D01*
Y388386D01*
X202852Y388339D01*
X202841Y388294D01*
X202823Y388251D01*
X202799Y388212D01*
X202768Y388176D01*
X202733Y388146D01*
X202694Y388122D01*
X202651Y388104D01*
X202605Y388093D01*
X202559Y388090D01*
X197441D01*
X197395Y388093D01*
X197349Y388104D01*
X197307Y388122D01*
X197267Y388146D01*
X197231Y388176D01*
X197201Y388212D01*
X197177Y388251D01*
X197159Y388294D01*
X197148Y388339D01*
X197145Y388386D01*
Y390058D01*
X195473D01*
X195426Y390062D01*
X195381Y390072D01*
X195338Y390090D01*
X195298Y390115D01*
X195268Y390140D01*
X195263Y390145D01*
Y390145D01*
X195263D01*
X195259Y390150D01*
X195233Y390180D01*
X195209Y390220D01*
X195191Y390263D01*
X195180Y390308D01*
X195176Y390354D01*
X195176Y393898D01*
D01*
Y393898D01*
X195180Y393944D01*
X195191Y393989D01*
X195209Y394032D01*
X195233Y394072D01*
X195259Y394102D01*
X195263Y394107D01*
X195263D01*
Y394107D01*
X195268Y394111D01*
X195298Y394137D01*
X195338Y394162D01*
X195381Y394179D01*
X195426Y394190D01*
X195472Y394194D01*
X195472D01*
D01*
X197145D01*
Y395866D01*
X197148Y395913D01*
X197159Y395958D01*
X197177Y396001D01*
X197201Y396040D01*
X197231Y396076D01*
X197267Y396106D01*
X197307Y396130D01*
X197349Y396148D01*
X197395Y396159D01*
X197441Y396162D01*
X202559D01*
X202605Y396159D01*
D02*
G37*
G36*
X225834D02*
X225879Y396148D01*
X225922Y396130D01*
X225961Y396106D01*
X225997Y396076D01*
X226027Y396040D01*
X226051Y396001D01*
X226069Y395958D01*
X226080Y395913D01*
X226084Y395866D01*
Y394194D01*
X227756D01*
X227802Y394190D01*
X227847Y394179D01*
X227890Y394162D01*
X227930Y394137D01*
X227960Y394112D01*
X227965Y394107D01*
Y394107D01*
X227965D01*
X227970Y394102D01*
X227995Y394072D01*
X228020Y394032D01*
X228038Y393989D01*
X228048Y393944D01*
X228052Y393898D01*
X228052Y390354D01*
D01*
Y390354D01*
X228048Y390308D01*
X228038Y390263D01*
X228020Y390220D01*
X227995Y390180D01*
X227970Y390150D01*
X227965Y390145D01*
X227965D01*
Y390145D01*
X227960Y390141D01*
X227930Y390115D01*
X227890Y390090D01*
X227847Y390073D01*
X227802Y390062D01*
X227756Y390058D01*
X227756D01*
D01*
X226084D01*
Y388386D01*
X226080Y388339D01*
X226069Y388294D01*
X226051Y388251D01*
X226027Y388212D01*
X225997Y388176D01*
X225961Y388146D01*
X225922Y388122D01*
X225879Y388104D01*
X225834Y388093D01*
X225787Y388090D01*
X220669D01*
X220623Y388093D01*
X220578Y388104D01*
X220535Y388122D01*
X220495Y388146D01*
X220460Y388176D01*
X220430Y388212D01*
X220405Y388251D01*
X220388Y388294D01*
X220377Y388339D01*
X220373Y388386D01*
Y395866D01*
X220377Y395913D01*
X220388Y395958D01*
X220405Y396001D01*
X220430Y396040D01*
X220460Y396076D01*
X220495Y396106D01*
X220535Y396130D01*
X220578Y396148D01*
X220623Y396159D01*
X220669Y396162D01*
X225787D01*
X225834Y396159D01*
D02*
G37*
D15*
X197835Y389452D02*
X198425Y390354D01*
X197835Y391256D02*
X196902Y391178D01*
X196457Y390354D01*
X196902Y389531D01*
X197835Y389452D01*
X198425Y390354D02*
X197835Y391256D01*
X226772Y393898D02*
X226279Y394750D01*
X225295D01*
X224803Y393898D01*
X225295Y393045D01*
X226279D01*
X226772Y393898D01*
Y390354D02*
X226279Y391207D01*
X225295D01*
X224803Y390354D01*
X225295Y389502D01*
X226279D01*
X226772Y390354D01*
X198425Y393898D02*
X197933Y394750D01*
X196949D01*
X196457Y393898D01*
X196949Y393045D01*
X197933D01*
X198425Y393898D01*
D32*
X216732Y381496D02*
D03*
X214173D02*
D03*
X211614D02*
D03*
X209055D02*
D03*
X206496D02*
D03*
D33*
X215551Y392126D02*
D03*
X207677D02*
D03*
D34*
X177953Y352362D02*
D03*
X188976D02*
D03*
X220079D02*
D03*
X209055D02*
D03*
D35*
X261437Y309567D02*
D03*
X256437D02*
D03*
X251437D02*
D03*
X246437D02*
D03*
Y280984D02*
D03*
X251437D02*
D03*
X256437D02*
D03*
X261437D02*
D03*
D36*
X216142Y248819D02*
D03*
Y257874D02*
D03*
Y266929D02*
D03*
D37*
X193307Y257874D02*
D03*
D38*
X213701Y281870D02*
D03*
Y286870D02*
D03*
Y291870D02*
D03*
Y296870D02*
D03*
X233150D02*
D03*
Y291870D02*
D03*
Y286870D02*
D03*
Y281870D02*
D03*
D39*
X279528Y245571D02*
D03*
Y254429D02*
D03*
D40*
X153544Y300098D02*
D03*
Y321949D02*
D03*
X133859Y300098D02*
D03*
Y321949D02*
D03*
D41*
X143701Y360236D02*
D03*
Y259842D02*
D03*
D42*
X202756Y283858D02*
D03*
Y294882D02*
D03*
X224803Y334252D02*
D03*
Y323228D02*
D03*
X279528Y338976D02*
D03*
Y350000D02*
D03*
X259842Y338976D02*
D03*
Y350000D02*
D03*
X248031Y338976D02*
D03*
Y350000D02*
D03*
X263779Y244488D02*
D03*
Y255512D02*
D03*
D43*
X187008Y300394D02*
D03*
Y311811D02*
D03*
X248031Y244291D02*
D03*
Y255709D02*
D03*
X232283D02*
D03*
Y244291D02*
D03*
D44*
X210433Y323425D02*
D03*
X201378D02*
D03*
D45*
X205906Y334842D02*
D03*
D46*
X172244Y319488D02*
D03*
Y302559D02*
D03*
D47*
X259842Y380512D02*
D03*
Y368110D02*
D03*
X279528Y380217D02*
D03*
Y367815D02*
D03*
X248031Y380512D02*
D03*
Y368110D02*
D03*
D48*
X190945Y322047D02*
D03*
Y238189D02*
D03*
D49*
X284449Y265591D02*
D03*
D50*
Y275590D02*
D03*
Y285591D02*
D03*
Y295590D02*
D03*
D51*
X201772Y381496D02*
D03*
X221457D02*
D03*
D52*
X185327Y257874D02*
D03*
X171260Y259842D02*
D03*
X168307Y360236D02*
D03*
X235433Y346063D02*
D03*
X268898Y380315D02*
D03*
X210630Y314961D02*
D03*
X224410Y342520D02*
D03*
X194882Y340551D02*
D03*
M02*
