G04*
G04 #@! TF.GenerationSoftware,Altium Limited,Altium Designer,21.0.9 (235)*
G04*
G04 Layer_Color=65535*
%FSLAX25Y25*%
%MOIN*%
G70*
G04*
G04 #@! TF.SameCoordinates,3F70F9B8-B395-4C3D-AA67-83CA4ED45D7C*
G04*
G04*
G04 #@! TF.FilePolarity,Positive*
G04*
G01*
G75*
%ADD10C,0.00984*%
%ADD11C,0.00787*%
%ADD12C,0.00500*%
%ADD13C,0.00591*%
%ADD14C,0.01000*%
D10*
X217224Y376673D02*
X216486Y377099D01*
Y376247D01*
X217224Y376673D01*
D11*
X264114Y316299D02*
X263327D01*
X264114D01*
X223228Y248819D02*
X222441D01*
X223228D01*
X239724Y280295D02*
X238937D01*
X239724D01*
X279921Y240945D02*
X279134D01*
X279921D01*
X215158Y323425D02*
X214370D01*
X215158D01*
X279449Y300590D02*
X289449D01*
Y260591D02*
Y300590D01*
X279449Y260591D02*
Y300590D01*
Y260591D02*
X289449D01*
X226358Y397394D02*
Y400590D01*
X226359Y382105D02*
Y386858D01*
X225842Y382105D02*
X226359D01*
X196869Y382086D02*
X197382D01*
X196869Y382087D02*
Y386858D01*
Y397394D02*
Y400591D01*
X196870Y400590D02*
X226358D01*
X183465Y348031D02*
Y356693D01*
X192520Y355512D02*
Y356693D01*
X174409D02*
X192520D01*
X174409Y355512D02*
Y356693D01*
Y348031D02*
Y349213D01*
Y348031D02*
X192520D01*
Y349213D01*
X214567Y348031D02*
Y356693D01*
X205512Y348031D02*
Y349213D01*
Y348031D02*
X223622D01*
Y349213D01*
Y355512D02*
Y356693D01*
X205512D02*
X223622D01*
X205512Y355512D02*
Y356693D01*
X147540Y304921D02*
Y317126D01*
X159548Y304921D02*
Y317126D01*
X127855Y304921D02*
Y317126D01*
X139863Y304921D02*
Y317126D01*
X198425Y280315D02*
X199606D01*
X198425D02*
Y298425D01*
X199606D01*
X205906D02*
X207087D01*
Y280315D02*
Y298425D01*
X205906Y280315D02*
X207087D01*
X198425Y289370D02*
X207087D01*
X227953Y337795D02*
X229134D01*
Y319685D02*
Y337795D01*
X227953Y319685D02*
X229134D01*
X220472D02*
X221654D01*
X220472D02*
Y337795D01*
X221654D01*
X220472Y328740D02*
X229134D01*
X172244Y312205D02*
Y313386D01*
Y308661D02*
Y309449D01*
X170276Y312205D02*
X173819D01*
X170276D02*
X172244Y309449D01*
X173819Y312205D01*
X170276Y309449D02*
X174213D01*
X179331Y296063D02*
Y325197D01*
X178051D02*
X179331D01*
X174213Y296063D02*
X179331D01*
X165157Y325197D02*
X166437D01*
X174213Y296063D02*
Y296654D01*
X179331D01*
X165157D02*
X170276D01*
Y296063D02*
Y296654D01*
X165157Y296063D02*
Y325197D01*
Y296063D02*
X170276D01*
X257874Y372736D02*
X261811D01*
X259842D02*
X261417Y375492D01*
X257874D02*
X259842Y372736D01*
X257874Y375492D02*
X261417D01*
X259842Y371949D02*
Y372736D01*
Y375492D02*
Y376673D01*
X277559Y372441D02*
X281496D01*
X279528D02*
X281102Y375197D01*
X277559D02*
X279528Y372441D01*
X277559Y375197D02*
X281102D01*
X279528Y371654D02*
Y372441D01*
Y375197D02*
Y376378D01*
X275197Y335433D02*
X276378D01*
X275197D02*
Y353543D01*
X276378D01*
X282677D02*
X283858D01*
Y335433D02*
Y353543D01*
X282677Y335433D02*
X283858D01*
X275197Y344488D02*
X283858D01*
X255512Y335433D02*
X256693D01*
X255512D02*
Y353543D01*
X256693D01*
X262992D02*
X264173D01*
Y335433D02*
Y353543D01*
X262992Y335433D02*
X264173D01*
X255512Y344488D02*
X264173D01*
X246063Y372736D02*
X250000D01*
X248031D02*
X249606Y375492D01*
X246063D02*
X248031Y372736D01*
X246063Y375492D02*
X249606D01*
X248031Y371949D02*
Y372736D01*
Y375492D02*
Y376673D01*
X243701Y335433D02*
X244882D01*
X243701D02*
Y353543D01*
X244882D01*
X251181D02*
X252362D01*
Y335433D02*
Y353543D01*
X251181Y335433D02*
X252362D01*
X243701Y344488D02*
X252362D01*
X259449Y240945D02*
X260630D01*
X259449D02*
Y259055D01*
X260630D01*
X266929D02*
X268110D01*
Y240945D02*
Y259055D01*
X266929Y240945D02*
X268110D01*
X259449Y250000D02*
X268110D01*
D12*
X264469Y284646D02*
Y305906D01*
X243406Y284646D02*
Y305906D01*
X197835Y245079D02*
Y249961D01*
Y245079D02*
X211614D01*
X197835Y265787D02*
Y270669D01*
X211614D01*
X215748Y299311D02*
X231102D01*
X215748Y279429D02*
X231102D01*
X277067Y249095D02*
Y250905D01*
X281988Y249095D02*
Y250905D01*
X212205Y327809D02*
Y336024D01*
X204778Y322244D02*
X207033D01*
X199606Y327809D02*
Y336024D01*
X201496D01*
X210315D02*
X212205D01*
D13*
X190453Y296752D02*
X191437D01*
Y315453D01*
X190453D02*
X191437D01*
X182579D02*
X183563D01*
X182579Y296752D02*
Y315453D01*
Y296752D02*
X183563D01*
X182579Y306102D02*
X191437D01*
X256236Y383366D02*
X257185D01*
X256236Y365311D02*
Y383366D01*
Y364811D02*
Y365311D01*
Y364811D02*
X258842D01*
Y365311D01*
X256236D02*
X258842D01*
X260842D02*
X263449D01*
X260842Y364811D02*
Y365311D01*
Y364811D02*
X263449D01*
Y365311D01*
Y383366D01*
X262500D02*
X263449D01*
X275921Y383071D02*
X276870D01*
X275921Y365016D02*
Y383071D01*
Y364516D02*
Y365016D01*
Y364516D02*
X278528D01*
Y365016D01*
X275921D02*
X278528D01*
X280528D02*
X283134D01*
X280528Y364516D02*
Y365016D01*
Y364516D02*
X283134D01*
Y365016D01*
Y383071D01*
X282185D02*
X283134D01*
X244425Y383366D02*
X245374D01*
X244425Y365311D02*
Y383366D01*
Y364811D02*
Y365311D01*
Y364811D02*
X247031D01*
Y365311D01*
X244425D02*
X247031D01*
X249031D02*
X251638D01*
X249031Y364811D02*
Y365311D01*
Y364811D02*
X251638D01*
Y365311D01*
Y383366D01*
X250689D02*
X251638D01*
X251476Y240650D02*
X252461D01*
Y259350D01*
X251476D02*
X252461D01*
X243602D02*
X244587D01*
X243602Y240650D02*
Y259350D01*
Y240650D02*
X244587D01*
X243602Y250000D02*
X252461D01*
X227854D02*
X236713D01*
X227854Y240650D02*
X228839D01*
X227854D02*
Y259350D01*
X228839D01*
X235728D02*
X236713D01*
Y240650D02*
Y259350D01*
X235728Y240650D02*
X236713D01*
D14*
X186962Y387795D02*
Y385796D01*
Y386796D01*
X191960D01*
X192960Y385796D01*
Y384796D01*
X191960Y383797D01*
X192960Y389795D02*
Y391794D01*
Y390794D01*
X186962D01*
X187961Y389795D01*
X197727Y278590D02*
Y274591D01*
X199726Y272591D01*
X201725Y274591D01*
Y278590D01*
X203725Y272591D02*
Y278590D01*
X206724D01*
X207723Y277590D01*
Y275591D01*
X206724Y274591D01*
X203725D01*
X205724D02*
X207723Y272591D01*
X209723D02*
X211722D01*
X210722D01*
Y278590D01*
X209723Y277590D01*
X215474Y308117D02*
Y303119D01*
X216474Y302119D01*
X218473D01*
X219473Y303119D01*
Y308117D01*
X225471Y302119D02*
X221472D01*
X225471Y306118D01*
Y307118D01*
X224471Y308117D01*
X222472D01*
X221472Y307118D01*
X272684Y305180D02*
X267686D01*
X266686Y304180D01*
Y302181D01*
X267686Y301181D01*
X272684D01*
X266686Y299182D02*
Y297182D01*
Y298182D01*
X272684D01*
X271684Y299182D01*
X200710Y340505D02*
Y346503D01*
X203709D01*
X204709Y345503D01*
Y343504D01*
X203709Y342504D01*
X200710D01*
X202710D02*
X204709Y340505D01*
X206708Y345503D02*
X207708Y346503D01*
X209707D01*
X210707Y345503D01*
Y344504D01*
X209707Y343504D01*
X208708D01*
X209707D01*
X210707Y342504D01*
Y341505D01*
X209707Y340505D01*
X207708D01*
X206708Y341505D01*
X286371Y350986D02*
X292369D01*
Y347987D01*
X291369Y346987D01*
X289370D01*
X288370Y347987D01*
Y350986D01*
Y348987D02*
X286371Y346987D01*
Y344988D02*
Y342989D01*
Y343988D01*
X292369D01*
X291369Y344988D01*
X286371Y339990D02*
Y337990D01*
Y338990D01*
X292369D01*
X291369Y339990D01*
X242172Y336991D02*
X236174D01*
Y339990D01*
X237174Y340989D01*
X239173D01*
X240173Y339990D01*
Y336991D01*
Y338990D02*
X242172Y340989D01*
Y342989D02*
Y344988D01*
Y343988D01*
X236174D01*
X237174Y342989D01*
Y347987D02*
X236174Y348987D01*
Y350986D01*
X237174Y351986D01*
X241173D01*
X242172Y350986D01*
Y348987D01*
X241173Y347987D01*
X237174D01*
X266686Y349487D02*
X272684D01*
Y346487D01*
X271684Y345488D01*
X269685D01*
X268685Y346487D01*
Y349487D01*
Y347487D02*
X266686Y345488D01*
X267686Y343489D02*
X266686Y342489D01*
Y340490D01*
X267686Y339490D01*
X271684D01*
X272684Y340490D01*
Y342489D01*
X271684Y343489D01*
X270685D01*
X269685Y342489D01*
Y339490D01*
X206616Y359206D02*
Y365204D01*
X209615D01*
X210614Y364204D01*
Y362205D01*
X209615Y361205D01*
X206616D01*
X208615D02*
X210614Y359206D01*
X212614Y364204D02*
X213614Y365204D01*
X215613D01*
X216613Y364204D01*
Y363204D01*
X215613Y362205D01*
X216613Y361205D01*
Y360205D01*
X215613Y359206D01*
X213614D01*
X212614Y360205D01*
Y361205D01*
X213614Y362205D01*
X212614Y363204D01*
Y364204D01*
X213614Y362205D02*
X215613D01*
X260100Y262400D02*
Y268398D01*
X263099D01*
X264099Y267398D01*
Y265399D01*
X263099Y264399D01*
X260100D01*
X262099D02*
X264099Y262400D01*
X266098Y268398D02*
X270097D01*
Y267398D01*
X266098Y263400D01*
Y262400D01*
X194928Y283978D02*
X188930D01*
Y286977D01*
X189930Y287977D01*
X191929D01*
X192929Y286977D01*
Y283978D01*
Y285977D02*
X194928Y287977D01*
X188930Y293975D02*
X189930Y291975D01*
X191929Y289976D01*
X193929D01*
X194928Y290976D01*
Y292975D01*
X193929Y293975D01*
X192929D01*
X191929Y292975D01*
Y289976D01*
X231253Y333738D02*
X237251D01*
Y330739D01*
X236251Y329740D01*
X234252D01*
X233252Y330739D01*
Y333738D01*
Y331739D02*
X231253Y329740D01*
X237251Y323742D02*
Y327741D01*
X234252D01*
X235252Y325741D01*
Y324741D01*
X234252Y323742D01*
X232253D01*
X231253Y324741D01*
Y326741D01*
X232253Y327741D01*
X175120Y359206D02*
Y365204D01*
X178119D01*
X179118Y364204D01*
Y362205D01*
X178119Y361205D01*
X175120D01*
X177119D02*
X179118Y359206D01*
X184117D02*
Y365204D01*
X181118Y362205D01*
X185117D01*
X280450Y303103D02*
Y309101D01*
X283449D01*
X284449Y308102D01*
Y306102D01*
X283449Y305103D01*
X280450D01*
X286448Y303103D02*
X288447D01*
X287448D01*
Y309101D01*
X286448Y308102D01*
X285387Y365080D02*
X291385D01*
Y368079D01*
X290385Y369079D01*
X286386D01*
X285387Y368079D01*
Y365080D01*
Y375077D02*
Y371078D01*
X288386D01*
X287386Y373078D01*
Y374077D01*
X288386Y375077D01*
X290385D01*
X291385Y374077D01*
Y372078D01*
X290385Y371078D01*
X236174Y365080D02*
X242172D01*
Y368079D01*
X241173Y369079D01*
X237174D01*
X236174Y368079D01*
Y365080D01*
X242172Y374077D02*
X236174D01*
X239173Y371078D01*
Y375077D01*
X266686Y365080D02*
X272684D01*
Y368079D01*
X271684Y369079D01*
X267686D01*
X266686Y368079D01*
Y365080D01*
X267686Y371078D02*
X266686Y372078D01*
Y374077D01*
X267686Y375077D01*
X268685D01*
X269685Y374077D01*
Y373078D01*
Y374077D01*
X270685Y375077D01*
X271684D01*
X272684Y374077D01*
Y372078D01*
X271684Y371078D01*
X291385Y255983D02*
X285387D01*
Y252984D01*
X286386Y251984D01*
X290385D01*
X291385Y252984D01*
Y255983D01*
X285387Y245986D02*
Y249985D01*
X289386Y245986D01*
X290385D01*
X291385Y246986D01*
Y248985D01*
X290385Y249985D01*
X164900Y334698D02*
Y328700D01*
X167899D01*
X168899Y329700D01*
Y333698D01*
X167899Y334698D01*
X164900D01*
X170898Y328700D02*
X172897D01*
X171898D01*
Y334698D01*
X170898Y333698D01*
X248299Y267630D02*
X247299Y268630D01*
X245300D01*
X244300Y267630D01*
Y263631D01*
X245300Y262632D01*
X247299D01*
X248299Y263631D01*
X250298Y267630D02*
X251298Y268630D01*
X253297D01*
X254297Y267630D01*
Y266630D01*
X253297Y265631D01*
X252297D01*
X253297D01*
X254297Y264631D01*
Y263631D01*
X253297Y262632D01*
X251298D01*
X250298Y263631D01*
X232599Y267630D02*
X231599Y268630D01*
X229600D01*
X228600Y267630D01*
Y263631D01*
X229600Y262632D01*
X231599D01*
X232599Y263631D01*
X238597Y262632D02*
X234598D01*
X238597Y266630D01*
Y267630D01*
X237597Y268630D01*
X235598D01*
X234598Y267630D01*
X194851Y306102D02*
X193851Y305103D01*
Y303103D01*
X194851Y302104D01*
X198850D01*
X199849Y303103D01*
Y305103D01*
X198850Y306102D01*
X199849Y308102D02*
Y310101D01*
Y309101D01*
X193851D01*
X194851Y308102D01*
M02*
