G04*
G04 #@! TF.GenerationSoftware,Altium Limited,Altium Designer,21.0.9 (235)*
G04*
G04 Layer_Color=32768*
%FSLAX25Y25*%
%MOIN*%
G70*
G04*
G04 #@! TF.SameCoordinates,E9F36055-DDC9-4CB2-81F6-941DF85676E6*
G04*
G04*
G04 #@! TF.FilePolarity,Positive*
G04*
G01*
G75*
%ADD63C,0.00394*%
%ADD65C,0.00197*%
D63*
X209646Y386811D02*
X213583D01*
X211614Y384842D02*
Y388779D01*
X183465Y350394D02*
Y354331D01*
X181496Y352362D02*
X185433D01*
X214567Y350394D02*
Y354331D01*
X212598Y352362D02*
X216535D01*
X153544Y309055D02*
Y312992D01*
X151575Y311024D02*
X155512D01*
X133859Y309055D02*
Y312992D01*
X131890Y311024D02*
X135827D01*
X202756Y287402D02*
Y291339D01*
X200787Y289370D02*
X204724D01*
X224803Y326772D02*
Y330709D01*
X222835Y328740D02*
X226772D01*
X187008Y304134D02*
Y308071D01*
X185039Y306102D02*
X188976D01*
X172244Y309055D02*
Y312992D01*
X170276Y311024D02*
X174213D01*
X259842Y372342D02*
Y376279D01*
X257874Y374311D02*
X261811D01*
X279528Y372047D02*
Y375984D01*
X277559Y374016D02*
X281496D01*
X279528Y342520D02*
Y346457D01*
X277559Y344488D02*
X281496D01*
X259842Y342520D02*
Y346457D01*
X257874Y344488D02*
X261811D01*
X248031Y372342D02*
Y376279D01*
X246063Y374311D02*
X250000D01*
X248031Y342520D02*
Y346457D01*
X246063Y344488D02*
X250000D01*
X263779Y248031D02*
Y251969D01*
X261811Y250000D02*
X265748D01*
X248031Y248031D02*
Y251969D01*
X246063Y250000D02*
X250000D01*
X230315D02*
X234252D01*
X232283Y248031D02*
Y251969D01*
D65*
X195079Y378248D02*
X228150D01*
X195079D02*
Y402559D01*
X228150D01*
Y378248D02*
Y402559D01*
X174606Y356693D02*
X192323D01*
X174606Y348031D02*
X192323D01*
X174606D02*
Y356693D01*
X192323Y348031D02*
Y356693D01*
X205709Y348031D02*
X223425D01*
X205709Y356693D02*
X223425D01*
Y348031D02*
Y356693D01*
X205709Y348031D02*
Y356693D01*
X265453Y276634D02*
Y313917D01*
X242421Y276634D02*
Y313917D01*
X265453D01*
X242421Y276634D02*
X265453D01*
X188091Y250492D02*
X196850D01*
Y244094D02*
Y250492D01*
Y244094D02*
X212598D01*
Y245965D01*
X221358D01*
Y269783D01*
X212598D02*
X221358D01*
X212598D02*
Y271654D01*
X196850D02*
X212598D01*
X196850Y265256D02*
Y271654D01*
X188091Y265256D02*
X196850D01*
X188091Y250492D02*
Y265256D01*
X208839Y278730D02*
Y300010D01*
X238012Y278730D02*
Y300010D01*
X208839D02*
X238012D01*
X208839Y278730D02*
X238012D01*
X283071Y242323D02*
Y257677D01*
X275984Y242323D02*
Y257677D01*
Y242323D02*
X283071D01*
X275984Y257677D02*
X283071D01*
X146063Y295866D02*
X161024D01*
X146063Y326181D02*
X161024D01*
X146063Y295866D02*
Y326181D01*
X161024Y295866D02*
Y326181D01*
X126378Y295866D02*
X141339D01*
X126378Y326181D02*
X141339D01*
X126378Y295866D02*
Y326181D01*
X141339Y295866D02*
Y326181D01*
X198425Y280512D02*
X207087D01*
X198425Y298228D02*
X207087D01*
X198425Y280512D02*
Y298228D01*
X207087Y280512D02*
Y298228D01*
X220472Y337598D02*
X229134D01*
X220472Y319882D02*
X229134D01*
Y337598D01*
X220472Y319882D02*
Y337598D01*
X182480Y296850D02*
X191535D01*
X182480Y315354D02*
X191535D01*
X182480Y296850D02*
Y315354D01*
X191535Y296850D02*
Y315354D01*
X198228Y319291D02*
Y338976D01*
X213583D01*
Y319291D02*
Y338976D01*
X198228Y319291D02*
X213583D01*
X163976Y325590D02*
X180512D01*
X163976Y296457D02*
X180512D01*
Y325590D01*
X163976Y296457D02*
Y325590D01*
X255906Y383366D02*
X263780D01*
X255906Y365256D02*
X263780D01*
X263386D02*
Y383366D01*
X255906Y365256D02*
Y383366D01*
X275590Y383071D02*
X283465D01*
X275590Y364961D02*
X283465D01*
X283071D02*
Y383071D01*
X275590Y364961D02*
Y383071D01*
X275197Y335630D02*
X283858D01*
X275197Y353346D02*
X283858D01*
X275197Y335630D02*
Y353346D01*
X283858Y335630D02*
Y353346D01*
X255512Y335630D02*
X264173D01*
X255512Y353346D02*
X264173D01*
X255512Y335630D02*
Y353346D01*
X264173Y335630D02*
Y353346D01*
X244094Y383366D02*
X251969D01*
X244094Y365256D02*
X251969D01*
X251575D02*
Y383366D01*
X244094Y365256D02*
Y383366D01*
X243701Y335630D02*
X252362D01*
X243701Y353346D02*
X252362D01*
X243701Y335630D02*
Y353346D01*
X252362Y335630D02*
Y353346D01*
X259449Y241142D02*
X268110D01*
X259449Y258858D02*
X268110D01*
X259449Y241142D02*
Y258858D01*
X268110Y241142D02*
Y258858D01*
X243504Y240748D02*
X252559D01*
X243504Y259252D02*
X252559D01*
X243504Y240748D02*
Y259252D01*
X252559Y240748D02*
Y259252D01*
X236811Y240748D02*
Y259252D01*
X227756Y240748D02*
Y259252D01*
X236811D01*
X227756Y240748D02*
X236811D01*
M02*
