G04*
G04 #@! TF.GenerationSoftware,Altium Limited,Altium Designer,21.0.9 (235)*
G04*
G04 Layer_Physical_Order=1*
G04 Layer_Color=255*
%FSLAX25Y25*%
%MOIN*%
G70*
G04*
G04 #@! TF.SameCoordinates,E9F36055-DDC9-4CB2-81F6-941DF85676E6*
G04*
G04*
G04 #@! TF.FilePolarity,Positive*
G04*
G01*
G75*
%ADD15C,0.01968*%
%ADD16R,0.01575X0.05315*%
%ADD17R,0.05906X0.07480*%
%ADD18R,0.04724X0.06496*%
G04:AMPARAMS|DCode=19|XSize=67.32mil|YSize=22.84mil|CornerRadius=2.85mil|HoleSize=0mil|Usage=FLASHONLY|Rotation=270.000|XOffset=0mil|YOffset=0mil|HoleType=Round|Shape=RoundedRectangle|*
%AMROUNDEDRECTD19*
21,1,0.06732,0.01713,0,0,270.0*
21,1,0.06161,0.02284,0,0,270.0*
1,1,0.00571,-0.00856,-0.03081*
1,1,0.00571,-0.00856,0.03081*
1,1,0.00571,0.00856,0.03081*
1,1,0.00571,0.00856,-0.03081*
%
%ADD19ROUNDEDRECTD19*%
%ADD20R,0.08465X0.03740*%
%ADD21R,0.08465X0.12795*%
G04:AMPARAMS|DCode=22|XSize=77.56mil|YSize=23.62mil|CornerRadius=2.95mil|HoleSize=0mil|Usage=FLASHONLY|Rotation=180.000|XOffset=0mil|YOffset=0mil|HoleType=Round|Shape=RoundedRectangle|*
%AMROUNDEDRECTD22*
21,1,0.07756,0.01772,0,0,180.0*
21,1,0.07165,0.02362,0,0,180.0*
1,1,0.00591,-0.03583,0.00886*
1,1,0.00591,0.03583,0.00886*
1,1,0.00591,0.03583,-0.00886*
1,1,0.00591,-0.03583,-0.00886*
%
%ADD22ROUNDEDRECTD22*%
%ADD23R,0.05118X0.04528*%
%ADD24R,0.12795X0.06496*%
%ADD25R,0.31496X0.59055*%
%ADD26R,0.06496X0.04724*%
%ADD27R,0.07087X0.05118*%
%ADD28R,0.04331X0.06299*%
%ADD29R,0.06299X0.06299*%
%ADD30R,0.08465X0.09646*%
%ADD31R,0.03740X0.03543*%
%ADD53C,0.03937*%
%ADD54C,0.05906*%
%ADD55C,0.01378*%
%ADD56C,0.02362*%
%ADD57C,0.02756*%
%ADD58R,0.05906X0.05906*%
%ADD59C,0.05906*%
%ADD60C,0.05709*%
%ADD61C,0.03937*%
%ADD62C,0.05000*%
G36*
X227756Y390354D02*
X225787D01*
Y393898D01*
X227756D01*
X227756Y390354D01*
D02*
G37*
G36*
X197441Y390354D02*
X195473D01*
X195472Y393898D01*
X197441D01*
Y390354D01*
D02*
G37*
G36*
X225787Y388386D02*
X220669D01*
Y395866D01*
X225787D01*
Y388386D01*
D02*
G37*
G36*
X202559D02*
X197441D01*
Y395866D01*
X202559D01*
Y388386D01*
D02*
G37*
G36*
X168307Y393701D02*
X178150Y383858D01*
Y356610D01*
X174591D01*
Y352862D01*
X177953D01*
Y351862D01*
X174591D01*
Y348114D01*
X178150D01*
Y317677D01*
X177650Y317427D01*
X177476Y317558D01*
Y318988D01*
X172744D01*
Y313665D01*
X173815D01*
X174972Y312508D01*
X174765Y312008D01*
X127953D01*
X123031Y316929D01*
Y388779D01*
X127953Y393701D01*
X168307Y393701D01*
D02*
G37*
G36*
X177339Y308882D02*
X177131Y308382D01*
X172744D01*
Y303059D01*
X177476D01*
Y308037D01*
X177976Y308244D01*
X179134Y307087D01*
X189961D01*
X192913Y304134D01*
X192913Y296260D01*
X189961Y293307D01*
X178150Y293307D01*
X178150Y284449D01*
X178150Y241142D01*
X163386Y226378D01*
X127953Y226378D01*
X123031Y231299D01*
X123031Y304134D01*
Y305118D01*
X127953Y310039D01*
X176181D01*
X177339Y308882D01*
D02*
G37*
G36*
X242126Y274606D02*
Y267717D01*
X245079Y264764D01*
X264764D01*
X267510Y262018D01*
X264366Y258874D01*
X264280D01*
Y255512D01*
Y252150D01*
X265276D01*
X265467Y251688D01*
X264764Y250984D01*
X231299D01*
X230596Y251688D01*
X230787Y252150D01*
X231784D01*
Y255709D01*
Y259268D01*
X231402D01*
X229784Y260886D01*
X229247Y261297D01*
X228623Y261556D01*
X227953Y261644D01*
X227283Y261556D01*
X226658Y261297D01*
X226122Y260886D01*
X225711Y260350D01*
X225452Y259725D01*
X225364Y259055D01*
X225452Y258385D01*
X225711Y257761D01*
X226122Y257224D01*
X227740Y255606D01*
Y255078D01*
X227362Y254921D01*
X225315D01*
X220972Y259264D01*
Y260343D01*
X218967D01*
X218799Y260365D01*
X218799Y260365D01*
X216837D01*
X216812Y260375D01*
X216142Y260463D01*
X215472Y260375D01*
X215393Y260343D01*
X211311D01*
Y257846D01*
X210849Y257655D01*
X209646Y258858D01*
Y274606D01*
X213583Y278543D01*
X238189D01*
X242126Y274606D01*
D02*
G37*
%LPC*%
G36*
X168807Y363726D02*
Y360736D01*
X171797D01*
X171569Y361587D01*
X171108Y362385D01*
X170456Y363037D01*
X169658Y363498D01*
X168807Y363726D01*
D02*
G37*
G36*
X167807D02*
X166956Y363498D01*
X166158Y363037D01*
X165506Y362385D01*
X165046Y361587D01*
X164818Y360736D01*
X167807D01*
Y363726D01*
D02*
G37*
G36*
X160449Y390764D02*
X144201D01*
Y360736D01*
X160449D01*
Y390764D01*
D02*
G37*
G36*
X143201D02*
X126953D01*
Y360736D01*
X143201D01*
Y390764D01*
D02*
G37*
G36*
X171797Y359736D02*
X168807D01*
Y356747D01*
X169658Y356975D01*
X170456Y357435D01*
X171108Y358087D01*
X171569Y358885D01*
X171797Y359736D01*
D02*
G37*
G36*
X167807D02*
X164818D01*
X165046Y358885D01*
X165506Y358087D01*
X166158Y357435D01*
X166956Y356975D01*
X167807Y356747D01*
Y359736D01*
D02*
G37*
G36*
X160449D02*
X144201D01*
Y329709D01*
X160449D01*
Y359736D01*
D02*
G37*
G36*
X143201D02*
X126953D01*
Y329709D01*
X143201D01*
Y359736D01*
D02*
G37*
G36*
X160941Y326197D02*
X154044D01*
Y322449D01*
X160941D01*
Y326197D01*
D02*
G37*
G36*
X141256D02*
X134359D01*
Y322449D01*
X141256D01*
Y326197D01*
D02*
G37*
G36*
X153044D02*
X146146D01*
Y322449D01*
X153044D01*
Y326197D01*
D02*
G37*
G36*
X133359D02*
X126461D01*
Y322449D01*
X133359D01*
Y326197D01*
D02*
G37*
G36*
X177476Y325311D02*
X172744D01*
Y319988D01*
X177476D01*
Y325311D01*
D02*
G37*
G36*
X171744D02*
X167012D01*
Y319988D01*
X171744D01*
Y325311D01*
D02*
G37*
G36*
X160941Y321449D02*
X154044D01*
Y317701D01*
X160941D01*
Y321449D01*
D02*
G37*
G36*
X153044D02*
X146146D01*
Y317701D01*
X153044D01*
Y321449D01*
D02*
G37*
G36*
X141256D02*
X134359D01*
Y317701D01*
X141256D01*
Y321449D01*
D02*
G37*
G36*
X133359D02*
X126461D01*
Y317701D01*
X133359D01*
Y321449D01*
D02*
G37*
G36*
X171744Y318988D02*
X167012D01*
Y313665D01*
X171744D01*
Y318988D01*
D02*
G37*
G36*
Y308382D02*
X167012D01*
Y303059D01*
X171744D01*
Y308382D01*
D02*
G37*
G36*
X191551Y303953D02*
X187508D01*
Y300894D01*
X191551D01*
Y303953D01*
D02*
G37*
G36*
X186508D02*
X182465D01*
Y300894D01*
X186508D01*
Y303953D01*
D02*
G37*
G36*
X160941Y304346D02*
X154044D01*
Y300599D01*
X160941D01*
Y304346D01*
D02*
G37*
G36*
X141256D02*
X134359D01*
Y300599D01*
X141256D01*
Y304346D01*
D02*
G37*
G36*
X153044D02*
X146146D01*
Y300599D01*
X153044D01*
Y304346D01*
D02*
G37*
G36*
X133359D02*
X126461D01*
Y300599D01*
X133359D01*
Y304346D01*
D02*
G37*
G36*
X191551Y299894D02*
X187508D01*
Y296835D01*
X191551D01*
Y299894D01*
D02*
G37*
G36*
X186508D02*
X182465D01*
Y296835D01*
X186508D01*
Y299894D01*
D02*
G37*
G36*
X177476Y302059D02*
X172744D01*
Y296736D01*
X177476D01*
Y302059D01*
D02*
G37*
G36*
X171744D02*
X167012D01*
Y296736D01*
X171744D01*
Y302059D01*
D02*
G37*
G36*
X160941Y299599D02*
X154044D01*
Y295850D01*
X160941D01*
Y299599D01*
D02*
G37*
G36*
X153044D02*
X146146D01*
Y295850D01*
X153044D01*
Y299599D01*
D02*
G37*
G36*
X141256D02*
X134359D01*
Y295850D01*
X141256D01*
Y299599D01*
D02*
G37*
G36*
X133359D02*
X126461D01*
Y295850D01*
X133359D01*
Y299599D01*
D02*
G37*
G36*
X171760Y263332D02*
Y260343D01*
X174749D01*
X174521Y261193D01*
X174060Y261992D01*
X173409Y262643D01*
X172611Y263104D01*
X171760Y263332D01*
D02*
G37*
G36*
X170760D02*
X169909Y263104D01*
X169111Y262643D01*
X168459Y261992D01*
X167998Y261193D01*
X167770Y260343D01*
X170760D01*
Y263332D01*
D02*
G37*
G36*
X160449Y290370D02*
X144201D01*
Y260343D01*
X160449D01*
Y290370D01*
D02*
G37*
G36*
X143201D02*
X126953D01*
Y260343D01*
X143201D01*
Y290370D01*
D02*
G37*
G36*
X174749Y259343D02*
X171760D01*
Y256353D01*
X172611Y256581D01*
X173409Y257042D01*
X174060Y257694D01*
X174521Y258492D01*
X174749Y259343D01*
D02*
G37*
G36*
X170760D02*
X167770D01*
X167998Y258492D01*
X168459Y257694D01*
X169111Y257042D01*
X169909Y256581D01*
X170760Y256353D01*
Y259343D01*
D02*
G37*
G36*
X160449D02*
X144201D01*
Y229315D01*
X160449D01*
Y259343D01*
D02*
G37*
G36*
X143201D02*
X126953D01*
Y229315D01*
X143201D01*
Y259343D01*
D02*
G37*
G36*
X221374Y269799D02*
X216642D01*
Y267429D01*
X221374D01*
Y269799D01*
D02*
G37*
G36*
X215642D02*
X210910D01*
Y267429D01*
X215642D01*
Y269799D01*
D02*
G37*
G36*
X221374Y266429D02*
X216642D01*
Y264059D01*
X221374D01*
Y266429D01*
D02*
G37*
G36*
X215642D02*
X210910D01*
Y264059D01*
X215642D01*
Y266429D01*
D02*
G37*
G36*
X247532Y259268D02*
X243488D01*
Y258199D01*
X236827D01*
Y259268D01*
X232784D01*
Y255709D01*
Y252150D01*
X236827D01*
Y253021D01*
X243488D01*
Y252150D01*
X247532D01*
Y255709D01*
Y259268D01*
D02*
G37*
G36*
X252575D02*
X248532D01*
Y255709D01*
Y252150D01*
X252575D01*
Y253021D01*
X259531D01*
Y252150D01*
X263280D01*
Y255512D01*
Y258874D01*
X259531D01*
Y258199D01*
X252575D01*
Y259268D01*
D02*
G37*
%LPD*%
D15*
X197835Y389452D02*
X198425Y390354D01*
X197835Y391256D02*
X196902Y391178D01*
X196457Y390354D01*
X196902Y389531D01*
X197835Y389452D01*
X198425Y390354D02*
X197835Y391256D01*
X226772Y393898D02*
X226279Y394750D01*
X225295D01*
X224803Y393898D01*
X225295Y393045D01*
X226279D01*
X226772Y393898D01*
Y390354D02*
X226279Y391207D01*
X225295D01*
X224803Y390354D01*
X225295Y389502D01*
X226279D01*
X226772Y390354D01*
X198425Y393898D02*
X197933Y394750D01*
X196949D01*
X196457Y393898D01*
X196949Y393045D01*
X197933D01*
X198425Y393898D01*
X206496Y381496D02*
Y390158D01*
X251575Y309705D02*
Y315748D01*
X251437Y309567D02*
X251575Y309705D01*
X256299Y309705D02*
Y316142D01*
X261280Y309409D02*
X261437Y309567D01*
X261280Y304587D02*
Y309409D01*
X258661Y301969D02*
X261280Y304587D01*
X258819Y295590D02*
X284449D01*
X246437Y280984D02*
Y283209D01*
X258819Y295590D01*
X281570Y286344D02*
X283696D01*
X284449Y285591D01*
X281496Y286417D02*
X281570Y286344D01*
X256594Y285264D02*
X257748Y286417D01*
X281496D01*
X256594Y281142D02*
Y285264D01*
X256437Y280984D02*
X256594Y281142D01*
X209055Y345669D02*
X216535Y338189D01*
X213701Y296870D02*
X216339D01*
X216535Y297067D01*
Y338189D01*
X246437Y309567D02*
Y311791D01*
X235433Y322795D02*
X246437Y311791D01*
X235433Y322795D02*
Y346063D01*
X224803Y300394D02*
X226378Y301969D01*
X213701Y291870D02*
X223650D01*
X224803Y293023D01*
Y300394D01*
Y303543D02*
Y323228D01*
Y303543D02*
X226378Y301969D01*
X209055Y345669D02*
Y352362D01*
X226378Y301969D02*
X258661D01*
X213228Y286673D02*
X213563Y287008D01*
X208327Y286673D02*
X213228D01*
X208268Y286614D02*
X208327Y286673D01*
X202756Y283858D02*
X203642D01*
X206398Y286614D01*
X208268D01*
X213563Y287008D02*
X213701Y286870D01*
X248031Y319291D02*
Y338976D01*
Y319291D02*
X251575Y315748D01*
X256299Y309705D02*
X256437Y309567D01*
X259842Y319685D02*
Y338976D01*
X256299Y316142D02*
X259842Y319685D01*
X278642Y338976D02*
X279528D01*
X259842Y350000D02*
X267618D01*
X278642Y338976D01*
X259842Y350000D02*
Y368110D01*
X248031Y350000D02*
Y368110D01*
Y350000D02*
X248031Y350000D01*
X188976Y352362D02*
X209055D01*
D16*
X216732Y381496D02*
D03*
X214173D02*
D03*
X211614D02*
D03*
X209055D02*
D03*
X206496D02*
D03*
D17*
X215551Y392126D02*
D03*
X207677D02*
D03*
D18*
X177953Y352362D02*
D03*
X188976D02*
D03*
X220079D02*
D03*
X209055D02*
D03*
D19*
X261437Y309567D02*
D03*
X256437D02*
D03*
X251437D02*
D03*
X246437D02*
D03*
Y280984D02*
D03*
X251437D02*
D03*
X256437D02*
D03*
X261437D02*
D03*
D20*
X216142Y248819D02*
D03*
Y257874D02*
D03*
Y266929D02*
D03*
D21*
X193307Y257874D02*
D03*
D22*
X213701Y281870D02*
D03*
Y286870D02*
D03*
Y291870D02*
D03*
Y296870D02*
D03*
X233150D02*
D03*
Y291870D02*
D03*
Y286870D02*
D03*
Y281870D02*
D03*
D23*
X279528Y245571D02*
D03*
Y254429D02*
D03*
D24*
X153544Y300098D02*
D03*
Y321949D02*
D03*
X133859Y300098D02*
D03*
Y321949D02*
D03*
D25*
X143701Y360236D02*
D03*
Y259842D02*
D03*
D26*
X202756Y283858D02*
D03*
Y294882D02*
D03*
X224803Y334252D02*
D03*
Y323228D02*
D03*
X279528Y338976D02*
D03*
Y350000D02*
D03*
X259842Y338976D02*
D03*
Y350000D02*
D03*
X248031Y338976D02*
D03*
Y350000D02*
D03*
X263779Y244488D02*
D03*
Y255512D02*
D03*
D27*
X187008Y300394D02*
D03*
Y311811D02*
D03*
X248031Y244291D02*
D03*
Y255709D02*
D03*
X232283D02*
D03*
Y244291D02*
D03*
D28*
X210433Y323425D02*
D03*
X201378D02*
D03*
D29*
X205906Y334842D02*
D03*
D30*
X172244Y319488D02*
D03*
Y302559D02*
D03*
D31*
X259842Y380512D02*
D03*
Y368110D02*
D03*
X279528Y380217D02*
D03*
Y367815D02*
D03*
X248031Y380512D02*
D03*
Y368110D02*
D03*
D53*
X284449Y265591D02*
X285433Y266575D01*
X197835Y392126D02*
X201433Y388528D01*
Y381835D02*
X201772Y381496D01*
X201433Y381835D02*
Y388528D01*
X221796Y381835D02*
Y388528D01*
X225394Y392126D01*
X221457Y381496D02*
X221796Y381835D01*
X172244Y318898D02*
X177168Y313973D01*
X180121D02*
X181693Y312402D01*
X172244Y318898D02*
Y319488D01*
X177168Y313973D02*
X180121D01*
X181693Y312402D02*
X186417D01*
X187008Y311811D01*
X216240Y257776D02*
X218799D01*
X230709Y244882D02*
Y245866D01*
Y244882D02*
X231299Y244291D01*
X218799Y257776D02*
X230709Y245866D01*
X231299Y244291D02*
X248031D01*
X230709Y238583D02*
Y244882D01*
X216142Y257874D02*
X216240Y257776D01*
X185327Y257874D02*
X193307D01*
Y247835D02*
Y257874D01*
Y247835D02*
X206890Y234252D01*
X248031Y255610D02*
X263681D01*
X279528Y350000D02*
X289476D01*
X290067Y349410D01*
X290354D01*
X232382Y255610D02*
X248031D01*
X274744Y265591D02*
X284449D01*
X263779Y255512D02*
X264665D01*
X274744Y265591D01*
X220079Y352362D02*
X229134D01*
X235433Y346063D01*
X226378Y234252D02*
X230709Y238583D01*
X206890Y234252D02*
X226378D01*
X268701Y380512D02*
X268898Y380315D01*
X259842Y380512D02*
X268701D01*
X248031D02*
X259842D01*
X210433Y323425D02*
X210531Y323327D01*
Y315059D02*
Y323327D01*
Y315059D02*
X210630Y314961D01*
X201378Y315945D02*
Y323425D01*
X203937Y310630D02*
Y313386D01*
Y310630D02*
X207874Y306693D01*
X201378Y315945D02*
X203937Y313386D01*
X249606Y243701D02*
X257087Y236221D01*
X248622Y243701D02*
X249606D01*
X257087Y236221D02*
X269882D01*
X248031Y244291D02*
X248622Y243701D01*
X269882Y236221D02*
X279232Y245571D01*
X279528D01*
X264665Y244488D02*
X274311Y254134D01*
X279232D01*
X279528Y350000D02*
Y367815D01*
X224410Y342232D02*
X224803Y341838D01*
X224410Y342232D02*
Y342520D01*
X224803Y334252D02*
Y341838D01*
X195085Y340348D02*
X200400D01*
X205906Y334842D01*
X194882Y340551D02*
X195085Y340348D01*
X227953Y259055D02*
X231299Y255709D01*
X232283D01*
X263681Y255610D02*
X263779Y255512D01*
X232283Y255709D02*
X232382Y255610D01*
X263779Y244488D02*
X264665D01*
X279232Y254134D02*
X279528Y254429D01*
D54*
X206496Y390158D02*
X207677Y391339D01*
X201772Y385433D02*
X206496Y390158D01*
X207677Y391339D02*
Y392126D01*
X201772Y381496D02*
Y385433D01*
X221457Y381496D02*
Y385433D01*
X215551Y391339D02*
Y392126D01*
Y391339D02*
X221457Y385433D01*
X207677Y392126D02*
X215551D01*
D55*
X211614Y374016D02*
X217520Y368110D01*
X211614Y374016D02*
Y381496D01*
X214173Y377362D02*
Y381496D01*
Y377362D02*
X220276Y371260D01*
X216732Y379626D02*
X220374Y375984D01*
X216732Y379626D02*
Y381496D01*
X217520Y368110D02*
X248031D01*
X248031Y368110D01*
X220374Y375984D02*
X235236D01*
X220276Y371260D02*
X256594D01*
X235236Y375984D02*
X239173Y379921D01*
Y384408D01*
X242561Y387795D01*
X271850D01*
X256594Y371260D02*
X259744Y368110D01*
X259842D01*
X279429Y380217D02*
X279528D01*
X271850Y387795D02*
X279429Y380217D01*
D56*
X215748Y249213D02*
X216142Y248819D01*
X205512Y249213D02*
X215748D01*
X205512D02*
Y268110D01*
X197638Y300319D02*
Y310624D01*
X187205Y312008D02*
X196254D01*
X197638Y310624D01*
X187008Y311811D02*
X187205Y312008D01*
X195318Y297999D02*
X197638Y300319D01*
X195318Y278304D02*
Y297999D01*
Y278304D02*
X205512Y268110D01*
X208886Y291870D02*
X213701D01*
X208748Y291732D02*
X208886Y291870D01*
X202756Y294882D02*
X203642D01*
X206791Y291732D01*
X208748D01*
D57*
X261437Y274980D02*
X270827Y265591D01*
X274744D01*
X261437Y274980D02*
Y280984D01*
D58*
X284449Y265591D02*
D03*
D59*
Y275590D02*
D03*
Y285591D02*
D03*
Y295590D02*
D03*
D60*
X201772Y381496D02*
D03*
X221457D02*
D03*
D61*
X188976Y238189D02*
D03*
Y321850D02*
D03*
D62*
X185327Y257874D02*
D03*
X290354Y349410D02*
D03*
X171260Y259842D02*
D03*
X168307Y360236D02*
D03*
X235433Y346063D02*
D03*
X268898Y380315D02*
D03*
X210630Y314961D02*
D03*
X207874Y306693D02*
D03*
X224410Y342520D02*
D03*
X194882Y340551D02*
D03*
M02*
