G04*
G04 #@! TF.GenerationSoftware,Altium Limited,Altium Designer,21.0.9 (235)*
G04*
G04 Layer_Physical_Order=2*
G04 Layer_Color=16711680*
%FSLAX25Y25*%
%MOIN*%
G70*
G04*
G04 #@! TF.SameCoordinates,3F70F9B8-B395-4C3D-AA67-83CA4ED45D7C*
G04*
G04*
G04 #@! TF.FilePolarity,Positive*
G04*
G01*
G75*
%ADD25R,0.31496X0.59055*%
%ADD54C,0.03937*%
%ADD59R,0.05906X0.05906*%
%ADD60C,0.05906*%
%ADD61C,0.05709*%
%ADD62C,0.03937*%
%ADD63C,0.05000*%
G36*
X290354Y388779D02*
Y352710D01*
X289920D01*
X289081Y352485D01*
X288328Y352050D01*
X287714Y351436D01*
X287279Y350683D01*
X287133Y350137D01*
X246481Y309485D01*
X209637D01*
X209148Y309768D01*
X208309Y309993D01*
X207440D01*
X206600Y309768D01*
X205848Y309334D01*
X205233Y308719D01*
X204799Y307967D01*
X204574Y307127D01*
Y306259D01*
X204799Y305419D01*
X205233Y304667D01*
X205848Y304052D01*
X206600Y303618D01*
X207440Y303393D01*
X208309D01*
X209148Y303618D01*
X209637Y303901D01*
X244845D01*
Y297638D01*
X244940Y296915D01*
X245219Y296242D01*
X245663Y295663D01*
X277553Y263773D01*
X277553Y263773D01*
X278131Y263330D01*
X278805Y263051D01*
X279528Y262956D01*
X279528Y262956D01*
X280696D01*
Y261838D01*
X288202D01*
Y269343D01*
X280696D01*
Y269236D01*
X280196Y269028D01*
X250430Y298795D01*
Y305536D01*
X289892Y344999D01*
X290354Y344807D01*
Y231299D01*
X285433Y226378D01*
X201772D01*
X196850Y231299D01*
Y241142D01*
X191929Y246063D01*
X187008D01*
X182087Y250984D01*
Y310039D01*
X187008Y314961D01*
X191929D01*
X196850Y319882D01*
Y324803D01*
X191929Y329724D01*
X187008D01*
X182087Y334646D01*
Y383858D01*
X191929Y393701D01*
X195449D01*
X195611Y393504D01*
Y393126D01*
X197835D01*
X200059D01*
Y393504D01*
X200220Y393701D01*
X223008D01*
X223170Y393504D01*
Y393126D01*
X225394D01*
X227618D01*
Y393504D01*
X227779Y393701D01*
X285433D01*
X290354Y388779D01*
D02*
G37*
G36*
X168307Y393701D02*
X178150Y383858D01*
X178150Y313976D01*
X176181Y312008D01*
X127953D01*
X123031Y316929D01*
Y388779D01*
X127953Y393701D01*
X168307Y393701D01*
D02*
G37*
G36*
X178150Y308071D02*
X178150Y241142D01*
X163386Y226378D01*
X127953Y226378D01*
X123031Y231299D01*
Y305118D01*
X127953Y310039D01*
X176181D01*
X178150Y308071D01*
D02*
G37*
%LPC*%
G36*
X224394Y391126D02*
X223170D01*
Y390748D01*
X223339Y389897D01*
X223821Y389176D01*
X224394Y388793D01*
Y391126D01*
D02*
G37*
G36*
X196835Y391126D02*
X195611D01*
Y390748D01*
X195780Y389897D01*
X196262Y389176D01*
X196835Y388793D01*
Y391126D01*
D02*
G37*
G36*
X200059D02*
X198835D01*
Y388793D01*
X199407Y389176D01*
X199889Y389897D01*
X200059Y390748D01*
Y391126D01*
D02*
G37*
G36*
X227618Y391126D02*
X226394D01*
Y388793D01*
X226966Y389176D01*
X227448Y389897D01*
X227618Y390748D01*
Y391126D01*
D02*
G37*
G36*
X222457Y385218D02*
Y382496D01*
X225179D01*
X225048Y382984D01*
X224541Y383863D01*
X223823Y384580D01*
X222944Y385088D01*
X222457Y385218D01*
D02*
G37*
G36*
X220457D02*
X219969Y385088D01*
X219090Y384580D01*
X218372Y383863D01*
X217865Y382984D01*
X217734Y382496D01*
X220457D01*
Y385218D01*
D02*
G37*
G36*
X202772D02*
Y382496D01*
X205494D01*
X205363Y382984D01*
X204856Y383863D01*
X204138Y384580D01*
X203259Y385088D01*
X202772Y385218D01*
D02*
G37*
G36*
X200772D02*
X200284Y385088D01*
X199405Y384580D01*
X198687Y383863D01*
X198180Y382984D01*
X198049Y382496D01*
X200772D01*
Y385218D01*
D02*
G37*
G36*
X225179Y380496D02*
X222457D01*
Y377774D01*
X222944Y377904D01*
X223823Y378412D01*
X224541Y379129D01*
X225048Y380008D01*
X225179Y380496D01*
D02*
G37*
G36*
X220457D02*
X217734D01*
X217865Y380008D01*
X218372Y379129D01*
X219090Y378412D01*
X219969Y377904D01*
X220457Y377774D01*
Y380496D01*
D02*
G37*
G36*
X205494D02*
X202772D01*
Y377774D01*
X203259Y377904D01*
X204138Y378412D01*
X204856Y379129D01*
X205363Y380008D01*
X205494Y380496D01*
D02*
G37*
G36*
X200772D02*
X198049D01*
X198180Y380008D01*
X198687Y379129D01*
X199405Y378412D01*
X200284Y377904D01*
X200772Y377774D01*
Y380496D01*
D02*
G37*
G36*
X224844Y345820D02*
X223975D01*
X223136Y345595D01*
X222383Y345160D01*
X221769Y344546D01*
X221334Y343793D01*
X221293Y343640D01*
X220997Y343344D01*
X196645D01*
X196156Y343626D01*
X195316Y343851D01*
X194447D01*
X193608Y343626D01*
X192856Y343192D01*
X192241Y342577D01*
X191807Y341825D01*
X191582Y340986D01*
Y340117D01*
X191807Y339277D01*
X192241Y338525D01*
X192856Y337911D01*
X193608Y337476D01*
X194447Y337251D01*
X195316D01*
X196156Y337476D01*
X196645Y337759D01*
X222153D01*
X222876Y337854D01*
X223550Y338133D01*
X224128Y338577D01*
X224771Y339220D01*
X224844D01*
X225683Y339445D01*
X226436Y339879D01*
X227050Y340493D01*
X227485Y341246D01*
X227710Y342085D01*
Y342954D01*
X227485Y343793D01*
X227050Y344546D01*
X226436Y345160D01*
X225683Y345595D01*
X224844Y345820D01*
D02*
G37*
G36*
X284943Y299343D02*
X283955D01*
X283000Y299088D01*
X282145Y298593D01*
X281446Y297895D01*
X280952Y297039D01*
X280696Y296085D01*
Y295096D01*
X280952Y294142D01*
X281446Y293286D01*
X282145Y292588D01*
X283000Y292094D01*
X283955Y291838D01*
X284943D01*
X285897Y292094D01*
X286753Y292588D01*
X287452Y293286D01*
X287946Y294142D01*
X288202Y295096D01*
Y296085D01*
X287946Y297039D01*
X287452Y297895D01*
X286753Y298593D01*
X285897Y299088D01*
X284943Y299343D01*
D02*
G37*
G36*
Y289343D02*
X283955D01*
X283000Y289088D01*
X282145Y288594D01*
X281446Y287895D01*
X280952Y287039D01*
X280696Y286085D01*
Y285097D01*
X280952Y284142D01*
X281446Y283286D01*
X282145Y282588D01*
X283000Y282094D01*
X283955Y281838D01*
X284943D01*
X285897Y282094D01*
X286753Y282588D01*
X287452Y283286D01*
X287946Y284142D01*
X288202Y285097D01*
Y286085D01*
X287946Y287039D01*
X287452Y287895D01*
X286753Y288594D01*
X285897Y289088D01*
X284943Y289343D01*
D02*
G37*
G36*
X285449Y279415D02*
Y276591D01*
X288273D01*
X288132Y277116D01*
X287612Y278018D01*
X286876Y278753D01*
X285975Y279274D01*
X285449Y279415D01*
D02*
G37*
G36*
X283449D02*
X282923Y279274D01*
X282022Y278753D01*
X281286Y278018D01*
X280765Y277116D01*
X280625Y276591D01*
X283449D01*
Y279415D01*
D02*
G37*
G36*
X288273Y274591D02*
X285449D01*
Y271766D01*
X285975Y271907D01*
X286876Y272428D01*
X287612Y273164D01*
X288132Y274065D01*
X288273Y274591D01*
D02*
G37*
G36*
X283449D02*
X280625D01*
X280765Y274065D01*
X281286Y273164D01*
X282022Y272428D01*
X282923Y271907D01*
X283449Y271766D01*
Y274591D01*
D02*
G37*
G36*
X168807Y363726D02*
Y360736D01*
X171797D01*
X171569Y361587D01*
X171108Y362385D01*
X170456Y363037D01*
X169658Y363498D01*
X168807Y363726D01*
D02*
G37*
G36*
X167807D02*
X166956Y363498D01*
X166158Y363037D01*
X165506Y362385D01*
X165046Y361587D01*
X164818Y360736D01*
X167807D01*
Y363726D01*
D02*
G37*
G36*
X160449Y390764D02*
X144201D01*
Y360736D01*
X160449D01*
Y390764D01*
D02*
G37*
G36*
X143201D02*
X126953D01*
Y360736D01*
X143201D01*
Y390764D01*
D02*
G37*
G36*
X171797Y359736D02*
X168807D01*
Y356747D01*
X169658Y356975D01*
X170456Y357435D01*
X171108Y358087D01*
X171569Y358885D01*
X171797Y359736D01*
D02*
G37*
G36*
X167807D02*
X164818D01*
X165046Y358885D01*
X165506Y358087D01*
X166158Y357435D01*
X166956Y356975D01*
X167807Y356747D01*
Y359736D01*
D02*
G37*
G36*
X160449D02*
X144201D01*
Y329709D01*
X160449D01*
Y359736D01*
D02*
G37*
G36*
X143201D02*
X126953D01*
Y329709D01*
X143201D01*
Y359736D01*
D02*
G37*
G36*
X171760Y263332D02*
Y260343D01*
X174749D01*
X174521Y261193D01*
X174060Y261992D01*
X173409Y262643D01*
X172611Y263104D01*
X171760Y263332D01*
D02*
G37*
G36*
X170760D02*
X169909Y263104D01*
X169111Y262643D01*
X168459Y261992D01*
X167998Y261193D01*
X167770Y260343D01*
X170760D01*
Y263332D01*
D02*
G37*
G36*
X160449Y290370D02*
X144201D01*
Y260343D01*
X160449D01*
Y290370D01*
D02*
G37*
G36*
X143201D02*
X126953D01*
Y260343D01*
X143201D01*
Y290370D01*
D02*
G37*
G36*
X174749Y259343D02*
X171760D01*
Y256353D01*
X172611Y256581D01*
X173409Y257042D01*
X174060Y257694D01*
X174521Y258492D01*
X174749Y259343D01*
D02*
G37*
G36*
X170760D02*
X167770D01*
X167998Y258492D01*
X168459Y257694D01*
X169111Y257042D01*
X169909Y256581D01*
X170760Y256353D01*
Y259343D01*
D02*
G37*
G36*
X160449D02*
X144201D01*
Y229315D01*
X160449D01*
Y259343D01*
D02*
G37*
G36*
X143201D02*
X126953D01*
Y229315D01*
X143201D01*
Y259343D01*
D02*
G37*
%LPD*%
D25*
X143701Y360236D02*
D03*
Y259842D02*
D03*
D54*
X284291Y265748D02*
X284449Y265591D01*
X279528Y265748D02*
X284291D01*
X247638Y297638D02*
Y306693D01*
Y297638D02*
X279528Y265748D01*
X207874Y306693D02*
X247638D01*
X290354Y349410D01*
X222153Y340551D02*
X224122Y342520D01*
X224410D01*
X194882Y340551D02*
X222153D01*
D59*
X284449Y265591D02*
D03*
D60*
Y275590D02*
D03*
Y285591D02*
D03*
Y295590D02*
D03*
D61*
X201772Y381496D02*
D03*
X221457D02*
D03*
D62*
X188976Y238189D02*
D03*
Y321850D02*
D03*
D63*
X185327Y257874D02*
D03*
X290354Y349410D02*
D03*
X171260Y259842D02*
D03*
X168307Y360236D02*
D03*
X235433Y346063D02*
D03*
X268898Y380315D02*
D03*
X210630Y314961D02*
D03*
X207874Y306693D02*
D03*
X224410Y342520D02*
D03*
X194882Y340551D02*
D03*
M02*
