G04*
G04 #@! TF.GenerationSoftware,Altium Limited,Altium Designer,21.0.9 (235)*
G04*
G04 Layer_Color=255*
%FSLAX25Y25*%
%MOIN*%
G70*
G04*
G04 #@! TF.SameCoordinates,E9F36055-DDC9-4CB2-81F6-941DF85676E6*
G04*
G04*
G04 #@! TF.FilePolarity,Positive*
G04*
G01*
G75*
%ADD16R,0.01575X0.05315*%
%ADD17R,0.05906X0.07480*%
%ADD18R,0.04724X0.06496*%
G04:AMPARAMS|DCode=19|XSize=67.32mil|YSize=22.84mil|CornerRadius=2.85mil|HoleSize=0mil|Usage=FLASHONLY|Rotation=270.000|XOffset=0mil|YOffset=0mil|HoleType=Round|Shape=RoundedRectangle|*
%AMROUNDEDRECTD19*
21,1,0.06732,0.01713,0,0,270.0*
21,1,0.06161,0.02284,0,0,270.0*
1,1,0.00571,-0.00856,-0.03081*
1,1,0.00571,-0.00856,0.03081*
1,1,0.00571,0.00856,0.03081*
1,1,0.00571,0.00856,-0.03081*
%
%ADD19ROUNDEDRECTD19*%
%ADD20R,0.08465X0.03740*%
%ADD21R,0.08465X0.12795*%
G04:AMPARAMS|DCode=22|XSize=77.56mil|YSize=23.62mil|CornerRadius=2.95mil|HoleSize=0mil|Usage=FLASHONLY|Rotation=180.000|XOffset=0mil|YOffset=0mil|HoleType=Round|Shape=RoundedRectangle|*
%AMROUNDEDRECTD22*
21,1,0.07756,0.01772,0,0,180.0*
21,1,0.07165,0.02362,0,0,180.0*
1,1,0.00591,-0.03583,0.00886*
1,1,0.00591,0.03583,0.00886*
1,1,0.00591,0.03583,-0.00886*
1,1,0.00591,-0.03583,-0.00886*
%
%ADD22ROUNDEDRECTD22*%
%ADD23R,0.05118X0.04528*%
%ADD24R,0.12795X0.06496*%
%ADD25R,0.31496X0.59055*%
%ADD26R,0.06496X0.04724*%
%ADD27R,0.07087X0.05118*%
%ADD28R,0.04331X0.06299*%
%ADD29R,0.06299X0.06299*%
%ADD30R,0.08465X0.09646*%
%ADD31R,0.03740X0.03543*%
%ADD58R,0.05906X0.05906*%
%ADD59C,0.05906*%
%ADD60C,0.05709*%
%ADD61C,0.03937*%
D16*
X216732Y381496D02*
D03*
X214173D02*
D03*
X211614D02*
D03*
X209055D02*
D03*
X206496D02*
D03*
D17*
X215551Y392126D02*
D03*
X207677D02*
D03*
D18*
X177953Y352362D02*
D03*
X188976D02*
D03*
X220079D02*
D03*
X209055D02*
D03*
D19*
X261437Y309567D02*
D03*
X256437D02*
D03*
X251437D02*
D03*
X246437D02*
D03*
Y280984D02*
D03*
X251437D02*
D03*
X256437D02*
D03*
X261437D02*
D03*
D20*
X216142Y248819D02*
D03*
Y257874D02*
D03*
Y266929D02*
D03*
D21*
X193307Y257874D02*
D03*
D22*
X213701Y281870D02*
D03*
Y286870D02*
D03*
Y291870D02*
D03*
Y296870D02*
D03*
X233150D02*
D03*
Y291870D02*
D03*
Y286870D02*
D03*
Y281870D02*
D03*
D23*
X279528Y245571D02*
D03*
Y254429D02*
D03*
D24*
X153544Y300098D02*
D03*
Y321949D02*
D03*
X133859Y300098D02*
D03*
Y321949D02*
D03*
D25*
X143701Y360236D02*
D03*
Y259842D02*
D03*
D26*
X202756Y283858D02*
D03*
Y294882D02*
D03*
X224803Y334252D02*
D03*
Y323228D02*
D03*
X279528Y338976D02*
D03*
Y350000D02*
D03*
X259842Y338976D02*
D03*
Y350000D02*
D03*
X248031Y338976D02*
D03*
Y350000D02*
D03*
X263779Y244488D02*
D03*
Y255512D02*
D03*
D27*
X187008Y300394D02*
D03*
Y311811D02*
D03*
X248031Y244291D02*
D03*
Y255709D02*
D03*
X232283D02*
D03*
Y244291D02*
D03*
D28*
X210433Y323425D02*
D03*
X201378D02*
D03*
D29*
X205906Y334842D02*
D03*
D30*
X172244Y319488D02*
D03*
Y302559D02*
D03*
D31*
X259842Y380512D02*
D03*
Y368110D02*
D03*
X279528Y380217D02*
D03*
Y367815D02*
D03*
X248031Y380512D02*
D03*
Y368110D02*
D03*
D58*
X284449Y265591D02*
D03*
D59*
Y275590D02*
D03*
Y285591D02*
D03*
Y295590D02*
D03*
D60*
X201772Y381496D02*
D03*
X221457D02*
D03*
D61*
X188976Y238189D02*
D03*
Y321850D02*
D03*
M02*
