G04*
G04 #@! TF.GenerationSoftware,Altium Limited,Altium Designer,21.8.1 (53)*
G04*
G04 Layer_Color=8421504*
%FSLAX44Y44*%
%MOMM*%
G71*
G04*
G04 #@! TF.SameCoordinates,FEF93E2C-DD4C-44DC-82AE-5B634F70B55F*
G04*
G04*
G04 #@! TF.FilePolarity,Positive*
G04*
G01*
G75*
%ADD18R,1.9000X4.1500*%
%ADD19R,6.3500X18.8000*%
%ADD20R,4.0000X4.5000*%
%ADD21R,3.1600X0.9100*%
%ADD22R,10.4100X10.8000*%
%ADD23R,2.0000X7.0000*%
%ADD24R,2.9400X1.1000*%
%ADD25R,7.0000X10.8000*%
%ADD26R,2.6600X1.0700*%
G04:AMPARAMS|DCode=27|XSize=7.5mm|YSize=7.5mm|CornerRadius=1.875mm|HoleSize=0mm|Usage=FLASHONLY|Rotation=90.000|XOffset=0mm|YOffset=0mm|HoleType=Round|Shape=RoundedRectangle|*
%AMROUNDEDRECTD27*
21,1,7.5000,3.7500,0,0,90.0*
21,1,3.7500,7.5000,0,0,90.0*
1,1,3.7500,1.8750,1.8750*
1,1,3.7500,1.8750,-1.8750*
1,1,3.7500,-1.8750,-1.8750*
1,1,3.7500,-1.8750,1.8750*
%
%ADD27ROUNDEDRECTD27*%
%ADD28R,1.6000X3.5000*%
%ADD29R,3.3000X2.8500*%
%ADD30R,1.5000X0.9000*%
%ADD31R,1.0000X0.9500*%
G36*
X254600Y731750D02*
X240000D01*
Y744850D01*
X254600D01*
Y731750D01*
D02*
G37*
G36*
X234300D02*
X219700D01*
Y744850D01*
X234300D01*
Y731750D01*
D02*
G37*
G36*
X214000D02*
X199400D01*
Y744850D01*
X214000D01*
Y731750D01*
D02*
G37*
G36*
X254600Y712950D02*
X240000D01*
Y726050D01*
X254600D01*
Y712950D01*
D02*
G37*
G36*
X234300D02*
X219700D01*
Y726050D01*
X234300D01*
Y712950D01*
D02*
G37*
G36*
X214000D02*
X199400D01*
Y726050D01*
X214000D01*
Y712950D01*
D02*
G37*
G36*
X254600Y694150D02*
X240000D01*
Y707250D01*
X254600D01*
Y694150D01*
D02*
G37*
G36*
X234300D02*
X219700D01*
Y707250D01*
X234300D01*
Y694150D01*
D02*
G37*
G36*
X214000D02*
X199400D01*
Y707250D01*
X214000D01*
Y694150D01*
D02*
G37*
D18*
X177000Y572000D02*
D03*
Y641500D02*
D03*
X477000Y684750D02*
D03*
Y754250D02*
D03*
D19*
X475000Y135000D02*
D03*
X295000D02*
D03*
D20*
X402000Y719500D02*
D03*
X292000D02*
D03*
D21*
X299000Y597600D02*
D03*
Y584900D02*
D03*
Y572200D02*
D03*
Y559500D02*
D03*
Y546800D02*
D03*
Y534100D02*
D03*
Y521400D02*
D03*
D22*
X391750Y559500D02*
D03*
D23*
X590000Y295000D02*
D03*
Y185000D02*
D03*
D24*
X147000Y696500D02*
D03*
Y742220D02*
D03*
D25*
X410000Y307500D02*
D03*
D26*
X303000D02*
D03*
Y290500D02*
D03*
Y324500D02*
D03*
Y273500D02*
D03*
Y341500D02*
D03*
D27*
X1290000Y577500D02*
D03*
Y727500D02*
D03*
Y327500D02*
D03*
Y477500D02*
D03*
Y77500D02*
D03*
Y227500D02*
D03*
D28*
X175000Y302000D02*
D03*
Y358000D02*
D03*
D29*
X215000Y147000D02*
D03*
Y221000D02*
D03*
D30*
X237000Y610500D02*
D03*
Y588500D02*
D03*
D31*
X309500Y635000D02*
D03*
X325500D02*
D03*
M02*
