G04*
G04 #@! TF.GenerationSoftware,Altium Limited,Altium Designer,21.8.1 (53)*
G04*
G04 Layer_Color=32896*
%FSLAX44Y44*%
%MOMM*%
G71*
G04*
G04 #@! TF.SameCoordinates,FEF93E2C-DD4C-44DC-82AE-5B634F70B55F*
G04*
G04*
G04 #@! TF.FilePolarity,Positive*
G04*
G01*
G75*
%ADD14C,0.3000*%
%ADD15C,0.1270*%
D14*
X1232005Y747981D02*
Y757978D01*
X1247000D01*
Y747981D01*
X1239502Y757978D02*
Y752980D01*
X1234504Y732986D02*
X1232005Y735485D01*
Y740484D01*
X1234504Y742983D01*
X1237003D01*
X1239502Y740484D01*
Y735485D01*
X1242002Y732986D01*
X1244501D01*
X1247000Y735485D01*
Y740484D01*
X1244501Y742983D01*
X1234504Y717991D02*
X1232005Y720490D01*
Y725489D01*
X1234504Y727988D01*
X1244501D01*
X1247000Y725489D01*
Y720490D01*
X1244501Y717991D01*
X1232005Y702996D02*
X1234504Y707994D01*
X1239502Y712993D01*
X1244501D01*
X1247000Y710493D01*
Y705495D01*
X1244501Y702996D01*
X1242002D01*
X1239502Y705495D01*
Y712993D01*
Y697998D02*
Y688001D01*
X1232005Y97981D02*
Y107978D01*
X1247000D01*
Y97981D01*
X1239502Y107978D02*
Y102980D01*
X1234504Y82986D02*
X1232005Y85485D01*
Y90484D01*
X1234504Y92983D01*
X1237003D01*
X1239502Y90484D01*
Y85485D01*
X1242002Y82986D01*
X1244501D01*
X1247000Y85485D01*
Y90484D01*
X1244501Y92983D01*
X1234504Y67991D02*
X1232005Y70490D01*
Y75489D01*
X1234504Y77988D01*
X1244501D01*
X1247000Y75489D01*
Y70490D01*
X1244501Y67991D01*
X1247000Y55495D02*
X1232005D01*
X1239502Y62993D01*
Y52996D01*
Y47998D02*
Y38001D01*
X1234504Y42999D02*
X1244501D01*
X1232005Y247981D02*
Y257978D01*
X1247000D01*
Y247981D01*
X1239502Y257978D02*
Y252980D01*
X1234504Y232986D02*
X1232005Y235485D01*
Y240484D01*
X1234504Y242983D01*
X1237003D01*
X1239502Y240484D01*
Y235485D01*
X1242002Y232986D01*
X1244501D01*
X1247000Y235485D01*
Y240484D01*
X1244501Y242983D01*
X1234504Y217991D02*
X1232005Y220490D01*
Y225489D01*
X1234504Y227988D01*
X1244501D01*
X1247000Y225489D01*
Y220490D01*
X1244501Y217991D01*
X1247000Y205495D02*
X1232005D01*
X1239502Y212993D01*
Y202996D01*
Y197998D02*
Y188001D01*
X1232005Y497981D02*
Y507978D01*
X1247000D01*
Y497981D01*
X1239502Y507978D02*
Y502980D01*
X1234504Y482986D02*
X1232005Y485485D01*
Y490484D01*
X1234504Y492983D01*
X1237003D01*
X1239502Y490484D01*
Y485485D01*
X1242002Y482986D01*
X1244501D01*
X1247000Y485485D01*
Y490484D01*
X1244501Y492983D01*
X1234504Y467991D02*
X1232005Y470490D01*
Y475489D01*
X1234504Y477988D01*
X1244501D01*
X1247000Y475489D01*
Y470490D01*
X1244501Y467991D01*
X1232005Y452996D02*
Y462993D01*
X1239502D01*
X1237003Y457994D01*
Y455495D01*
X1239502Y452996D01*
X1244501D01*
X1247000Y455495D01*
Y460494D01*
X1244501Y462993D01*
X1239502Y447998D02*
Y438001D01*
X1232005Y347981D02*
Y357978D01*
X1247000D01*
Y347981D01*
X1239502Y357978D02*
Y352980D01*
X1234504Y332986D02*
X1232005Y335485D01*
Y340484D01*
X1234504Y342983D01*
X1237003D01*
X1239502Y340484D01*
Y335485D01*
X1242002Y332986D01*
X1244501D01*
X1247000Y335485D01*
Y340484D01*
X1244501Y342983D01*
X1234504Y317991D02*
X1232005Y320490D01*
Y325489D01*
X1234504Y327988D01*
X1244501D01*
X1247000Y325489D01*
Y320490D01*
X1244501Y317991D01*
X1232005Y302996D02*
Y312993D01*
X1239502D01*
X1237003Y307994D01*
Y305495D01*
X1239502Y302996D01*
X1244501D01*
X1247000Y305495D01*
Y310494D01*
X1244501Y312993D01*
X1239502Y297997D02*
Y288001D01*
X1234504Y292999D02*
X1244501D01*
X1232005Y597981D02*
Y607978D01*
X1247000D01*
Y597981D01*
X1239502Y607978D02*
Y602980D01*
X1234504Y582986D02*
X1232005Y585485D01*
Y590484D01*
X1234504Y592983D01*
X1237003D01*
X1239502Y590484D01*
Y585485D01*
X1242002Y582986D01*
X1244501D01*
X1247000Y585485D01*
Y590484D01*
X1244501Y592983D01*
X1234504Y567991D02*
X1232005Y570490D01*
Y575489D01*
X1234504Y577988D01*
X1244501D01*
X1247000Y575489D01*
Y570490D01*
X1244501Y567991D01*
X1232005Y552996D02*
X1234504Y557994D01*
X1239502Y562993D01*
X1244501D01*
X1247000Y560494D01*
Y555495D01*
X1244501Y552996D01*
X1242002D01*
X1239502Y555495D01*
Y562993D01*
Y547998D02*
Y538001D01*
X1234504Y542999D02*
X1244501D01*
D15*
X171850Y686000D02*
X233850D01*
M02*
