G04*
G04 #@! TF.GenerationSoftware,Altium Limited,Altium Designer,21.8.1 (53)*
G04*
G04 Layer_Physical_Order=1*
G04 Layer_Color=255*
%FSLAX44Y44*%
%MOMM*%
G71*
G04*
G04 #@! TF.SameCoordinates,729BE4B4-5849-4A10-A7F1-CC33B50161C2*
G04*
G04*
G04 #@! TF.FilePolarity,Positive*
G04*
G01*
G75*
%ADD17R,1.9000X4.1500*%
%ADD18R,6.3500X18.8000*%
%ADD19R,4.0000X4.5000*%
%ADD20R,10.4100X10.8000*%
%ADD21R,3.1600X0.9100*%
%ADD22R,2.0000X7.0000*%
%ADD23R,2.9400X1.1000*%
%ADD24R,2.6600X1.0700*%
%ADD25R,7.0000X10.8000*%
G04:AMPARAMS|DCode=26|XSize=7.5mm|YSize=7.5mm|CornerRadius=1.875mm|HoleSize=0mm|Usage=FLASHONLY|Rotation=270.000|XOffset=0mm|YOffset=0mm|HoleType=Round|Shape=RoundedRectangle|*
%AMROUNDEDRECTD26*
21,1,7.5000,3.7500,0,0,270.0*
21,1,3.7500,7.5000,0,0,270.0*
1,1,3.7500,-1.8750,-1.8750*
1,1,3.7500,-1.8750,1.8750*
1,1,3.7500,1.8750,1.8750*
1,1,3.7500,1.8750,-1.8750*
%
%ADD26ROUNDEDRECTD26*%
%ADD27R,1.6000X3.5000*%
%ADD28R,3.3000X2.8500*%
%ADD29R,0.9000X1.5000*%
%ADD30R,1.5000X0.9000*%
%ADD53R,6.0900X5.6300*%
%ADD54C,0.9000*%
%ADD55C,2.0000*%
%ADD56R,2.0000X2.0000*%
%ADD57R,5.5160X5.5160*%
%ADD58C,5.5160*%
%ADD59C,5.0000*%
%ADD60C,3.0000*%
%ADD61C,1.0000*%
%ADD62C,1.5000*%
G36*
X1340000Y770000D02*
Y30000D01*
X1340000D01*
X1320000Y10000D01*
X30000D01*
X10000Y30000D01*
Y770000D01*
X30000Y790000D01*
X1320000D01*
X1340000Y770000D01*
D02*
G37*
%LPC*%
G36*
X1320000Y773059D02*
X1320000Y773059D01*
X1070000D01*
X1070000Y773059D01*
X1068829Y772826D01*
X1067837Y772163D01*
X1037837Y742163D01*
X1037174Y741171D01*
X1036941Y740000D01*
X1036941Y740000D01*
Y641267D01*
X1018733Y623059D01*
X1009044D01*
X1008558Y624232D01*
X1032163Y647837D01*
X1032826Y648829D01*
X1033059Y650000D01*
X1033059Y650000D01*
Y710000D01*
X1032826Y711171D01*
X1032163Y712163D01*
X1032163Y712163D01*
X1017163Y727163D01*
X1016171Y727826D01*
X1015000Y728059D01*
X1015000Y728059D01*
X1000000D01*
X998829Y727826D01*
X997837Y727163D01*
X997837Y727163D01*
X987837Y717163D01*
X987174Y716171D01*
X986941Y715000D01*
X986941Y715000D01*
Y683059D01*
X898059D01*
Y715000D01*
X897826Y716171D01*
X897163Y717163D01*
X897163Y717163D01*
X887163Y727163D01*
X886171Y727826D01*
X885000Y728059D01*
X885000Y728059D01*
X870000D01*
X868829Y727826D01*
X867837Y727163D01*
X867837Y727163D01*
X857837Y717163D01*
X857174Y716171D01*
X856941Y715000D01*
X856941Y715000D01*
Y683059D01*
X768059D01*
Y715000D01*
X767826Y716171D01*
X767163Y717163D01*
X767163Y717163D01*
X757163Y727163D01*
X756171Y727826D01*
X755000Y728059D01*
X755000Y728059D01*
X740000D01*
X738829Y727826D01*
X737837Y727163D01*
X737837Y727163D01*
X727837Y717163D01*
X727174Y716171D01*
X726941Y715000D01*
X726941Y715000D01*
Y683059D01*
X638059D01*
Y715000D01*
X637826Y716171D01*
X637163Y717163D01*
X637163Y717163D01*
X627163Y727163D01*
X626171Y727826D01*
X625000Y728059D01*
X625000Y728059D01*
X610000D01*
X608829Y727826D01*
X607837Y727163D01*
X607837Y727163D01*
X597837Y717163D01*
X597174Y716171D01*
X596941Y715000D01*
X596941Y715000D01*
Y683059D01*
X561267D01*
X553059Y691267D01*
Y700000D01*
X552826Y701171D01*
X552163Y702163D01*
X552163Y702163D01*
X542163Y712163D01*
X541171Y712826D01*
X540000Y713059D01*
X540000Y713059D01*
X441267D01*
X433059Y721267D01*
Y740000D01*
X432826Y741171D01*
X432163Y742163D01*
X432163Y742163D01*
X422163Y752163D01*
X421171Y752826D01*
X420000Y753059D01*
X420000Y753059D01*
X380000D01*
X378829Y752826D01*
X377837Y752163D01*
X377837Y752163D01*
X367837Y742163D01*
X367174Y741171D01*
X366941Y740000D01*
X366941Y740000D01*
Y662639D01*
X358302Y654000D01*
X318059D01*
Y745000D01*
X317826Y746171D01*
X317163Y747163D01*
X317163Y747163D01*
X302163Y762163D01*
X301171Y762826D01*
X300000Y763059D01*
X300000Y763059D01*
X200000D01*
X200000Y763059D01*
X198829Y762826D01*
X197837Y762163D01*
X177837Y742163D01*
X177174Y741171D01*
X176941Y740000D01*
X176941Y740000D01*
X176941Y700000D01*
X177174Y698829D01*
X177837Y697837D01*
X197837Y677837D01*
X198829Y677174D01*
X200000Y676941D01*
X200000Y676941D01*
X218733D01*
X256941Y638733D01*
Y605000D01*
X257075Y604329D01*
X256278Y603059D01*
X50000Y603059D01*
X48829Y602826D01*
X47837Y602163D01*
X47837Y602163D01*
X27837Y582163D01*
X27174Y581171D01*
X26941Y580000D01*
X26941Y580000D01*
X26941Y420000D01*
X27174Y418829D01*
X27837Y417837D01*
X27837Y417837D01*
X36544Y409130D01*
X37536Y408467D01*
X38707Y408234D01*
X39420Y407649D01*
Y405420D01*
X41082D01*
X42235Y404707D01*
X42382Y403963D01*
X42467Y403536D01*
X43130Y402544D01*
X47837Y397837D01*
X48829Y397174D01*
X50000Y396941D01*
X50000Y396941D01*
X108733Y396941D01*
X126941Y378733D01*
Y360000D01*
X127174Y358829D01*
X127837Y357837D01*
X127837Y357837D01*
X151837Y333837D01*
X151837Y333837D01*
X152829Y333174D01*
X154000Y332941D01*
X154000Y332941D01*
X226819Y332941D01*
X227345Y331671D01*
X207837Y312163D01*
X207174Y311171D01*
X206941Y310000D01*
X206941Y310000D01*
Y261267D01*
X197837Y252163D01*
X197837Y252163D01*
X177837Y232163D01*
X177174Y231171D01*
X176941Y230000D01*
X176941Y230000D01*
Y200000D01*
X177174Y198829D01*
X177837Y197837D01*
X177837Y197837D01*
X187837Y187837D01*
X188829Y187174D01*
X190000Y186941D01*
X190000Y186941D01*
X238733D01*
X246941Y178733D01*
Y50000D01*
X247174Y48829D01*
X247837Y47837D01*
X257837Y37837D01*
X258829Y37174D01*
X260000Y36941D01*
X260000Y36941D01*
X330000D01*
X330000Y36941D01*
X331171Y37174D01*
X332163Y37837D01*
X341500Y47174D01*
X350837Y37837D01*
X351829Y37174D01*
X353000Y36941D01*
X353000Y36941D01*
X1165000D01*
X1166171Y37174D01*
X1167163Y37837D01*
X1167826Y38830D01*
X1168059Y40000D01*
X1168059Y110000D01*
X1167826Y111171D01*
X1167163Y112163D01*
X1157163Y122163D01*
X1157163Y122163D01*
X1156171Y122826D01*
X1155000Y123059D01*
X1155000Y123059D01*
X1137558D01*
X1136388Y122826D01*
X1135395Y122163D01*
X1122837Y109605D01*
X1122174Y108612D01*
X1121941Y107442D01*
X1121941Y107442D01*
X1121941Y73059D01*
X1048059D01*
X1048059Y110000D01*
X1047826Y111171D01*
X1047163Y112163D01*
X1037163Y122163D01*
X1036171Y122826D01*
X1035000Y123059D01*
X1035000Y123059D01*
X1015000D01*
X1013829Y122826D01*
X1012837Y122163D01*
X1012837Y122163D01*
X1002837Y112163D01*
X1002174Y111171D01*
X1001941Y110000D01*
X1001941Y110000D01*
Y73059D01*
X928059D01*
Y110000D01*
X928059Y110000D01*
X927826Y111171D01*
X927163Y112163D01*
X917163Y122163D01*
X916171Y122826D01*
X915000Y123059D01*
X915000Y123059D01*
X895000D01*
X893829Y122826D01*
X892837Y122163D01*
X882837Y112163D01*
X882174Y111171D01*
X881941Y110000D01*
X881941Y110000D01*
Y73059D01*
X808059D01*
X808059Y110000D01*
X807826Y111171D01*
X807163Y112163D01*
X797163Y122163D01*
X796171Y122826D01*
X795000Y123059D01*
X795000Y123059D01*
X775000D01*
X773829Y122826D01*
X772837Y122163D01*
X772837Y122163D01*
X762837Y112163D01*
X762837Y112163D01*
X762174Y111171D01*
X761941Y110000D01*
X761941Y110000D01*
Y73059D01*
X688059D01*
Y110000D01*
X687826Y111171D01*
X687163Y112163D01*
X677163Y122163D01*
X676171Y122826D01*
X675000Y123059D01*
X675000Y123059D01*
X655000D01*
X655000Y123059D01*
X653829Y122826D01*
X652837Y122163D01*
X642837Y112163D01*
X642174Y111171D01*
X641941Y110000D01*
X641941Y110000D01*
X641941Y73059D01*
X568059D01*
Y118733D01*
X576267Y126941D01*
X600000D01*
X601171Y127174D01*
X602163Y127837D01*
X602826Y128829D01*
X603059Y130000D01*
X603059Y220000D01*
X603000Y220295D01*
Y223000D01*
X601326D01*
X582163Y242163D01*
X581171Y242826D01*
X580000Y243059D01*
X580000Y243059D01*
X376267D01*
X321163Y298163D01*
X320171Y298826D01*
X319000Y299059D01*
X319000Y299059D01*
X283059D01*
Y308733D01*
X290476Y316150D01*
X319300D01*
Y332850D01*
X319300Y332850D01*
Y333150D01*
X319300D01*
X319300Y334120D01*
Y349850D01*
X316883D01*
X316171Y350326D01*
X315000Y350559D01*
X293059D01*
Y358733D01*
X311267Y376941D01*
X468733D01*
X487837Y357837D01*
X487837Y357837D01*
X507837Y337837D01*
X508829Y337174D01*
X510000Y336941D01*
X510000Y336941D01*
X618733Y336941D01*
X656941Y298733D01*
Y210000D01*
X657174Y208829D01*
X657837Y207837D01*
X677837Y187837D01*
X678829Y187174D01*
X680000Y186941D01*
X680000Y186941D01*
X1270778D01*
X1271250Y186895D01*
X1308750D01*
X1309222Y186941D01*
X1320000D01*
X1321171Y187174D01*
X1322163Y187837D01*
X1322163Y187837D01*
X1332163Y197837D01*
X1332826Y198829D01*
X1333059Y200000D01*
X1333059Y200000D01*
Y260000D01*
X1332826Y261171D01*
X1332163Y262163D01*
X1332163Y262163D01*
X1322163Y272163D01*
X1321171Y272826D01*
X1320000Y273059D01*
X1320000Y273059D01*
X1241267D01*
X1233059Y281267D01*
Y428733D01*
X1241267Y436941D01*
X1270778D01*
X1271250Y436895D01*
X1308750D01*
X1309222Y436941D01*
X1320000D01*
X1320000Y436941D01*
X1321171Y437174D01*
X1322163Y437837D01*
X1332163Y447837D01*
X1332826Y448829D01*
X1333059Y450000D01*
X1333059Y450000D01*
Y510000D01*
X1332826Y511171D01*
X1332163Y512163D01*
X1332163Y512163D01*
X1322163Y522163D01*
X1321171Y522826D01*
X1320000Y523059D01*
X1320000Y523059D01*
X1241267D01*
X1233059Y531267D01*
Y678733D01*
X1241267Y686941D01*
X1270778D01*
X1271250Y686895D01*
X1308750D01*
X1309222Y686941D01*
X1320000D01*
X1321171Y687174D01*
X1322163Y687837D01*
X1322163Y687837D01*
X1332163Y697837D01*
X1332826Y698829D01*
X1333059Y700000D01*
X1333059Y700000D01*
Y760000D01*
X1332826Y761171D01*
X1332163Y762163D01*
X1332163Y762163D01*
X1322163Y772163D01*
X1321171Y772826D01*
X1320000Y773059D01*
D02*
G37*
G36*
X710490Y711802D02*
Y702040D01*
X720252D01*
X719635Y704340D01*
X717984Y707200D01*
X715650Y709535D01*
X712790Y711185D01*
X710490Y711802D01*
D02*
G37*
G36*
X970490Y711802D02*
Y702040D01*
X980252D01*
X979635Y704340D01*
X977984Y707200D01*
X975650Y709535D01*
X972790Y711185D01*
X970490Y711802D01*
D02*
G37*
G36*
X840490D02*
Y702040D01*
X850252D01*
X849635Y704340D01*
X847984Y707200D01*
X845650Y709535D01*
X842790Y711185D01*
X840490Y711802D01*
D02*
G37*
G36*
X580490D02*
Y702040D01*
X590252D01*
X589635Y704340D01*
X587985Y707200D01*
X585650Y709535D01*
X582790Y711185D01*
X580490Y711802D01*
D02*
G37*
G36*
X835410Y711802D02*
X833110Y711185D01*
X830250Y709535D01*
X827915Y707200D01*
X826265Y704340D01*
X825648Y702040D01*
X835410D01*
Y711802D01*
D02*
G37*
G36*
X575410D02*
X573110Y711185D01*
X570250Y709535D01*
X567915Y707200D01*
X566265Y704340D01*
X565648Y702040D01*
X575410D01*
Y711802D01*
D02*
G37*
G36*
X965410Y711802D02*
X963110Y711185D01*
X960250Y709535D01*
X957915Y707200D01*
X956265Y704340D01*
X955648Y702040D01*
X965410D01*
Y711802D01*
D02*
G37*
G36*
X705410D02*
X703110Y711185D01*
X700250Y709535D01*
X697915Y707200D01*
X696265Y704340D01*
X695648Y702040D01*
X705410D01*
Y711802D01*
D02*
G37*
G36*
X720252Y696960D02*
X710490D01*
Y687198D01*
X712790Y687815D01*
X715650Y689465D01*
X717984Y691800D01*
X719635Y694660D01*
X720252Y696960D01*
D02*
G37*
G36*
X835410D02*
X825648D01*
X826265Y694660D01*
X827915Y691800D01*
X830250Y689465D01*
X833110Y687815D01*
X835410Y687198D01*
Y696960D01*
D02*
G37*
G36*
X575410D02*
X565648D01*
X566265Y694660D01*
X567915Y691800D01*
X570250Y689465D01*
X573110Y687815D01*
X575410Y687198D01*
Y696960D01*
D02*
G37*
G36*
X980252D02*
X970490D01*
Y687198D01*
X972790Y687815D01*
X975650Y689465D01*
X977984Y691800D01*
X979635Y694660D01*
X980252Y696960D01*
D02*
G37*
G36*
X965410D02*
X955648D01*
X956265Y694660D01*
X957915Y691800D01*
X960250Y689465D01*
X963110Y687815D01*
X965410Y687198D01*
Y696960D01*
D02*
G37*
G36*
X850252D02*
X840490D01*
Y687198D01*
X842790Y687815D01*
X845650Y689465D01*
X847984Y691800D01*
X849635Y694660D01*
X850252Y696960D01*
D02*
G37*
G36*
X590252D02*
X580490D01*
Y687198D01*
X582790Y687815D01*
X585650Y689465D01*
X587985Y691800D01*
X589635Y694660D01*
X590252Y696960D01*
D02*
G37*
G36*
X705410D02*
X695648D01*
X696265Y694660D01*
X697915Y691800D01*
X700250Y689465D01*
X703110Y687815D01*
X705410Y687198D01*
Y696960D01*
D02*
G37*
G36*
X62540Y677481D02*
Y652540D01*
X87481D01*
X86862Y656449D01*
X85522Y660572D01*
X83554Y664434D01*
X81006Y667941D01*
X77941Y671006D01*
X74434Y673554D01*
X70572Y675522D01*
X66449Y676862D01*
X62540Y677481D01*
D02*
G37*
G36*
X57460D02*
X53551Y676862D01*
X49428Y675522D01*
X45566Y673554D01*
X42059Y671006D01*
X38994Y667941D01*
X36446Y664434D01*
X34478Y660572D01*
X33138Y656449D01*
X32519Y652540D01*
X57460D01*
Y677481D01*
D02*
G37*
G36*
X1291773Y668000D02*
X1288227D01*
X1284750Y667308D01*
X1281474Y665951D01*
X1278526Y663981D01*
X1276019Y661474D01*
X1274049Y658526D01*
X1272692Y655250D01*
X1272000Y651773D01*
Y648227D01*
X1272692Y644750D01*
X1274049Y641474D01*
X1276019Y638526D01*
X1278526Y636018D01*
X1281474Y634049D01*
X1284750Y632692D01*
X1288227Y632000D01*
X1291773D01*
X1295250Y632692D01*
X1298526Y634049D01*
X1301474Y636018D01*
X1303981Y638526D01*
X1305951Y641474D01*
X1307308Y644750D01*
X1308000Y648227D01*
Y651773D01*
X1307308Y655250D01*
X1305951Y658526D01*
X1303981Y661474D01*
X1301474Y663981D01*
X1298526Y665951D01*
X1295250Y667308D01*
X1291773Y668000D01*
D02*
G37*
G36*
X87481Y647460D02*
X62540D01*
Y622519D01*
X66449Y623138D01*
X70572Y624478D01*
X74434Y626446D01*
X77941Y628994D01*
X81006Y632059D01*
X83554Y635566D01*
X85522Y639428D01*
X86862Y643551D01*
X87481Y647460D01*
D02*
G37*
G36*
X57460D02*
X32519D01*
X33138Y643551D01*
X34478Y639428D01*
X36446Y635566D01*
X38994Y632059D01*
X42059Y628994D01*
X45566Y626446D01*
X49428Y624478D01*
X53551Y623138D01*
X57460Y622519D01*
Y647460D01*
D02*
G37*
G36*
X72540Y394093D02*
Y366540D01*
X100093D01*
X99378Y371053D01*
X97913Y375562D01*
X95761Y379786D01*
X92974Y383622D01*
X89622Y386974D01*
X85786Y389761D01*
X81562Y391913D01*
X77053Y393378D01*
X72540Y394093D01*
D02*
G37*
G36*
X67460D02*
X62947Y393378D01*
X58438Y391913D01*
X54214Y389761D01*
X50378Y386974D01*
X47026Y383622D01*
X44239Y379786D01*
X42087Y375562D01*
X40622Y371053D01*
X39907Y366540D01*
X67460D01*
Y394093D01*
D02*
G37*
G36*
X100093Y361460D02*
X72540D01*
Y333907D01*
X77053Y334622D01*
X81562Y336087D01*
X85786Y338239D01*
X89622Y341026D01*
X92974Y344378D01*
X95761Y348214D01*
X97913Y352438D01*
X99378Y356947D01*
X100093Y361460D01*
D02*
G37*
G36*
X67460D02*
X39907D01*
X40622Y356947D01*
X42087Y352438D01*
X44239Y348214D01*
X47026Y344378D01*
X50378Y341026D01*
X54214Y338239D01*
X58438Y336087D01*
X62947Y334622D01*
X67460Y333907D01*
Y361460D01*
D02*
G37*
G36*
X62540Y177481D02*
Y152540D01*
X87481D01*
X86862Y156449D01*
X85522Y160572D01*
X83554Y164434D01*
X81006Y167941D01*
X77941Y171006D01*
X74434Y173554D01*
X70572Y175522D01*
X66449Y176862D01*
X62540Y177481D01*
D02*
G37*
G36*
X57460D02*
X53551Y176862D01*
X49428Y175522D01*
X45566Y173554D01*
X42059Y171006D01*
X38994Y167941D01*
X36446Y164434D01*
X34478Y160572D01*
X33138Y156449D01*
X32519Y152540D01*
X57460D01*
Y177481D01*
D02*
G37*
G36*
X1291773Y168000D02*
X1288227D01*
X1284750Y167308D01*
X1281474Y165951D01*
X1278526Y163981D01*
X1276019Y161474D01*
X1274049Y158526D01*
X1272692Y155250D01*
X1272000Y151773D01*
Y148227D01*
X1272692Y144750D01*
X1274049Y141474D01*
X1276019Y138526D01*
X1278526Y136018D01*
X1281474Y134049D01*
X1284750Y132692D01*
X1288227Y132000D01*
X1291773D01*
X1295250Y132692D01*
X1298526Y134049D01*
X1301474Y136018D01*
X1303981Y138526D01*
X1305951Y141474D01*
X1307308Y144750D01*
X1308000Y148227D01*
Y151773D01*
X1307308Y155250D01*
X1305951Y158526D01*
X1303981Y161474D01*
X1301474Y163981D01*
X1298526Y165951D01*
X1295250Y167308D01*
X1291773Y168000D01*
D02*
G37*
G36*
X87481Y147460D02*
X62540D01*
Y122519D01*
X66449Y123138D01*
X70572Y124478D01*
X74434Y126446D01*
X77941Y128994D01*
X81006Y132059D01*
X83554Y135566D01*
X85522Y139428D01*
X86862Y143551D01*
X87481Y147460D01*
D02*
G37*
G36*
X57460D02*
X32519D01*
X33138Y143551D01*
X34478Y139428D01*
X36446Y135566D01*
X38994Y132059D01*
X42059Y128994D01*
X45566Y126446D01*
X49428Y124478D01*
X53551Y123138D01*
X57460Y122519D01*
Y147460D01*
D02*
G37*
G36*
X1186590Y112302D02*
Y102540D01*
X1196352D01*
X1195735Y104840D01*
X1194084Y107700D01*
X1191750Y110035D01*
X1188890Y111685D01*
X1186590Y112302D01*
D02*
G37*
G36*
X1181510D02*
X1179210Y111685D01*
X1176350Y110035D01*
X1174016Y107700D01*
X1172365Y104840D01*
X1171748Y102540D01*
X1181510D01*
Y112302D01*
D02*
G37*
G36*
X1066590Y111302D02*
Y101540D01*
X1076352D01*
X1075735Y103840D01*
X1074084Y106700D01*
X1071750Y109035D01*
X1068890Y110685D01*
X1066590Y111302D01*
D02*
G37*
G36*
X1061510D02*
X1059210Y110685D01*
X1056350Y109035D01*
X1054016Y106700D01*
X1052365Y103840D01*
X1051748Y101540D01*
X1061510D01*
Y111302D01*
D02*
G37*
G36*
X946590D02*
Y101540D01*
X956352D01*
X955735Y103840D01*
X954084Y106700D01*
X951750Y109035D01*
X948890Y110685D01*
X946590Y111302D01*
D02*
G37*
G36*
X941510D02*
X939210Y110685D01*
X936350Y109035D01*
X934016Y106700D01*
X932365Y103840D01*
X931748Y101540D01*
X941510D01*
Y111302D01*
D02*
G37*
G36*
X826590D02*
Y101540D01*
X836352D01*
X835735Y103840D01*
X834084Y106700D01*
X831750Y109035D01*
X828890Y110685D01*
X826590Y111302D01*
D02*
G37*
G36*
X821510D02*
X819210Y110685D01*
X816350Y109035D01*
X814016Y106700D01*
X812365Y103840D01*
X811748Y101540D01*
X821510D01*
Y111302D01*
D02*
G37*
G36*
X706590D02*
Y101540D01*
X716352D01*
X715735Y103840D01*
X714084Y106700D01*
X711750Y109035D01*
X708890Y110685D01*
X706590Y111302D01*
D02*
G37*
G36*
X701510D02*
X699210Y110685D01*
X696350Y109035D01*
X694016Y106700D01*
X692365Y103840D01*
X691748Y101540D01*
X701510D01*
Y111302D01*
D02*
G37*
G36*
X586590D02*
Y101540D01*
X596352D01*
X595735Y103840D01*
X594085Y106700D01*
X591750Y109035D01*
X588890Y110685D01*
X586590Y111302D01*
D02*
G37*
G36*
X581510D02*
X579210Y110685D01*
X576350Y109035D01*
X574016Y106700D01*
X572365Y103840D01*
X571748Y101540D01*
X581510D01*
Y111302D01*
D02*
G37*
G36*
X1196352Y97460D02*
X1186590D01*
Y87698D01*
X1188890Y88315D01*
X1191750Y89965D01*
X1194084Y92300D01*
X1195735Y95160D01*
X1196352Y97460D01*
D02*
G37*
G36*
X1181510D02*
X1171748D01*
X1172365Y95160D01*
X1174016Y92300D01*
X1176350Y89965D01*
X1179210Y88315D01*
X1181510Y87698D01*
Y97460D01*
D02*
G37*
G36*
X1076352Y96460D02*
X1066590D01*
Y86698D01*
X1068890Y87315D01*
X1071750Y88966D01*
X1074084Y91300D01*
X1075735Y94160D01*
X1076352Y96460D01*
D02*
G37*
G36*
X1061510D02*
X1051748D01*
X1052365Y94160D01*
X1054016Y91300D01*
X1056350Y88966D01*
X1059210Y87315D01*
X1061510Y86698D01*
Y96460D01*
D02*
G37*
G36*
X956352D02*
X946590D01*
Y86698D01*
X948890Y87315D01*
X951750Y88966D01*
X954084Y91300D01*
X955735Y94160D01*
X956352Y96460D01*
D02*
G37*
G36*
X941510D02*
X931748D01*
X932365Y94160D01*
X934016Y91300D01*
X936350Y88966D01*
X939210Y87315D01*
X941510Y86698D01*
Y96460D01*
D02*
G37*
G36*
X836352D02*
X826590D01*
Y86698D01*
X828890Y87315D01*
X831750Y88966D01*
X834084Y91300D01*
X835735Y94160D01*
X836352Y96460D01*
D02*
G37*
G36*
X821510D02*
X811748D01*
X812365Y94160D01*
X814016Y91300D01*
X816350Y88966D01*
X819210Y87315D01*
X821510Y86698D01*
Y96460D01*
D02*
G37*
G36*
X716352D02*
X706590D01*
Y86698D01*
X708890Y87315D01*
X711750Y88966D01*
X714084Y91300D01*
X715735Y94160D01*
X716352Y96460D01*
D02*
G37*
G36*
X701510D02*
X691748D01*
X692365Y94160D01*
X694016Y91300D01*
X696350Y88966D01*
X699210Y87315D01*
X701510Y86698D01*
Y96460D01*
D02*
G37*
G36*
X596352D02*
X586590D01*
Y86698D01*
X588890Y87315D01*
X591750Y88966D01*
X594085Y91300D01*
X595735Y94160D01*
X596352Y96460D01*
D02*
G37*
G36*
X581510D02*
X571748D01*
X572365Y94160D01*
X574016Y91300D01*
X576350Y88966D01*
X579210Y87315D01*
X581510Y86698D01*
Y96460D01*
D02*
G37*
%LPD*%
G36*
X430000Y740000D02*
Y720000D01*
X440000Y710000D01*
X540000D01*
X550000Y700000D01*
Y690000D01*
X560000Y680000D01*
X600000D01*
Y715000D01*
X610000Y725000D01*
X625000D01*
X635000Y715000D01*
Y680000D01*
X730000D01*
Y715000D01*
X740000Y725000D01*
X755000D01*
X765000Y715000D01*
Y680000D01*
X860000D01*
Y715000D01*
X870000Y725000D01*
X885000D01*
X895000Y715000D01*
Y680000D01*
X990000D01*
Y715000D01*
X1000000Y725000D01*
X1015000D01*
X1030000Y710000D01*
Y650000D01*
X1005000Y625000D01*
X346659D01*
X346173Y626173D01*
X370000Y650000D01*
Y740000D01*
X380000Y750000D01*
X420000D01*
X430000Y740000D01*
D02*
G37*
G36*
X315000Y745000D02*
Y592500D01*
X272500D01*
X260000Y605000D01*
Y640000D01*
X220000Y680000D01*
X200000D01*
X180000Y700000D01*
X180000Y740000D01*
X200000Y760000D01*
X300000D01*
X315000Y745000D01*
D02*
G37*
G36*
X1330000Y760000D02*
Y700000D01*
X1320000Y690000D01*
X1240000D01*
X1230000Y680000D01*
Y530000D01*
X1240000Y520000D01*
X1320000D01*
X1330000Y510000D01*
Y450000D01*
X1320000Y440000D01*
X1240000D01*
X1230000Y430000D01*
Y280000D01*
X1240000Y270000D01*
X1320000D01*
X1330000Y260000D01*
Y200000D01*
X1320000Y190000D01*
X680000D01*
X660000Y210000D01*
Y300000D01*
X620000Y340000D01*
X510000Y340000D01*
X490000Y360000D01*
X470000Y380000D01*
X310000D01*
X290000Y360000D01*
Y347500D01*
X315000D01*
Y336000D01*
X154000Y336000D01*
X130000Y360000D01*
Y380000D01*
X110000Y400000D01*
X50000Y400000D01*
X45293Y404707D01*
X45779Y405880D01*
X67460D01*
Y433460D01*
X39880D01*
Y411779D01*
X38707Y411293D01*
X30000Y420000D01*
X30000Y580000D01*
X50000Y600000D01*
X260000Y600000D01*
X270000Y590000D01*
X270842D01*
X271329Y589674D01*
X272500Y589441D01*
X272500Y589441D01*
X315000D01*
Y580000D01*
X273524D01*
X273000Y580069D01*
X272476Y580000D01*
X270000D01*
X269004Y579004D01*
X268965Y578988D01*
X267294Y577706D01*
X266012Y576035D01*
X265996Y575996D01*
X250000Y560000D01*
Y510000D01*
X270000Y490000D01*
X480000D01*
X500000Y510000D01*
X500000Y600000D01*
X520000Y620000D01*
X1020000D01*
X1040000Y640000D01*
Y740000D01*
X1070000Y770000D01*
X1320000D01*
X1330000Y760000D01*
D02*
G37*
G36*
X516442Y620768D02*
X497837Y602163D01*
X497174Y601171D01*
X496941Y600000D01*
X496941Y600000D01*
X496941Y511267D01*
X478733Y493059D01*
X271267D01*
X253059Y511267D01*
Y558733D01*
X264160Y569834D01*
X265386Y569505D01*
X265545Y568912D01*
X266598Y567088D01*
X268088Y565598D01*
X269912Y564545D01*
X271947Y564000D01*
X274053D01*
X276088Y564545D01*
X276157Y564585D01*
X298950D01*
X299441Y564650D01*
X317000D01*
Y554350D01*
X280200D01*
Y539250D01*
Y526550D01*
Y513850D01*
X317800D01*
Y526535D01*
X321600D01*
X323558Y526793D01*
X325382Y527549D01*
X326949Y528751D01*
X332349Y534151D01*
X332349Y534151D01*
X333551Y535718D01*
X334307Y537542D01*
X334565Y539500D01*
Y608867D01*
X347639Y621941D01*
X515956D01*
X516442Y620768D01*
D02*
G37*
G36*
X375000Y240000D02*
X580000D01*
X600000Y220000D01*
X600000Y130000D01*
X575000D01*
X565000Y120000D01*
Y70000D01*
X645000D01*
X645000Y110000D01*
X655000Y120000D01*
X675000D01*
X685000Y110000D01*
Y70000D01*
X765000D01*
Y110000D01*
X775000Y120000D01*
X795000D01*
X805000Y110000D01*
X805000Y70000D01*
X885000D01*
Y110000D01*
X895000Y120000D01*
X915000D01*
X925000Y110000D01*
Y70000D01*
X1005000D01*
Y110000D01*
X1015000Y120000D01*
X1035000D01*
X1045000Y110000D01*
X1045000Y70000D01*
X1125000D01*
X1125000Y107442D01*
X1137558Y120000D01*
X1155000D01*
X1165000Y110000D01*
X1165000Y40000D01*
X353000D01*
X343059Y49941D01*
Y230938D01*
X342826Y231171D01*
X342163Y232163D01*
X342163Y232163D01*
X332163Y242163D01*
X331171Y242826D01*
X330938Y243059D01*
X330000D01*
X330000Y243059D01*
X330000Y243059D01*
X296267Y243059D01*
X283059Y256267D01*
Y296000D01*
X319000D01*
X375000Y240000D01*
D02*
G37*
G36*
X298341Y330000D02*
X298827Y328827D01*
X280000Y310000D01*
Y255000D01*
X295000Y240000D01*
X330000D01*
X340000Y230000D01*
Y50000D01*
X330000Y40000D01*
X260000D01*
X250000Y50000D01*
Y180000D01*
X240000Y190000D01*
X190000D01*
X180000Y200000D01*
Y230000D01*
X200000Y250000D01*
X210000Y260000D01*
Y310000D01*
X230000Y330000D01*
X298341Y330000D01*
D02*
G37*
%LPC*%
G36*
X758590Y712040D02*
X748590D01*
Y702040D01*
X758590D01*
Y712040D01*
D02*
G37*
G36*
X1018590D02*
X1008590D01*
Y702040D01*
X1018590D01*
Y712040D01*
D02*
G37*
G36*
X888590D02*
X878590D01*
Y702040D01*
X888590D01*
Y712040D01*
D02*
G37*
G36*
X628590D02*
X618590D01*
Y702040D01*
X628590D01*
Y712040D01*
D02*
G37*
G36*
X873510D02*
X863510D01*
Y702040D01*
X873510D01*
Y712040D01*
D02*
G37*
G36*
X613510D02*
X603510D01*
Y702040D01*
X613510D01*
Y712040D01*
D02*
G37*
G36*
X1003510D02*
X993510D01*
Y702040D01*
X1003510D01*
Y712040D01*
D02*
G37*
G36*
X743510D02*
X733510D01*
Y702040D01*
X743510D01*
Y712040D01*
D02*
G37*
G36*
X1018590Y696960D02*
X1008590D01*
Y686960D01*
X1018590D01*
Y696960D01*
D02*
G37*
G36*
X1003510D02*
X993510D01*
Y686960D01*
X1003510D01*
Y696960D01*
D02*
G37*
G36*
X888590D02*
X878590D01*
Y686960D01*
X888590D01*
Y696960D01*
D02*
G37*
G36*
X873510D02*
X863510D01*
Y686960D01*
X873510D01*
Y696960D01*
D02*
G37*
G36*
X758590D02*
X748590D01*
Y686960D01*
X758590D01*
Y696960D01*
D02*
G37*
G36*
X743510D02*
X733510D01*
Y686960D01*
X743510D01*
Y696960D01*
D02*
G37*
G36*
X628590D02*
X618590D01*
Y686960D01*
X628590D01*
Y696960D01*
D02*
G37*
G36*
X613510D02*
X603510D01*
Y686960D01*
X613510D01*
Y696960D01*
D02*
G37*
G36*
X100120Y466120D02*
X72540D01*
Y438540D01*
X100120D01*
Y466120D01*
D02*
G37*
G36*
X67460D02*
X39880D01*
Y438540D01*
X67460D01*
Y466120D01*
D02*
G37*
G36*
X100120Y433460D02*
X72540D01*
Y405880D01*
X100120D01*
Y433460D01*
D02*
G37*
G36*
X319300Y281850D02*
X286700D01*
Y265150D01*
X319300D01*
Y281850D01*
D02*
G37*
G36*
X1158490Y112540D02*
X1148490D01*
Y102540D01*
X1158490D01*
Y112540D01*
D02*
G37*
G36*
X1143410D02*
X1133410D01*
Y102540D01*
X1143410D01*
Y112540D01*
D02*
G37*
G36*
X1038490Y111540D02*
X1028490D01*
Y101540D01*
X1038490D01*
Y111540D01*
D02*
G37*
G36*
X1023410D02*
X1013410D01*
Y101540D01*
X1023410D01*
Y111540D01*
D02*
G37*
G36*
X918490D02*
X908490D01*
Y101540D01*
X918490D01*
Y111540D01*
D02*
G37*
G36*
X903410D02*
X893410D01*
Y101540D01*
X903410D01*
Y111540D01*
D02*
G37*
G36*
X798490D02*
X788490D01*
Y101540D01*
X798490D01*
Y111540D01*
D02*
G37*
G36*
X783410D02*
X773410D01*
Y101540D01*
X783410D01*
Y111540D01*
D02*
G37*
G36*
X678490D02*
X668490D01*
Y101540D01*
X678490D01*
Y111540D01*
D02*
G37*
G36*
X663410D02*
X653410D01*
Y101540D01*
X663410D01*
Y111540D01*
D02*
G37*
G36*
X558490D02*
X548490D01*
Y101540D01*
X558490D01*
Y111540D01*
D02*
G37*
G36*
X543410D02*
X533410D01*
Y101540D01*
X543410D01*
Y111540D01*
D02*
G37*
G36*
X1158490Y97460D02*
X1148490D01*
Y87460D01*
X1158490D01*
Y97460D01*
D02*
G37*
G36*
X1143410D02*
X1133410D01*
Y87460D01*
X1143410D01*
Y97460D01*
D02*
G37*
G36*
X1038490Y96460D02*
X1028490D01*
Y86460D01*
X1038490D01*
Y96460D01*
D02*
G37*
G36*
X1023410D02*
X1013410D01*
Y86460D01*
X1023410D01*
Y96460D01*
D02*
G37*
G36*
X918490D02*
X908490D01*
Y86460D01*
X918490D01*
Y96460D01*
D02*
G37*
G36*
X903410D02*
X893410D01*
Y86460D01*
X903410D01*
Y96460D01*
D02*
G37*
G36*
X798490D02*
X788490D01*
Y86460D01*
X798490D01*
Y96460D01*
D02*
G37*
G36*
X783410D02*
X773410D01*
Y86460D01*
X783410D01*
Y96460D01*
D02*
G37*
G36*
X678490D02*
X668490D01*
Y86460D01*
X678490D01*
Y96460D01*
D02*
G37*
G36*
X663410D02*
X653410D01*
Y86460D01*
X663410D01*
Y96460D01*
D02*
G37*
G36*
X558490D02*
X548490D01*
Y86460D01*
X558490D01*
Y96460D01*
D02*
G37*
G36*
X543410D02*
X533410D01*
Y86460D01*
X543410D01*
Y96460D01*
D02*
G37*
%LPD*%
D17*
X177000Y641500D02*
D03*
Y572000D02*
D03*
X477000Y754250D02*
D03*
Y684750D02*
D03*
D18*
X295000Y135000D02*
D03*
X475000D02*
D03*
D19*
X292000Y719500D02*
D03*
X402000D02*
D03*
D20*
X391750Y559500D02*
D03*
D21*
X299000Y521400D02*
D03*
Y534100D02*
D03*
Y546800D02*
D03*
Y559500D02*
D03*
Y572200D02*
D03*
Y584900D02*
D03*
Y597600D02*
D03*
D22*
X590000Y295000D02*
D03*
Y185000D02*
D03*
D23*
X147000Y742220D02*
D03*
Y696500D02*
D03*
D24*
X303000Y341500D02*
D03*
Y273500D02*
D03*
Y324500D02*
D03*
Y290500D02*
D03*
Y307500D02*
D03*
D25*
X410000D02*
D03*
D26*
X1290000Y727500D02*
D03*
Y577500D02*
D03*
Y477500D02*
D03*
Y327500D02*
D03*
Y227500D02*
D03*
Y77500D02*
D03*
D27*
X175000Y302000D02*
D03*
Y358000D02*
D03*
D28*
X215000Y222000D02*
D03*
Y148000D02*
D03*
D29*
X306000Y638000D02*
D03*
X328000D02*
D03*
D30*
X237000Y610500D02*
D03*
Y588500D02*
D03*
D53*
X227000Y719500D02*
D03*
D54*
X333082Y637919D02*
X341000Y645837D01*
Y646000D01*
X328000Y638000D02*
Y641000D01*
X327000Y539500D02*
Y612000D01*
X321600Y534100D02*
X327000Y539500D01*
X299000Y534100D02*
X321600D01*
X327000Y612000D02*
X402000Y687000D01*
Y719500D01*
X298950Y572150D02*
X299000Y572200D01*
X273150Y572150D02*
X298950D01*
X273000Y572000D02*
X273150Y572150D01*
D55*
X577950Y699500D02*
D03*
X707950D02*
D03*
X837950D02*
D03*
X967950D02*
D03*
X584050Y99000D02*
D03*
X704050D02*
D03*
X824050D02*
D03*
X944050D02*
D03*
X1064050D02*
D03*
X1184050Y100000D02*
D03*
D56*
X616050Y699500D02*
D03*
X746050D02*
D03*
X876050D02*
D03*
X1006050D02*
D03*
X545950Y99000D02*
D03*
X665950D02*
D03*
X785950D02*
D03*
X905950D02*
D03*
X1025950D02*
D03*
X1145950Y100000D02*
D03*
D57*
X70000Y436000D02*
D03*
D58*
Y364000D02*
D03*
D59*
X60000Y650000D02*
D03*
Y150000D02*
D03*
D60*
X1290000Y650000D02*
D03*
Y150000D02*
D03*
D61*
X1265000Y752500D02*
D03*
Y727500D02*
D03*
Y702500D02*
D03*
X1290000D02*
D03*
Y752500D02*
D03*
X1315000Y702500D02*
D03*
Y727500D02*
D03*
Y752500D02*
D03*
X1290000Y727500D02*
D03*
Y577500D02*
D03*
X1315000D02*
D03*
Y552500D02*
D03*
X1290000D02*
D03*
X1315000Y602500D02*
D03*
X1290000D02*
D03*
X1265000Y577500D02*
D03*
Y602500D02*
D03*
Y552500D02*
D03*
Y502500D02*
D03*
Y477500D02*
D03*
Y452500D02*
D03*
X1290000D02*
D03*
Y502500D02*
D03*
X1315000Y452500D02*
D03*
Y477500D02*
D03*
Y502500D02*
D03*
X1290000Y477500D02*
D03*
Y327500D02*
D03*
X1315000D02*
D03*
Y302500D02*
D03*
X1290000D02*
D03*
X1315000Y352500D02*
D03*
X1290000D02*
D03*
X1265000Y327500D02*
D03*
Y352500D02*
D03*
Y302500D02*
D03*
Y252500D02*
D03*
Y227500D02*
D03*
Y202500D02*
D03*
X1290000D02*
D03*
Y252500D02*
D03*
X1315000Y202500D02*
D03*
Y227500D02*
D03*
Y252500D02*
D03*
X1290000Y227500D02*
D03*
Y77500D02*
D03*
X1315000D02*
D03*
Y52500D02*
D03*
X1290000D02*
D03*
X1315000Y102500D02*
D03*
X1290000D02*
D03*
X1265000Y77500D02*
D03*
Y102500D02*
D03*
Y52500D02*
D03*
X341000Y646000D02*
D03*
X273000Y572000D02*
D03*
D62*
X175000Y260000D02*
D03*
X152500Y275000D02*
D03*
X197500D02*
D03*
X215000Y121500D02*
D03*
X192500D02*
D03*
X237500D02*
D03*
X502000Y774500D02*
D03*
X117000Y742000D02*
D03*
X452000Y774500D02*
D03*
X237000Y629500D02*
D03*
X202000Y662000D02*
D03*
X152000D02*
D03*
X177000Y674500D02*
D03*
X117000Y697000D02*
D03*
X470000Y610000D02*
D03*
Y550000D02*
D03*
Y510000D02*
D03*
Y530000D02*
D03*
Y570000D02*
D03*
Y590000D02*
D03*
X330000Y307500D02*
D03*
X460000Y345000D02*
D03*
Y320000D02*
D03*
Y295000D02*
D03*
Y270000D02*
D03*
X269000Y549000D02*
D03*
X565000Y295000D02*
D03*
Y320000D02*
D03*
X615000D02*
D03*
Y295000D02*
D03*
Y270000D02*
D03*
X565000D02*
D03*
X452000Y752000D02*
D03*
X502000D02*
D03*
X75000Y100000D02*
D03*
X105000Y160000D02*
D03*
X75000Y220000D02*
D03*
X105000Y280000D02*
D03*
Y640000D02*
D03*
X75000Y700000D02*
D03*
X135000Y100000D02*
D03*
X165000Y160000D02*
D03*
X135000Y220000D02*
D03*
X165000Y760000D02*
D03*
X345000D02*
D03*
X525000Y280000D02*
D03*
X585000Y760000D02*
D03*
X615000Y100000D02*
D03*
X645000Y160000D02*
D03*
X615000Y220000D02*
D03*
X645000Y280000D02*
D03*
X705000Y160000D02*
D03*
X675000Y700000D02*
D03*
X705000Y760000D02*
D03*
X735000Y100000D02*
D03*
X765000Y160000D02*
D03*
Y760000D02*
D03*
X795000Y700000D02*
D03*
X825000Y760000D02*
D03*
X855000Y100000D02*
D03*
X885000Y760000D02*
D03*
X945000Y160000D02*
D03*
X915000Y700000D02*
D03*
X975000Y100000D02*
D03*
X1005000Y160000D02*
D03*
Y760000D02*
D03*
X1065000Y160000D02*
D03*
X1095000Y100000D02*
D03*
X1125000Y160000D02*
D03*
X1185000D02*
D03*
X1215000Y100000D02*
D03*
X1245000Y160000D02*
D03*
Y400000D02*
D03*
Y640000D02*
D03*
X1305000Y400000D02*
D03*
X40000Y760000D02*
D03*
X630000D02*
D03*
X955000D02*
D03*
X105000Y40000D02*
D03*
X165000D02*
D03*
X225000D02*
D03*
X45000D02*
D03*
Y280000D02*
D03*
X155000Y585000D02*
D03*
X200000D02*
D03*
Y550000D02*
D03*
X155000D02*
D03*
X150000Y355000D02*
D03*
X200000D02*
D03*
X150000Y385000D02*
D03*
X200000D02*
D03*
X1200000Y750000D02*
D03*
Y675000D02*
D03*
Y600000D02*
D03*
Y525000D02*
D03*
Y450000D02*
D03*
Y375000D02*
D03*
Y300000D02*
D03*
Y225000D02*
D03*
X1125000Y750000D02*
D03*
Y675000D02*
D03*
Y600000D02*
D03*
Y525000D02*
D03*
Y450000D02*
D03*
Y375000D02*
D03*
Y225000D02*
D03*
X1050000D02*
D03*
Y375000D02*
D03*
Y450000D02*
D03*
Y600000D02*
D03*
Y675000D02*
D03*
X975000Y375000D02*
D03*
Y225000D02*
D03*
X900000D02*
D03*
X825000D02*
D03*
Y300000D02*
D03*
Y375000D02*
D03*
Y450000D02*
D03*
Y525000D02*
D03*
Y600000D02*
D03*
X750000D02*
D03*
Y525000D02*
D03*
Y450000D02*
D03*
Y300000D02*
D03*
Y225000D02*
D03*
X675000D02*
D03*
Y300000D02*
D03*
X550000Y450000D02*
D03*
Y375000D02*
D03*
Y600000D02*
D03*
X475000Y475000D02*
D03*
Y400000D02*
D03*
X400000Y475000D02*
D03*
Y400000D02*
D03*
X325000Y475000D02*
D03*
Y400000D02*
D03*
X250000Y475000D02*
D03*
Y400000D02*
D03*
X175000Y500000D02*
D03*
Y425000D02*
D03*
X100000Y575000D02*
D03*
Y500000D02*
D03*
M02*
