G04*
G04 #@! TF.GenerationSoftware,Altium Limited,Altium Designer,21.0.9 (235)*
G04*
G04 Layer_Color=16711935*
%FSLAX25Y25*%
%MOIN*%
G70*
G04*
G04 #@! TF.SameCoordinates,6D53B719-0023-417C-B101-D5714F10E9D5*
G04*
G04*
G04 #@! TF.FilePolarity,Positive*
G04*
G01*
G75*
%ADD10C,0.00787*%
D10*
X105315Y501968D02*
X104334Y501898D01*
X103374Y501689D01*
X102453Y501346D01*
X101590Y500875D01*
X100803Y500286D01*
X100108Y499591D01*
X99519Y498804D01*
X99048Y497941D01*
X98704Y497020D01*
X98495Y496059D01*
X98425Y495079D01*
X98425Y412402D02*
X98495Y411421D01*
X98704Y410461D01*
X99048Y409540D01*
X99519Y408677D01*
X100108Y407890D01*
X100803Y407195D01*
X101590Y406605D01*
X102453Y406134D01*
X103374Y405791D01*
X104334Y405582D01*
X105315Y405512D01*
X234252Y405512D02*
X235232Y405582D01*
X236193Y405791D01*
X237114Y406134D01*
X237977Y406605D01*
X238764Y407195D01*
X239459Y407890D01*
X240048Y408677D01*
X240519Y409540D01*
X240863Y410461D01*
X241072Y411421D01*
X241142Y412402D01*
Y495079D02*
X241072Y496059D01*
X240863Y497020D01*
X240519Y497941D01*
X240048Y498804D01*
X239459Y499591D01*
X238764Y500286D01*
X237977Y500875D01*
X237114Y501346D01*
X236193Y501689D01*
X235232Y501898D01*
X234252Y501968D01*
X105315Y405512D02*
X234252D01*
X241142Y412402D02*
Y495079D01*
X105315Y501968D02*
X234252Y501968D01*
X98425Y412402D02*
Y495079D01*
M02*
