G04*
G04 #@! TF.GenerationSoftware,Altium Limited,Altium Designer,21.0.9 (235)*
G04*
G04 Layer_Color=255*
%FSLAX25Y25*%
%MOIN*%
G70*
G04*
G04 #@! TF.SameCoordinates,B967F2C2-E6FC-4E05-9B2A-515C436140DF*
G04*
G04*
G04 #@! TF.FilePolarity,Positive*
G04*
G01*
G75*
%ADD13R,0.09843X0.04528*%
%ADD23C,0.09843*%
%ADD24O,0.03937X0.07874*%
%ADD25O,0.03937X0.07874*%
%ADD26R,0.05906X0.05906*%
%ADD27C,0.05906*%
%ADD28R,0.05906X0.05906*%
%ADD29C,0.06000*%
D13*
X128937Y463878D02*
D03*
Y451476D02*
D03*
X166339Y463583D02*
D03*
Y451181D02*
D03*
X182087Y463583D02*
D03*
Y451181D02*
D03*
D23*
X105315Y412402D02*
D03*
X234252D02*
D03*
Y495079D02*
D03*
X105315D02*
D03*
D24*
X153543Y453740D02*
D03*
D25*
X147638D02*
D03*
X141732D02*
D03*
D26*
X224410Y435197D02*
D03*
X114173D02*
D03*
X224410Y472441D02*
D03*
X114173Y472284D02*
D03*
D27*
X224410Y425197D02*
D03*
X114173D02*
D03*
X169291Y476378D02*
D03*
X179291D02*
D03*
X224410Y482441D02*
D03*
X114173Y482283D02*
D03*
D28*
X159291Y476378D02*
D03*
D29*
X203740Y451575D02*
D03*
Y461614D02*
D03*
M02*
