G04*
G04 #@! TF.GenerationSoftware,Altium Limited,Altium Designer,21.0.9 (235)*
G04*
G04 Layer_Physical_Order=2*
G04 Layer_Color=16711680*
%FSLAX25Y25*%
%MOIN*%
G70*
G04*
G04 #@! TF.SameCoordinates,9C6B2F4F-DD67-4C68-84DA-E08A5B7113C0*
G04*
G04*
G04 #@! TF.FilePolarity,Positive*
G04*
G01*
G75*
%ADD22O,0.03937X0.07874*%
%ADD23O,0.03937X0.07874*%
%ADD24R,0.05906X0.05906*%
%ADD25C,0.05906*%
%ADD26R,0.05906X0.05906*%
%ADD27C,0.06000*%
%ADD28C,0.05000*%
G36*
X225394Y495079D02*
X234252Y486221D01*
X234252Y422244D01*
X223425Y411417D01*
X115157Y411417D01*
X105315Y421260D01*
X105315Y486221D01*
X114173Y495079D01*
X225394Y495079D01*
D02*
G37*
%LPC*%
G36*
X224864Y485894D02*
X223955D01*
X223077Y485658D01*
X222289Y485204D01*
X221647Y484561D01*
X221192Y483774D01*
X220957Y482896D01*
Y481986D01*
X221192Y481108D01*
X221647Y480321D01*
X222289Y479678D01*
X223077Y479223D01*
X223955Y478988D01*
X224864D01*
X225742Y479223D01*
X226530Y479678D01*
X227172Y480321D01*
X227627Y481108D01*
X227862Y481986D01*
Y482896D01*
X227627Y483774D01*
X227172Y484561D01*
X226530Y485204D01*
X225742Y485658D01*
X224864Y485894D01*
D02*
G37*
G36*
X114628Y485736D02*
X113719D01*
X112840Y485501D01*
X112053Y485046D01*
X111410Y484404D01*
X110956Y483616D01*
X110721Y482738D01*
Y481829D01*
X110956Y480951D01*
X111410Y480163D01*
X112053Y479521D01*
X112840Y479066D01*
X113719Y478831D01*
X114628D01*
X115506Y479066D01*
X116293Y479521D01*
X116936Y480163D01*
X117391Y480951D01*
X117626Y481829D01*
Y482738D01*
X117391Y483616D01*
X116936Y484404D01*
X116293Y485046D01*
X115506Y485501D01*
X114628Y485736D01*
D02*
G37*
G36*
X169746Y479831D02*
X169541D01*
Y476628D01*
X172744D01*
Y476832D01*
X172509Y477711D01*
X172054Y478498D01*
X171411Y479141D01*
X170624Y479595D01*
X169746Y479831D01*
D02*
G37*
G36*
X169041D02*
X168837D01*
X167959Y479595D01*
X167171Y479141D01*
X166528Y478498D01*
X166074Y477711D01*
X165839Y476832D01*
Y476628D01*
X169041D01*
Y479831D01*
D02*
G37*
G36*
X179746D02*
X178837D01*
X177959Y479595D01*
X177171Y479141D01*
X176529Y478498D01*
X176074Y477711D01*
X175839Y476832D01*
Y475923D01*
X176074Y475045D01*
X176529Y474258D01*
X177171Y473615D01*
X177959Y473161D01*
X178837Y472925D01*
X179746D01*
X180624Y473161D01*
X181411Y473615D01*
X182054Y474258D01*
X182509Y475045D01*
X182744Y475923D01*
Y476832D01*
X182509Y477711D01*
X182054Y478498D01*
X181411Y479141D01*
X180624Y479595D01*
X179746Y479831D01*
D02*
G37*
G36*
X172744Y476128D02*
X169541D01*
Y472925D01*
X169746D01*
X170624Y473161D01*
X171411Y473615D01*
X172054Y474258D01*
X172509Y475045D01*
X172744Y475923D01*
Y476128D01*
D02*
G37*
G36*
X169041D02*
X165839D01*
Y475923D01*
X166074Y475045D01*
X166528Y474258D01*
X167171Y473615D01*
X167959Y473161D01*
X168837Y472925D01*
X169041D01*
Y476128D01*
D02*
G37*
G36*
X162744Y479831D02*
X155839D01*
Y472925D01*
X162744D01*
Y479831D01*
D02*
G37*
G36*
X227862Y475894D02*
X220957D01*
Y468988D01*
X227862D01*
Y475894D01*
D02*
G37*
G36*
X117626Y475736D02*
X110721D01*
Y468831D01*
X117626D01*
Y475736D01*
D02*
G37*
G36*
X204201Y465114D02*
X203279D01*
X202389Y464876D01*
X201591Y464415D01*
X200939Y463763D01*
X200479Y462965D01*
X200240Y462075D01*
Y461153D01*
X200479Y460263D01*
X200939Y459465D01*
X201591Y458813D01*
X202389Y458353D01*
X203279Y458114D01*
X204201D01*
X205091Y458353D01*
X205889Y458813D01*
X206541Y459465D01*
X207002Y460263D01*
X207240Y461153D01*
Y462075D01*
X207002Y462965D01*
X206541Y463763D01*
X205889Y464415D01*
X205091Y464876D01*
X204201Y465114D01*
D02*
G37*
G36*
X147638Y458225D02*
X146675Y458034D01*
X145858Y457488D01*
X145312Y456672D01*
X145121Y455709D01*
Y451772D01*
X145312Y450808D01*
X145858Y449992D01*
X146675Y449446D01*
X147638Y449255D01*
X148601Y449446D01*
X149417Y449992D01*
X149963Y450808D01*
X150155Y451772D01*
Y455709D01*
X149963Y456672D01*
X149417Y457488D01*
X148601Y458034D01*
X147638Y458225D01*
D02*
G37*
G36*
X141732D02*
X140769Y458034D01*
X139953Y457488D01*
X139407Y456672D01*
X139215Y455709D01*
Y451772D01*
X139407Y450808D01*
X139953Y449992D01*
X140769Y449446D01*
X141732Y449255D01*
X142695Y449446D01*
X143512Y449992D01*
X144058Y450808D01*
X144249Y451772D01*
Y455709D01*
X144058Y456672D01*
X143512Y457488D01*
X142695Y458034D01*
X141732Y458225D01*
D02*
G37*
G36*
X153543Y458225D02*
X152580Y458034D01*
X151764Y457488D01*
X151218Y456672D01*
X151026Y455709D01*
Y451772D01*
X151218Y450808D01*
X151764Y449992D01*
X152580Y449446D01*
X153543Y449255D01*
X154507Y449446D01*
X155323Y449992D01*
X155869Y450808D01*
X156060Y451772D01*
Y455709D01*
X155869Y456672D01*
X155323Y457488D01*
X154507Y458034D01*
X153543Y458225D01*
D02*
G37*
G36*
X204201Y455075D02*
X203279D01*
X202389Y454836D01*
X201591Y454376D01*
X200939Y453724D01*
X200479Y452926D01*
X200240Y452036D01*
Y451114D01*
X200479Y450224D01*
X200939Y449426D01*
X201591Y448774D01*
X202389Y448313D01*
X203279Y448075D01*
X204201D01*
X205091Y448313D01*
X205889Y448774D01*
X206541Y449426D01*
X207002Y450224D01*
X207240Y451114D01*
Y452036D01*
X207002Y452926D01*
X206541Y453724D01*
X205889Y454376D01*
X205091Y454836D01*
X204201Y455075D01*
D02*
G37*
G36*
X227862Y438650D02*
X220957D01*
Y431744D01*
X227862D01*
Y438650D01*
D02*
G37*
G36*
X117626D02*
X110721D01*
Y431744D01*
X117626D01*
Y438650D01*
D02*
G37*
G36*
X224864Y428650D02*
X223955D01*
X223077Y428414D01*
X222289Y427960D01*
X221647Y427317D01*
X221192Y426530D01*
X220957Y425651D01*
Y424742D01*
X221192Y423864D01*
X221647Y423077D01*
X222289Y422434D01*
X223077Y421979D01*
X223955Y421744D01*
X224864D01*
X225742Y421979D01*
X226530Y422434D01*
X227172Y423077D01*
X227627Y423864D01*
X227862Y424742D01*
Y425651D01*
X227627Y426530D01*
X227172Y427317D01*
X226530Y427960D01*
X225742Y428414D01*
X224864Y428650D01*
D02*
G37*
G36*
X114628D02*
X113719D01*
X112840Y428414D01*
X112053Y427960D01*
X111410Y427317D01*
X110956Y426530D01*
X110721Y425651D01*
Y424742D01*
X110956Y423864D01*
X111410Y423077D01*
X112053Y422434D01*
X112840Y421979D01*
X113719Y421744D01*
X114628D01*
X115506Y421979D01*
X116293Y422434D01*
X116936Y423077D01*
X117391Y423864D01*
X117626Y424742D01*
Y425651D01*
X117391Y426530D01*
X116936Y427317D01*
X116293Y427960D01*
X115506Y428414D01*
X114628Y428650D01*
D02*
G37*
%LPD*%
D22*
X153543Y453740D02*
D03*
D23*
X147638D02*
D03*
X141732D02*
D03*
D24*
X224410Y435197D02*
D03*
X114173D02*
D03*
X224410Y472441D02*
D03*
X114173Y472284D02*
D03*
D25*
X224410Y425197D02*
D03*
X114173D02*
D03*
X169291Y476378D02*
D03*
X179291D02*
D03*
X224410Y482441D02*
D03*
X114173Y482283D02*
D03*
D26*
X159291Y476378D02*
D03*
D27*
X203740Y451575D02*
D03*
Y461614D02*
D03*
D28*
X128937Y442913D02*
D03*
X193898D02*
D03*
X127953Y417323D02*
D03*
X145669D02*
D03*
X161417D02*
D03*
X178150D02*
D03*
X194882D02*
D03*
X212598D02*
D03*
Y442913D02*
D03*
Y476378D02*
D03*
X193898D02*
D03*
X128937D02*
D03*
X166339Y442913D02*
D03*
M02*
