G04*
G04 #@! TF.GenerationSoftware,Altium Limited,Altium Designer,21.0.9 (235)*
G04*
G04 Layer_Color=16711935*
%FSLAX25Y25*%
%MOIN*%
G70*
G04*
G04 #@! TF.SameCoordinates,B967F2C2-E6FC-4E05-9B2A-515C436140DF*
G04*
G04*
G04 #@! TF.FilePolarity,Positive*
G04*
G01*
G75*
%ADD10C,0.00787*%
D10*
X105315Y502953D02*
X104287Y502885D01*
X103277Y502684D01*
X102302Y502353D01*
X101378Y501898D01*
X100522Y501326D01*
X99747Y500646D01*
X99068Y499872D01*
X98496Y499016D01*
X98040Y498092D01*
X97709Y497117D01*
X97508Y496106D01*
X97441Y495079D01*
X243110Y494095D02*
X243055Y495086D01*
X242888Y496066D01*
X242613Y497020D01*
X242233Y497938D01*
X241753Y498807D01*
X241178Y499617D01*
X240516Y500358D01*
X239775Y501020D01*
X238965Y501595D01*
X238095Y502075D01*
X237178Y502456D01*
X236223Y502731D01*
X235244Y502897D01*
X234252Y502953D01*
Y404528D02*
X235244Y404583D01*
X236223Y404750D01*
X237178Y405025D01*
X238095Y405405D01*
X238965Y405885D01*
X239775Y406460D01*
X240516Y407122D01*
X241178Y407863D01*
X241753Y408673D01*
X242233Y409542D01*
X242613Y410460D01*
X242888Y411415D01*
X243055Y412394D01*
X243110Y413386D01*
X97441Y412402D02*
X97508Y411374D01*
X97709Y410364D01*
X98040Y409388D01*
X98496Y408465D01*
X99068Y407608D01*
X99747Y406834D01*
X100522Y406155D01*
X101378Y405583D01*
X102302Y405127D01*
X103277Y404796D01*
X104287Y404595D01*
X105315Y404528D01*
X97441Y412402D02*
Y495079D01*
X105315Y404528D02*
X234252D01*
X243110Y412402D02*
Y495079D01*
X105315Y502953D02*
X234252Y502953D01*
M02*
