G04*
G04 #@! TF.GenerationSoftware,Altium Limited,Altium Designer,21.0.9 (235)*
G04*
G04 Layer_Physical_Order=1*
G04 Layer_Color=255*
%FSLAX25Y25*%
%MOIN*%
G70*
G04*
G04 #@! TF.SameCoordinates,B967F2C2-E6FC-4E05-9B2A-515C436140DF*
G04*
G04*
G04 #@! TF.FilePolarity,Positive*
G04*
G01*
G75*
%ADD13R,0.09843X0.04528*%
%ADD22C,0.02953*%
%ADD23C,0.09843*%
%ADD24O,0.03937X0.07874*%
%ADD25O,0.03937X0.07874*%
%ADD26R,0.05906X0.05906*%
%ADD27C,0.05906*%
%ADD28R,0.05906X0.05906*%
%ADD29C,0.06000*%
%ADD30C,0.05000*%
G36*
X238189Y482283D02*
X238189Y426181D01*
X220472Y408465D01*
X118110Y408465D01*
X101378Y425197D01*
Y482283D01*
X118110Y499016D01*
X221457Y499016D01*
X238189Y482283D01*
D02*
G37*
%LPC*%
G36*
X218661Y490510D02*
X120079D01*
X119191Y490333D01*
X118438Y489830D01*
X114644Y486036D01*
X113679D01*
X112725Y485780D01*
X111869Y485286D01*
X111170Y484588D01*
X110676Y483732D01*
X110421Y482778D01*
Y481813D01*
X105642Y477035D01*
X105139Y476282D01*
X104963Y475394D01*
Y431102D01*
X105139Y430214D01*
X105642Y429461D01*
X110071Y425032D01*
X110421Y424799D01*
Y424703D01*
X110676Y423748D01*
X111170Y422893D01*
X111869Y422194D01*
X112725Y421700D01*
X113679Y421444D01*
X114667D01*
X115622Y421700D01*
X116478Y422194D01*
X117159Y422876D01*
X221423D01*
X222105Y422194D01*
X222961Y421700D01*
X223915Y421444D01*
X224903D01*
X225858Y421700D01*
X226714Y422194D01*
X227412Y422893D01*
X227906Y423748D01*
X228162Y424703D01*
Y425691D01*
X227906Y426645D01*
X227412Y427501D01*
X226714Y428200D01*
X225858Y428694D01*
X224903Y428950D01*
X223915D01*
X222961Y428694D01*
X222105Y428200D01*
X221423Y427518D01*
X117159D01*
X116478Y428200D01*
X115622Y428694D01*
X114667Y428950D01*
X113679D01*
X112922Y428747D01*
X110724Y430944D01*
X110931Y431444D01*
X117926D01*
Y432876D01*
X137953D01*
X138841Y433052D01*
X139594Y433556D01*
X147638Y441600D01*
X155682Y433556D01*
X156435Y433052D01*
X157323Y432876D01*
X220657D01*
Y431444D01*
X228162D01*
Y438950D01*
X226730D01*
Y468688D01*
X228162D01*
Y476194D01*
X220657D01*
Y468688D01*
X222089D01*
Y438950D01*
X220657D01*
Y437518D01*
X158284D01*
X149959Y445843D01*
Y450249D01*
X150056Y450376D01*
X150335Y451049D01*
X150338Y451074D01*
X150843D01*
X150846Y451049D01*
X151125Y450376D01*
X151569Y449797D01*
X152147Y449353D01*
X152821Y449074D01*
X153543Y448979D01*
X154266Y449074D01*
X154939Y449353D01*
X155518Y449797D01*
X155962Y450376D01*
X156241Y451049D01*
X156336Y451772D01*
Y455709D01*
X156241Y456431D01*
X155962Y457105D01*
X155864Y457232D01*
Y459668D01*
X157457Y461262D01*
X160617D01*
Y460519D01*
X172060D01*
Y461262D01*
X176365D01*
Y460519D01*
X187808D01*
Y466646D01*
X184408D01*
Y472784D01*
X184231Y473672D01*
X183728Y474425D01*
X182880Y475272D01*
X183044Y475884D01*
Y476872D01*
X182788Y477826D01*
X182294Y478682D01*
X181596Y479381D01*
X180740Y479875D01*
X179785Y480131D01*
X178797D01*
X177843Y479875D01*
X176987Y479381D01*
X176288Y478682D01*
X175794Y477826D01*
X175539Y476872D01*
Y475884D01*
X175794Y474929D01*
X176288Y474074D01*
X176987Y473375D01*
X177843Y472881D01*
X178797Y472625D01*
X178963D01*
X179766Y471822D01*
Y466646D01*
X176365D01*
Y465904D01*
X172060D01*
Y466646D01*
X160617D01*
Y465904D01*
X156496D01*
X155608Y465727D01*
X154855Y465224D01*
X151902Y462271D01*
X151399Y461518D01*
X151222Y460630D01*
Y457232D01*
X151125Y457105D01*
X150846Y456431D01*
X150843Y456406D01*
X150338D01*
X150335Y456431D01*
X150056Y457105D01*
X149612Y457683D01*
X149034Y458127D01*
X148361Y458406D01*
X147638Y458501D01*
X146915Y458406D01*
X146242Y458127D01*
X145663Y457683D01*
X145220Y457105D01*
X144941Y456431D01*
X144937Y456406D01*
X144433D01*
X144430Y456431D01*
X144151Y457105D01*
X144053Y457232D01*
Y461614D01*
X143877Y462502D01*
X143374Y463255D01*
X142751Y463878D01*
X152930Y474057D01*
X155539D01*
Y472625D01*
X163044D01*
Y480131D01*
X155539D01*
Y478699D01*
X151969D01*
X151080Y478522D01*
X150327Y478019D01*
X138507Y466199D01*
X134658D01*
Y466942D01*
X123216D01*
Y460814D01*
X134658D01*
Y461557D01*
X138507D01*
X139411Y460653D01*
Y457232D01*
X139314Y457105D01*
X139035Y456431D01*
X138940Y455709D01*
Y451772D01*
X139035Y451049D01*
X139314Y450376D01*
X139758Y449797D01*
X140336Y449353D01*
X141010Y449074D01*
X141732Y448979D01*
X142455Y449074D01*
X143129Y449353D01*
X143707Y449797D01*
X144151Y450376D01*
X144430Y451049D01*
X144433Y451074D01*
X144937D01*
X144941Y451049D01*
X145220Y450376D01*
X145317Y450249D01*
Y445843D01*
X136991Y437518D01*
X117926D01*
Y438950D01*
X116494D01*
Y468531D01*
X117926D01*
Y476036D01*
X111862D01*
X111670Y476498D01*
X113703Y478531D01*
X114667D01*
X115622Y478787D01*
X116478Y479281D01*
X117176Y479979D01*
X117670Y480835D01*
X117926Y481789D01*
Y482754D01*
X121040Y485868D01*
X201419D01*
Y464662D01*
X201407Y464655D01*
X200699Y463947D01*
X200199Y463081D01*
X199940Y462114D01*
Y461114D01*
X200199Y460147D01*
X200699Y459281D01*
X201407Y458573D01*
X202273Y458073D01*
X203240Y457814D01*
X204240D01*
X205207Y458073D01*
X206073Y458573D01*
X206781Y459281D01*
X207281Y460147D01*
X207540Y461114D01*
Y462114D01*
X207281Y463081D01*
X206781Y463947D01*
X206073Y464655D01*
X206061Y464662D01*
Y485868D01*
X217700D01*
X220657Y482911D01*
Y481947D01*
X220912Y480992D01*
X221407Y480137D01*
X222105Y479438D01*
X222961Y478944D01*
X223915Y478688D01*
X224903D01*
X225858Y478944D01*
X226714Y479438D01*
X227412Y480137D01*
X227906Y480992D01*
X228162Y481947D01*
Y482935D01*
X227906Y483889D01*
X227412Y484745D01*
X226714Y485444D01*
X225858Y485938D01*
X224903Y486194D01*
X223939D01*
X220303Y489830D01*
X219550Y490333D01*
X218661Y490510D01*
D02*
G37*
G36*
X170291Y480202D02*
Y477378D01*
X173116D01*
X172975Y477904D01*
X172454Y478805D01*
X171718Y479541D01*
X170817Y480061D01*
X170291Y480202D01*
D02*
G37*
G36*
X168291D02*
X167766Y480061D01*
X166864Y479541D01*
X166128Y478805D01*
X165608Y477904D01*
X165467Y477378D01*
X168291D01*
Y480202D01*
D02*
G37*
G36*
X173116Y475378D02*
X170291D01*
Y472554D01*
X170817Y472695D01*
X171718Y473215D01*
X172454Y473951D01*
X172975Y474852D01*
X173116Y475378D01*
D02*
G37*
G36*
X168291D02*
X165467D01*
X165608Y474852D01*
X166128Y473951D01*
X166864Y473215D01*
X167766Y472695D01*
X168291Y472554D01*
Y475378D01*
D02*
G37*
G36*
X204240Y455375D02*
X203240D01*
X202273Y455116D01*
X201407Y454616D01*
X200699Y453908D01*
X200579Y453699D01*
X187808D01*
Y454245D01*
X176365D01*
Y448117D01*
X187808D01*
Y449057D01*
X200884D01*
X201407Y448534D01*
X202273Y448034D01*
X203240Y447775D01*
X204240D01*
X205207Y448034D01*
X206073Y448534D01*
X206781Y449242D01*
X207281Y450108D01*
X207540Y451075D01*
Y452075D01*
X207281Y453042D01*
X206781Y453908D01*
X206073Y454616D01*
X205207Y455116D01*
X204240Y455375D01*
D02*
G37*
G36*
X134858Y454740D02*
X129937D01*
Y452476D01*
X134858D01*
Y454740D01*
D02*
G37*
G36*
X127937D02*
X123016D01*
Y452476D01*
X127937D01*
Y454740D01*
D02*
G37*
G36*
X172260Y454445D02*
X167339D01*
Y452181D01*
X172260D01*
Y454445D01*
D02*
G37*
G36*
X165339D02*
X160417D01*
Y452181D01*
X165339D01*
Y454445D01*
D02*
G37*
G36*
X172260Y450181D02*
X166339D01*
X160417D01*
Y447917D01*
X164018D01*
Y442913D01*
X164194Y442025D01*
X164697Y441272D01*
X165450Y440769D01*
X166339Y440592D01*
X167227Y440769D01*
X167980Y441272D01*
X168483Y442025D01*
X168660Y442913D01*
Y447917D01*
X172260D01*
Y450181D01*
D02*
G37*
G36*
X134858Y450476D02*
X128937D01*
X123016D01*
Y448213D01*
X126616D01*
Y442913D01*
X126793Y442025D01*
X127296Y441272D01*
X128049Y440769D01*
X128937Y440592D01*
X129825Y440769D01*
X130578Y441272D01*
X131081Y442025D01*
X131258Y442913D01*
Y448213D01*
X134858D01*
Y450476D01*
D02*
G37*
%LPD*%
G36*
X110421Y474595D02*
Y468531D01*
X111852D01*
Y438950D01*
X110421D01*
Y431955D01*
X109985Y431774D01*
X109604Y432085D01*
Y474432D01*
X109959Y474786D01*
X110421Y474595D01*
D02*
G37*
D13*
X128937Y463878D02*
D03*
Y451476D02*
D03*
X166339Y463583D02*
D03*
Y451181D02*
D03*
X182087Y463583D02*
D03*
Y451181D02*
D03*
D22*
X156496Y463583D02*
X166339D01*
X153543Y460630D02*
X156496Y463583D01*
X153543Y453740D02*
Y460630D01*
X141732Y453740D02*
Y461614D01*
X139469Y463878D02*
X141732Y461614D01*
X147638Y444882D02*
Y453740D01*
X114173Y435197D02*
Y472284D01*
X107283Y475394D02*
X114173Y482283D01*
X107283Y431102D02*
Y475394D01*
X111713Y426673D02*
X111898D01*
X114173Y482283D02*
X120079Y488189D01*
X113374Y425197D02*
X224410D01*
X111898Y426673D02*
X113374Y425197D01*
X107283Y431102D02*
X111713Y426673D01*
X128937Y442913D02*
Y451476D01*
X166339Y442913D02*
Y451181D01*
X147638Y444882D02*
X157323Y435197D01*
X224410D01*
X114173D02*
X137953D01*
X147638Y444882D01*
X224410Y435197D02*
Y472441D01*
X204724Y488189D02*
X218661D01*
X120079D02*
X204724D01*
X203740Y461614D02*
Y487205D01*
X204724Y488189D01*
X218661D02*
X224410Y482441D01*
X179291Y475579D02*
Y476378D01*
X182087Y463583D02*
Y472784D01*
X179291Y475579D02*
X182087Y472784D01*
X166339Y463583D02*
X182087D01*
X151969Y476378D02*
X159291D01*
X139469Y463878D02*
X151969Y476378D01*
X182283Y451378D02*
X203543D01*
X182087Y451181D02*
X182283Y451378D01*
X203543D02*
X203740Y451575D01*
X128937Y463878D02*
X139469D01*
D23*
X105315Y412402D02*
D03*
X234252D02*
D03*
Y495079D02*
D03*
X105315D02*
D03*
D24*
X153543Y453740D02*
D03*
D25*
X147638D02*
D03*
X141732D02*
D03*
D26*
X224410Y435197D02*
D03*
X114173D02*
D03*
X224410Y472441D02*
D03*
X114173Y472284D02*
D03*
D27*
X224410Y425197D02*
D03*
X114173D02*
D03*
X169291Y476378D02*
D03*
X179291D02*
D03*
X224410Y482441D02*
D03*
X114173Y482283D02*
D03*
D28*
X159291Y476378D02*
D03*
D29*
X203740Y451575D02*
D03*
Y461614D02*
D03*
D30*
X128937Y442913D02*
D03*
X193898D02*
D03*
X127953Y417323D02*
D03*
X145669D02*
D03*
X161417D02*
D03*
X178150D02*
D03*
X194882D02*
D03*
X212598D02*
D03*
Y442913D02*
D03*
Y476378D02*
D03*
X193898D02*
D03*
X128937D02*
D03*
X166339Y442913D02*
D03*
M02*
