M48
;Layer_Color=9474304
;FILE_FORMAT=2:5
INCH,TZ
;TYPE=PLATED
T1F00S00C0.02756
T2F00S00C0.02800
T3F00S00C0.03543
T4F00S00C0.07874
%
T01
X141732Y453740
X147638
X153543
T02
X127953Y417323
X145669
X128937Y442913
X166339
X193898
X212598
Y417323
X194882
X178150
X161417
X193898Y476378
X212598
X128937
T03
X114173Y425197
Y435197
X203740Y451575
Y461614
X224410Y435197
Y425197
Y472441
Y482441
X179291Y476378
X169291
X159291
X114173Y472284
Y482283
T04
X105315Y412402
X234252
Y495079
X105315
M30
