G04*
G04 #@! TF.GenerationSoftware,Altium Limited,Altium Designer,21.0.9 (235)*
G04*
G04 Layer_Physical_Order=1*
G04 Layer_Color=255*
%FSLAX25Y25*%
%MOIN*%
G70*
G04*
G04 #@! TF.SameCoordinates,9C6B2F4F-DD67-4C68-84DA-E08A5B7113C0*
G04*
G04*
G04 #@! TF.FilePolarity,Positive*
G04*
G01*
G75*
%ADD13R,0.09843X0.04528*%
%ADD21C,0.02953*%
%ADD22O,0.03937X0.07874*%
%ADD23O,0.03937X0.07874*%
%ADD24R,0.05906X0.05906*%
%ADD25C,0.05906*%
%ADD26R,0.05906X0.05906*%
%ADD27C,0.06000*%
%ADD28C,0.05000*%
G36*
X234252Y486221D02*
X234252Y422244D01*
X223425Y411417D01*
X115157Y411417D01*
X105315Y421260D01*
Y429591D01*
X105815Y429743D01*
X105859Y429677D01*
X110288Y425248D01*
X110721Y424959D01*
Y424742D01*
X110956Y423864D01*
X111410Y423077D01*
X112053Y422434D01*
X112840Y421979D01*
X113719Y421744D01*
X114628D01*
X115506Y421979D01*
X116293Y422434D01*
X116936Y423077D01*
X116997Y423182D01*
X221586D01*
X221647Y423077D01*
X222289Y422434D01*
X223077Y421979D01*
X223955Y421744D01*
X224864D01*
X225742Y421979D01*
X226530Y422434D01*
X227172Y423077D01*
X227627Y423864D01*
X227862Y424742D01*
Y425651D01*
X227627Y426530D01*
X227172Y427317D01*
X226530Y427960D01*
X225742Y428414D01*
X224864Y428650D01*
X223955D01*
X223077Y428414D01*
X222289Y427960D01*
X221647Y427317D01*
X221586Y427212D01*
X116997D01*
X116936Y427317D01*
X116293Y427960D01*
X115506Y428414D01*
X114628Y428650D01*
X113719D01*
X112847Y428416D01*
X112765Y428471D01*
X109299Y431937D01*
Y474559D01*
X110221Y475481D01*
X110721Y475274D01*
Y468831D01*
X112158D01*
Y438650D01*
X110721D01*
Y431744D01*
X117626D01*
Y433182D01*
X137953D01*
X138724Y433335D01*
X139378Y433772D01*
X147638Y442032D01*
X155898Y433772D01*
X156552Y433335D01*
X157323Y433182D01*
X220957D01*
Y431744D01*
X227862D01*
Y438650D01*
X226425D01*
Y468988D01*
X227862D01*
Y475894D01*
X220957D01*
Y468988D01*
X222394D01*
Y438650D01*
X220957D01*
Y437212D01*
X158158D01*
X149653Y445717D01*
Y450344D01*
X149963Y450808D01*
X150155Y451772D01*
Y455709D01*
X149963Y456672D01*
X149417Y457488D01*
X148601Y458034D01*
X147638Y458225D01*
X146675Y458034D01*
X145858Y457488D01*
X145312Y456672D01*
X145121Y455709D01*
Y451772D01*
X145312Y450808D01*
X145623Y450344D01*
Y445717D01*
X137118Y437212D01*
X117626D01*
Y438650D01*
X116188D01*
Y468831D01*
X117626D01*
Y475736D01*
X111183D01*
X110976Y476236D01*
X113602Y478862D01*
X113719Y478831D01*
X114628D01*
X115506Y479066D01*
X116293Y479521D01*
X116936Y480163D01*
X117391Y480951D01*
X117626Y481829D01*
Y482738D01*
X117595Y482855D01*
X120913Y486174D01*
X201725D01*
Y464492D01*
X201591Y464415D01*
X200939Y463763D01*
X200479Y462965D01*
X200240Y462075D01*
Y461153D01*
X200479Y460263D01*
X200939Y459465D01*
X201591Y458813D01*
X202389Y458353D01*
X203279Y458114D01*
X204201D01*
X205091Y458353D01*
X205889Y458813D01*
X206541Y459465D01*
X207002Y460263D01*
X207240Y461153D01*
Y462075D01*
X207002Y462965D01*
X206541Y463763D01*
X205889Y464415D01*
X205755Y464492D01*
Y486174D01*
X217827D01*
X220988Y483013D01*
X220957Y482896D01*
Y481986D01*
X221192Y481108D01*
X221647Y480321D01*
X222289Y479678D01*
X223077Y479223D01*
X223955Y478988D01*
X224864D01*
X225742Y479223D01*
X226530Y479678D01*
X227172Y480321D01*
X227627Y481108D01*
X227862Y481986D01*
Y482896D01*
X227627Y483774D01*
X227172Y484561D01*
X226530Y485204D01*
X225742Y485658D01*
X224864Y485894D01*
X223955D01*
X223838Y485862D01*
X220086Y489614D01*
X219433Y490051D01*
X218661Y490204D01*
X120079D01*
X119308Y490051D01*
X118654Y489614D01*
X114745Y485705D01*
X114628Y485736D01*
X113719D01*
X112840Y485501D01*
X112053Y485046D01*
X111410Y484404D01*
X110956Y483616D01*
X110721Y482738D01*
Y481829D01*
X110752Y481712D01*
X105859Y476819D01*
X105815Y476753D01*
X105315Y476905D01*
Y486221D01*
X114173Y495079D01*
X225394Y495079D01*
X234252Y486221D01*
D02*
G37*
%LPC*%
G36*
X169746Y479831D02*
X169541D01*
Y476628D01*
X172744D01*
Y476832D01*
X172509Y477711D01*
X172054Y478498D01*
X171411Y479141D01*
X170624Y479595D01*
X169746Y479831D01*
D02*
G37*
G36*
X169041D02*
X168837D01*
X167959Y479595D01*
X167171Y479141D01*
X166528Y478498D01*
X166074Y477711D01*
X165839Y476832D01*
Y476628D01*
X169041D01*
Y479831D01*
D02*
G37*
G36*
X172744Y476128D02*
X169541D01*
Y472925D01*
X169746D01*
X170624Y473161D01*
X171411Y473615D01*
X172054Y474258D01*
X172509Y475045D01*
X172744Y475923D01*
Y476128D01*
D02*
G37*
G36*
X169041D02*
X165839D01*
Y475923D01*
X166074Y475045D01*
X166528Y474258D01*
X167171Y473615D01*
X167959Y473161D01*
X168837Y472925D01*
X169041D01*
Y476128D01*
D02*
G37*
G36*
X162744Y479831D02*
X155839D01*
Y478393D01*
X151969D01*
X151197Y478240D01*
X150544Y477803D01*
X138634Y465893D01*
X134358D01*
Y466642D01*
X123516D01*
Y461114D01*
X134358D01*
Y461863D01*
X138634D01*
X139717Y460779D01*
Y457136D01*
X139407Y456672D01*
X139215Y455709D01*
Y451772D01*
X139407Y450808D01*
X139953Y449992D01*
X140769Y449446D01*
X141732Y449255D01*
X142695Y449446D01*
X143512Y449992D01*
X144058Y450808D01*
X144249Y451772D01*
Y455709D01*
X144058Y456672D01*
X143747Y457136D01*
Y461614D01*
X143594Y462385D01*
X143157Y463039D01*
X142318Y463878D01*
X152803Y474363D01*
X155839D01*
Y472925D01*
X162744D01*
Y479831D01*
D02*
G37*
G36*
X179746D02*
X178837D01*
X177959Y479595D01*
X177171Y479141D01*
X176529Y478498D01*
X176074Y477711D01*
X175839Y476832D01*
Y475923D01*
X176074Y475045D01*
X176529Y474258D01*
X177171Y473615D01*
X177959Y473161D01*
X178837Y472925D01*
X179095D01*
X180071Y471949D01*
Y466347D01*
X176665D01*
Y465598D01*
X171760D01*
Y466347D01*
X160917D01*
Y465598D01*
X156496D01*
X155725Y465444D01*
X155071Y465008D01*
X152118Y462055D01*
X151682Y461401D01*
X151528Y460630D01*
Y457136D01*
X151218Y456672D01*
X151026Y455709D01*
Y451772D01*
X151218Y450808D01*
X151764Y449992D01*
X152580Y449446D01*
X153543Y449255D01*
X154507Y449446D01*
X155323Y449992D01*
X155869Y450808D01*
X156060Y451772D01*
Y455709D01*
X155869Y456672D01*
X155558Y457136D01*
Y459795D01*
X157331Y461568D01*
X160917D01*
Y460819D01*
X171760D01*
Y461568D01*
X176665D01*
Y460819D01*
X187508D01*
Y466347D01*
X184102D01*
Y472784D01*
X183948Y473555D01*
X183511Y474209D01*
X182544Y475176D01*
X182744Y475923D01*
Y476832D01*
X182509Y477711D01*
X182054Y478498D01*
X181411Y479141D01*
X180624Y479595D01*
X179746Y479831D01*
D02*
G37*
G36*
X204201Y455075D02*
X203279D01*
X202389Y454836D01*
X201591Y454376D01*
X200939Y453724D01*
X200748Y453393D01*
X187508D01*
Y453945D01*
X176665D01*
Y448417D01*
X187508D01*
Y449363D01*
X201002D01*
X201591Y448774D01*
X202389Y448313D01*
X203279Y448075D01*
X204201D01*
X205091Y448313D01*
X205889Y448774D01*
X206541Y449426D01*
X207002Y450224D01*
X207240Y451114D01*
Y452036D01*
X207002Y452926D01*
X206541Y453724D01*
X205889Y454376D01*
X205091Y454836D01*
X204201Y455075D01*
D02*
G37*
G36*
X134358Y454240D02*
X129187D01*
Y451726D01*
X134358D01*
Y454240D01*
D02*
G37*
G36*
X128687D02*
X123516D01*
Y451726D01*
X128687D01*
Y454240D01*
D02*
G37*
G36*
X171760Y453945D02*
X166589D01*
Y451431D01*
X171760D01*
Y453945D01*
D02*
G37*
G36*
X166089D02*
X160917D01*
Y451431D01*
X166089D01*
Y453945D01*
D02*
G37*
G36*
X171760Y450931D02*
X166339D01*
X160917D01*
Y448417D01*
X164323D01*
Y442913D01*
X164477Y442142D01*
X164914Y441489D01*
X165567Y441052D01*
X166339Y440898D01*
X167110Y441052D01*
X167763Y441489D01*
X168200Y442142D01*
X168354Y442913D01*
Y448417D01*
X171760D01*
Y450931D01*
D02*
G37*
G36*
X134358Y451226D02*
X128937D01*
X123516D01*
Y448713D01*
X126922D01*
Y442913D01*
X127075Y442142D01*
X127512Y441489D01*
X128166Y441052D01*
X128937Y440898D01*
X129708Y441052D01*
X130362Y441489D01*
X130799Y442142D01*
X130952Y442913D01*
Y448713D01*
X134358D01*
Y451226D01*
D02*
G37*
%LPD*%
D13*
X128937Y463878D02*
D03*
Y451476D02*
D03*
X166339Y463583D02*
D03*
Y451181D02*
D03*
X182087Y463583D02*
D03*
Y451181D02*
D03*
D21*
X156496Y463583D02*
X166339D01*
X153543Y460630D02*
X156496Y463583D01*
X153543Y453740D02*
Y460630D01*
X141732Y453740D02*
Y461614D01*
X139469Y463878D02*
X141732Y461614D01*
X147638Y444882D02*
Y453740D01*
X114173Y435197D02*
Y472284D01*
X107283Y475394D02*
X114173Y482283D01*
X107283Y431102D02*
Y475394D01*
X111713Y426673D02*
X111898D01*
X114173Y482283D02*
X120079Y488189D01*
X113374Y425197D02*
X224410D01*
X111898Y426673D02*
X113374Y425197D01*
X107283Y431102D02*
X111713Y426673D01*
X128937Y442913D02*
Y451476D01*
X166339Y442913D02*
Y451181D01*
X147638Y444882D02*
X157323Y435197D01*
X224410D01*
X114173D02*
X137953D01*
X147638Y444882D01*
X224410Y435197D02*
Y472441D01*
X204724Y488189D02*
X218661D01*
X120079D02*
X204724D01*
X203740Y461614D02*
Y487205D01*
X204724Y488189D01*
X218661D02*
X224410Y482441D01*
X179291Y475579D02*
Y476378D01*
X182087Y463583D02*
Y472784D01*
X179291Y475579D02*
X182087Y472784D01*
X166339Y463583D02*
X182087D01*
X151969Y476378D02*
X159291D01*
X139469Y463878D02*
X151969Y476378D01*
X182283Y451378D02*
X203543D01*
X182087Y451181D02*
X182283Y451378D01*
X203543D02*
X203740Y451575D01*
X128937Y463878D02*
X139469D01*
D22*
X153543Y453740D02*
D03*
D23*
X147638D02*
D03*
X141732D02*
D03*
D24*
X224410Y435197D02*
D03*
X114173D02*
D03*
X224410Y472441D02*
D03*
X114173Y472284D02*
D03*
D25*
X224410Y425197D02*
D03*
X114173D02*
D03*
X169291Y476378D02*
D03*
X179291D02*
D03*
X224410Y482441D02*
D03*
X114173Y482283D02*
D03*
D26*
X159291Y476378D02*
D03*
D27*
X203740Y451575D02*
D03*
Y461614D02*
D03*
D28*
X128937Y442913D02*
D03*
X193898D02*
D03*
X127953Y417323D02*
D03*
X145669D02*
D03*
X161417D02*
D03*
X178150D02*
D03*
X194882D02*
D03*
X212598D02*
D03*
Y442913D02*
D03*
Y476378D02*
D03*
X193898D02*
D03*
X128937D02*
D03*
X166339Y442913D02*
D03*
M02*
