M48
;Layer_Color=9474304
;FILE_FORMAT=2:5
INCH,LZ
;TYPE=PLATED
T1F00S00C0.01968
T2F00S00C0.02953
T3F00S00C0.03937
T4F00S00C0.04724
T5F00S00C0.11811
T6F00S00C0.17717
%
T01
X010748Y0225197
X0127953Y0254921
T02
X0498032Y0020669
Y0030512
Y0040354
X0507874
X0517717
Y0030512
Y0020669
X0507874
Y0030512
Y0079724
Y0089567
X0517717Y0089567
Y009941
X0507874
X0498032
Y0089567
Y0079724
X0517717
Y0119095
X0507874
X0498032
Y0128937
Y0138779
X0507874
X0517717
Y0128937
X0507874
Y017815
Y0187992
X0517717Y0187992
Y0197835
X0507874
X0498032
Y0187992
Y017815
X0517717
Y021752
X0507874
X0498032
Y0227362
Y0237205
X0507874
X0517717
Y0227362
X0507874
Y0276575
Y0286417
X0517717Y0286417
Y029626
X0507874
X0498032
Y0286417
Y0276575
X0517717
T03
X0017717Y0015748
X0041339
X0064961
X0088583
X0084646Y0047835
X0075787
X0093504
X0064961Y0062992
X0041339
X0029528Y0086614
X0053149
X0060039Y0108268
X0068898Y0102362
X0077756Y0108268
X007874Y0139764
Y0151575
X0059055
Y0139764
X0041339Y0110236
X0017717Y0110236
X0029528Y003937
X0053149
X0129921Y0121063
X0181102Y0116142
Y0106299
Y0125984
Y0135827
X0216535Y0147638
X0222441Y0125984
Y0116142
Y0106299
X0242126
Y0116142
Y0125984
X0253937Y0110236
X0265748Y011811
Y0088583
X0242126Y0086614
X0253937Y0062992
X0277559
X0301181
X0295276Y0088583
Y011811
X028937Y003937
X0242126
X0206693Y0110236
X0324803Y011811
Y0147638
Y0088583
X0324803Y0062992
X0348425
X0372047
X0395669
X0419291
X0442913
X0466535
X0442913Y0088583
X0413386
X0383858
X0354331
X0336614Y003937
X0383858
X0431102
X0442913Y0147638
X0413386
X0383858
X0472441
Y011811
Y0088583
X0490158Y0062992
X0478346Y003937
X0490158Y015748
X0513779
X0472441Y0177165
Y0206693
Y0236221
Y0265748
Y0295276
X0490158Y0251969
X0442913Y0265748
X0413386
Y0236221
X0442913
Y0206693
Y0177165
X0413386
X0324803
Y0206693
Y0236221
X0312992Y0275591
X0324803Y0299213
X0348425
X0375984Y0299213
X0395669Y0299213
X0442913Y0295276
X0360236Y0275591
X0301181Y0299213
X0277559
X0248031Y0299213
X0230315Y0299213
X0197638Y0296063
Y0304921
X0177953
Y0296063
X0185039Y0240158
Y0232283
Y022441
Y0216535
Y0208661
Y0200787
X0187008Y0187008
X015748
Y015748
X0187008
X0216535Y0177165
Y0236221
X0295276
Y0206693
Y0177165
X0265748Y0275591
X0135827Y0299213
X0064961
X0046063Y0292126
Y027441
X0029528Y0275591
X0041339Y0251969
X0059842Y026063
X0069685Y0265551
X0079528Y026063
X0093307Y0247835
X007874Y0230315
Y0216535
X0061024
Y0230315
X003937Y0226378
Y019685
X0068898
Y0167323
X0098425Y015748
Y0187008
X0127953
Y015748
X0105905Y0216142
X0015748Y0299213
T04
X0214941Y0038976
X0229941
X0262185
X0277185
X0309429
X0324429
X0356673
X0371673
X0403917
X0418917
X0451161Y003937
X0466161
X0396083Y0275394
X0381083
X0344902
X0329902
X0293721
X027872
X0242539
X0227539
T05
X0023622Y0059055
X0507874
Y0255906
X0023622
T06
X0027559Y0143307
Y0171653
M30
