M48
;Layer_Color=9474304
;FILE_FORMAT=4:4
METRIC,LZ
;TYPE=PLATED
T1F00S00C0.5000
T2F00S00C0.7500
T3F00S00C1.0000
T4F00S00C1.2000
T5F00S00C3.0000
T6F00S00C4.5000
%
T01
X00273Y00572
X00341Y00646
T02
X01265Y000525
X0129
Y000775
X01315
Y000525
Y001025
X0129
X01265
Y000775
Y002025
Y002275
Y002525
X0129
X01315
Y002275
Y002025
X0129
Y002275
Y003025
Y003275
X01315
Y003025
Y003525
X0129
X01265
Y003275
Y003025
Y004525
Y004775
Y005025
X0129
X01315
Y004775
Y004525
X0129
Y004775
Y005525
Y005775
X01315
Y005525
Y006025
X0129
X01265
Y005775
Y005525
Y007025
Y007275
Y007525
X0129
X01315
Y007275
Y007025
X0129
Y007275
T03
X00045Y0004
X00105
X00165
X00225
X00215Y001215
X001925
X002375
X00165Y0016
X00105
X00075Y001
X00135
Y0022
X00075
X00045Y0028
X00105Y0028
X001525Y00275
X00175Y0026
X001975Y00275
X002Y00355
Y00385
X0015
Y00355
X0033Y003075
X0046Y00295
Y0032
Y00345
Y0027
X00525Y0028
X00565Y0027
Y00295
Y0032
X00615
Y00295
Y0027
X00645Y0028
X00675Y003
X0075
Y00225
X00675
X00615Y0022
X00645Y0016
X00705
X00765
X00735Y001
X00615
X0055Y00375
X00825
Y003
Y00225
X009
X00975
X0105
X01125
X01125Y0016
X01065
X01005
X00945
X00975Y001
X00855
X01095
X01185Y0016
X01125Y00375
X0105
X00975
X012
Y003
Y00225
X01245Y0016
X01215Y001
X01245Y004
X01305
X012Y0045
Y00525
Y006
Y00675
Y0075
X01245Y0064
X01125Y00675
Y0075
X01005Y0076
X00955Y0076
X00885Y0076
X00825
X00795Y007
X00915
X0105Y00675
Y006
X01125
Y00525
Y0045
X0105
X00825
Y00525
Y006
X0075
Y00525
Y0045
X0055
X00475Y00475
X0047Y0051
Y0053
Y0055
Y0057
Y0059
Y0061
X0055Y006
X00585Y0076
X0063Y0076
X00705Y0076
X00765
X00675Y007
X00502Y00752
Y007745
X00452
Y00752
X004Y00475
Y004
X00475
X00325
Y00475
X0025
Y004
X00175Y00425
Y005
X00155Y0055
Y00585
X002
Y0055
X00269Y00549
X00237Y006295
X00202Y00662
X00177Y006745
X00152Y00662
X00105Y0064
X00117Y00697
Y00742
X00165Y0076
X0004Y0076
X00075Y007
X001Y00575
Y005
X00345Y0076
T04
X0054595Y00099
X0058405
X0066595
X0070405
X0078595
X0082405
X0090595
X0094405
X0102595
X0106405
X0114595Y001
X0118405
X0100605Y006995
X0096795
X0087605
X0083795
X0074605
X0070795
X0061605
X0057795
T05
X0006Y0015
X0129
Y0065
X0006
T06
X0007Y00364
Y00436
M30
